M48
; DRILL file {KiCad 5.1.10} date Tue Jul  6 20:02:03 2021
; FORMAT={-:-/ absolute / inch / decimal}
; #@! TF.CreationDate,2021-07-06T20:02:03-04:00
; #@! TF.GenerationSoftware,Kicad,Pcbnew,5.1.10
; #@! TF.FileFunction,Plated,1,2,PTH
FMAT,2
INCH
T1C0.0079
T2C0.0157
T3C0.0315
T4C0.0374
T5C0.0433
%
G90
G05
T1
X3.1206Y-4.7144
X3.1206Y-4.7656
X3.16Y-4.7144
X3.16Y-4.7656
X3.1994Y-4.7144
X3.1994Y-4.7656
T2
X2.9Y-3.92
X2.9Y-3.98
X2.9Y-4.04
X2.95Y-3.92
X2.95Y-3.98
X2.95Y-4.04
X2.97Y-4.12
X2.97Y-4.17
X2.97Y-4.22
X3.06Y-4.11
X3.14Y-4.57
X3.18Y-4.57
X3.19Y-4.91
X3.26Y-4.92
X3.5Y-4.64
X3.53Y-4.85
X3.55Y-4.64
X3.59Y-4.85
X3.6Y-4.64
X3.645Y-4.42
X3.66Y-4.02
X3.695Y-4.42
X3.745Y-4.42
X3.795Y-4.42
X3.94Y-3.98
X3.95Y-4.08
X4.17Y-4.05
X4.38Y-3.13
X4.49Y-4.93
X4.49Y-5.23
X4.55Y-4.31
X4.57Y-3.13
X4.63Y-3.39
X4.65Y-3.33
X4.69Y-3.45
X4.71Y-3.28
X4.74Y-3.47
X4.94Y-3.75
X4.98Y-4.285
X5.03Y-4.485
X5.11Y-4.41
X5.39Y-4.3
X5.41Y-2.73
X5.41Y-2.91
X5.51Y-3.01
X5.51Y-3.35
X5.59Y-4.56
X5.6Y-3.42
X6.25Y-2.63
X6.29Y-4.04
X6.31Y-5.24
X6.31Y-5.3
X6.38Y-4.91
X6.4Y-3.27
X6.43Y-4.685
X6.46Y-5.63
X6.47Y-3.98
X6.48Y-4.91
X6.505Y-4.285
X6.505Y-4.385
X6.52Y-3.31
X6.53Y-4.91
X6.555Y-4.585
X6.58Y-4.91
X6.605Y-3.46
X6.63Y-4.56
X6.67Y-4.81
X6.67Y-5.63
X6.68Y-3.51
X6.68Y-4.91
X6.73Y-3.42
X6.73Y-4.91
X6.74Y-3.49
X6.78Y-4.91
X6.97Y-2.66
X6.98Y-4.91
X7.0223Y-4.7295
X7.03Y-4.66
X7.07Y-5.62
X7.08Y-4.91
X7.13Y-4.91
X7.155Y-4.36
X7.18Y-4.91
X7.23Y-4.71
X7.24Y-4.82
X7.27Y-5.62
X7.28Y-4.91
X7.33Y-4.91
X7.38Y-4.91
X7.58Y-4.91
X7.68Y-4.91
X7.68Y-5.63
X7.71Y-2.65
X7.73Y-4.91
X7.78Y-4.91
X7.83Y-4.36
X7.83Y-4.71
X7.87Y-4.79
X7.88Y-4.91
X7.88Y-5.63
X7.93Y-4.91
X7.98Y-4.91
X8.18Y-4.91
X8.28Y-4.91
X8.28Y-5.63
X8.33Y-4.91
X8.38Y-4.91
X8.405Y-4.685
X8.455Y-4.36
X8.47Y-2.64
X8.48Y-4.785
X8.48Y-4.91
X8.48Y-5.63
X8.53Y-4.91
X8.58Y-4.91
X8.83Y-4.91
X8.93Y-4.91
X8.93Y-5.61
X8.98Y-4.91
X9.03Y-4.91
X9.055Y-4.71
X9.055Y-4.785
X9.105Y-4.81
X9.13Y-4.36
X9.13Y-4.91
X9.13Y-5.61
X9.18Y-4.91
X9.23Y-4.91
T3
X4.1587Y-3.81
X4.1587Y-3.91
X4.6406Y-3.656
X4.6406Y-3.7347
X4.6406Y-3.8135
X4.7194Y-3.656
X4.7194Y-3.7347
X4.7194Y-3.8135
T4
X2.73Y-3.5831
X2.73Y-3.6816
X2.73Y-3.78
X2.73Y-3.8784
X2.73Y-5.4647
X2.73Y-5.5631
X2.73Y-5.6616
X2.73Y-5.76
X2.75Y-4.68
X2.75Y-4.7784
X2.75Y-4.8769
X2.75Y-4.9753
X2.98Y-5.4647
X2.98Y-5.5631
X2.98Y-5.6616
X2.98Y-5.76
X3.23Y-5.4647
X3.23Y-5.5631
X3.23Y-5.6616
X3.23Y-5.76
X3.39Y-3.6
X3.48Y-5.4647
X3.48Y-5.5631
X3.48Y-5.6616
X3.48Y-5.76
X3.4884Y-3.6
X3.5869Y-3.6
X3.6853Y-3.6
X3.73Y-5.4647
X3.73Y-5.5631
X3.73Y-5.6616
X3.73Y-5.76
X3.98Y-5.4647
X3.98Y-5.5631
X3.98Y-5.6616
X3.98Y-5.76
X4.23Y-5.4647
X4.23Y-5.5631
X4.23Y-5.6616
X4.23Y-5.76
X4.58Y-5.4647
X4.58Y-5.5631
X4.58Y-5.6616
X4.58Y-5.76
X4.83Y-5.4647
X4.83Y-5.5631
X4.83Y-5.6616
X4.83Y-5.76
X5.08Y-5.4679
X5.08Y-5.5663
X5.08Y-5.6647
X5.08Y-5.7631
X5.33Y-5.4663
X5.33Y-5.5647
X5.33Y-5.6631
X5.33Y-5.7616
X5.5647Y-2.56
X5.58Y-5.4679
X5.58Y-5.5663
X5.58Y-5.6647
X5.58Y-5.7631
X5.6631Y-2.56
X5.7616Y-2.56
X5.83Y-5.4663
X5.83Y-5.5647
X5.83Y-5.6631
X5.83Y-5.7616
X5.86Y-2.56
X6.08Y-5.4647
X6.08Y-5.5631
X6.08Y-5.6616
X6.08Y-5.76
X6.4847Y-5.81
X6.5431Y-2.38
X6.5831Y-5.81
X6.6416Y-2.38
X6.6816Y-5.81
X6.74Y-2.38
X6.78Y-5.81
X6.8384Y-2.38
X6.9816Y-3.06
X6.9816Y-4.01
X7.08Y-3.06
X7.08Y-4.01
X7.0847Y-5.81
X7.1784Y-3.06
X7.1784Y-4.01
X7.1831Y-5.81
X7.2616Y-2.38
X7.2769Y-3.06
X7.2769Y-4.01
X7.2816Y-5.81
X7.36Y-2.38
X7.38Y-5.81
X7.4584Y-2.38
X7.5569Y-2.38
X7.63Y-3.06
X7.6316Y-4.01
X7.6847Y-5.81
X7.7284Y-3.06
X7.73Y-4.01
X7.7831Y-5.81
X7.8269Y-3.06
X7.8284Y-4.01
X7.8816Y-5.81
X7.9253Y-3.06
X7.9269Y-4.01
X7.98Y-5.81
X8.02Y-2.37
X8.1184Y-2.37
X8.2169Y-2.37
X8.28Y-3.06
X8.2831Y-4.01
X8.2847Y-5.81
X8.3153Y-2.37
X8.3784Y-3.06
X8.3816Y-4.01
X8.3831Y-5.81
X8.4769Y-3.06
X8.48Y-4.01
X8.4816Y-5.81
X8.5753Y-3.06
X8.5784Y-4.01
X8.58Y-5.81
X8.77Y-2.36
X8.8684Y-2.36
X8.93Y-3.06
X8.93Y-4.01
X8.9347Y-5.81
X8.9669Y-2.36
X9.0284Y-3.06
X9.0284Y-4.01
X9.0331Y-5.81
X9.0653Y-2.36
X9.1269Y-3.06
X9.1269Y-4.01
X9.1316Y-5.81
X9.2253Y-3.06
X9.2253Y-4.01
X9.23Y-5.81
T5
X2.95Y-3.59
X2.95Y-3.69
X2.95Y-3.79
X4.13Y-3.56
X4.13Y-4.16
X4.23Y-3.56
X4.23Y-3.66
X4.23Y-4.16
X4.33Y-3.56
X4.33Y-4.16
X4.378Y-4.0399
X4.43Y-3.56
X4.43Y-4.16
X4.478Y-4.0399
X4.53Y-3.56
X4.53Y-4.16
X4.578Y-4.0399
X4.63Y-3.56
X4.63Y-4.16
X4.678Y-4.0399
X4.73Y-3.56
X4.73Y-4.16
X4.778Y-4.0399
X4.83Y-3.56
X4.83Y-4.16
X4.93Y-3.56
X4.93Y-4.16
X5.03Y-3.56
X5.03Y-4.16
X5.13Y-3.56
X5.13Y-4.16
X5.23Y-3.56
X5.23Y-4.16
X5.33Y-3.56
X5.33Y-4.16
X5.43Y-3.56
X5.43Y-4.16
X5.53Y-3.56
X5.53Y-4.16
X5.63Y-3.56
X5.63Y-4.16
X5.73Y-3.56
X5.73Y-4.16
X5.83Y-3.56
X5.83Y-4.16
X5.93Y-3.56
X5.93Y-3.66
X5.93Y-3.76
X5.93Y-3.86
X5.93Y-3.96
X5.93Y-4.06
X5.93Y-4.16
X6.03Y-3.56
X6.03Y-4.16
X6.13Y-3.56
X6.13Y-4.16
X6.23Y-3.56
X6.23Y-4.16
X6.33Y-3.56
X6.33Y-4.16
X6.43Y-3.56
X6.43Y-4.16
X6.59Y-2.63
X6.69Y-2.63
X6.79Y-2.63
X7.03Y-3.31
X7.13Y-3.31
X7.23Y-3.31
X7.31Y-2.63
X7.41Y-2.63
X7.51Y-2.63
X7.68Y-3.31
X7.78Y-3.31
X7.88Y-3.31
X8.07Y-2.62
X8.17Y-2.62
X8.27Y-2.62
X8.33Y-3.31
X8.43Y-3.31
X8.53Y-3.31
X8.82Y-2.61
X8.92Y-2.61
X8.98Y-3.31
X9.02Y-2.61
X9.08Y-3.31
X9.18Y-3.31
T0
M30
