%TF.GenerationSoftware,KiCad,Pcbnew,5.1.10*%
%TF.CreationDate,2021-07-06T21:53:34-04:00*%
%TF.ProjectId,mote pcb,6d6f7465-2070-4636-922e-6b696361645f,rev?*%
%TF.SameCoordinates,Original*%
%TF.FileFunction,Soldermask,Top*%
%TF.FilePolarity,Negative*%
%FSLAX46Y46*%
G04 Gerber Fmt 4.6, Leading zero omitted, Abs format (unit mm)*
G04 Created by KiCad (PCBNEW 5.1.10) date 2021-07-06 21:53:34*
%MOMM*%
%LPD*%
G01*
G04 APERTURE LIST*
%ADD10R,0.900000X1.200000*%
%ADD11O,1.700000X1.950000*%
%ADD12R,2.500000X2.300000*%
%ADD13R,0.800000X0.900000*%
%ADD14R,2.300000X2.500000*%
%ADD15O,1.950000X1.700000*%
%ADD16R,9.400000X10.800000*%
%ADD17R,4.600000X1.100000*%
%ADD18R,3.000000X2.290000*%
%ADD19C,1.300000*%
%ADD20C,1.600000*%
%ADD21R,1.300000X1.300000*%
%ADD22R,1.600000X1.600000*%
%ADD23R,0.600000X1.500000*%
%ADD24O,1.905000X2.000000*%
%ADD25R,1.905000X2.000000*%
%ADD26O,2.000000X1.905000*%
%ADD27R,2.000000X1.905000*%
G04 APERTURE END LIST*
D10*
%TO.C,D13*%
X174497000Y-84709000D03*
X171197000Y-84709000D03*
%TD*%
%TO.C,D12*%
X163321000Y-66802000D03*
X160021000Y-66802000D03*
%TD*%
%TO.C,D11*%
X200913000Y-67183000D03*
X197613000Y-67183000D03*
%TD*%
%TO.C,D10*%
X191007000Y-84709000D03*
X187707000Y-84709000D03*
%TD*%
%TO.C,D9*%
X181609000Y-67437000D03*
X178309000Y-67437000D03*
%TD*%
%TO.C,D8*%
X219963000Y-66929000D03*
X216663000Y-66929000D03*
%TD*%
%TO.C,D6*%
X176402000Y-108839000D03*
X173102000Y-108839000D03*
%TD*%
%TO.C,D5*%
X209422000Y-108204000D03*
X206122000Y-108204000D03*
%TD*%
%TO.C,D4*%
X207517000Y-84709000D03*
X204217000Y-84709000D03*
%TD*%
%TO.C,D3*%
X225932000Y-108204000D03*
X222632000Y-108204000D03*
%TD*%
%TO.C,D2*%
X224027000Y-84709000D03*
X220727000Y-84709000D03*
%TD*%
%TO.C,D1*%
X193547000Y-108204000D03*
X190247000Y-108204000D03*
%TD*%
%TO.C,R77*%
G36*
G01*
X214967000Y-69739500D02*
X214967000Y-70214500D01*
G75*
G02*
X214729500Y-70452000I-237500J0D01*
G01*
X214229500Y-70452000D01*
G75*
G02*
X213992000Y-70214500I0J237500D01*
G01*
X213992000Y-69739500D01*
G75*
G02*
X214229500Y-69502000I237500J0D01*
G01*
X214729500Y-69502000D01*
G75*
G02*
X214967000Y-69739500I0J-237500D01*
G01*
G37*
G36*
G01*
X216792000Y-69739500D02*
X216792000Y-70214500D01*
G75*
G02*
X216554500Y-70452000I-237500J0D01*
G01*
X216054500Y-70452000D01*
G75*
G02*
X215817000Y-70214500I0J237500D01*
G01*
X215817000Y-69739500D01*
G75*
G02*
X216054500Y-69502000I237500J0D01*
G01*
X216554500Y-69502000D01*
G75*
G02*
X216792000Y-69739500I0J-237500D01*
G01*
G37*
%TD*%
%TO.C,R74*%
G36*
G01*
X219246000Y-70214500D02*
X219246000Y-69739500D01*
G75*
G02*
X219483500Y-69502000I237500J0D01*
G01*
X219983500Y-69502000D01*
G75*
G02*
X220221000Y-69739500I0J-237500D01*
G01*
X220221000Y-70214500D01*
G75*
G02*
X219983500Y-70452000I-237500J0D01*
G01*
X219483500Y-70452000D01*
G75*
G02*
X219246000Y-70214500I0J237500D01*
G01*
G37*
G36*
G01*
X217421000Y-70214500D02*
X217421000Y-69739500D01*
G75*
G02*
X217658500Y-69502000I237500J0D01*
G01*
X218158500Y-69502000D01*
G75*
G02*
X218396000Y-69739500I0J-237500D01*
G01*
X218396000Y-70214500D01*
G75*
G02*
X218158500Y-70452000I-237500J0D01*
G01*
X217658500Y-70452000D01*
G75*
G02*
X217421000Y-70214500I0J237500D01*
G01*
G37*
%TD*%
D11*
%TO.C,J17*%
X141344000Y-65024000D03*
X143844000Y-65024000D03*
X146344000Y-65024000D03*
G36*
G01*
X149694000Y-64299000D02*
X149694000Y-65749000D01*
G75*
G02*
X149444000Y-65999000I-250000J0D01*
G01*
X148244000Y-65999000D01*
G75*
G02*
X147994000Y-65749000I0J250000D01*
G01*
X147994000Y-64299000D01*
G75*
G02*
X148244000Y-64049000I250000J0D01*
G01*
X149444000Y-64049000D01*
G75*
G02*
X149694000Y-64299000I0J-250000D01*
G01*
G37*
%TD*%
%TO.C,J18*%
X93606000Y-91440000D03*
X91106000Y-91440000D03*
X88606000Y-91440000D03*
G36*
G01*
X85256000Y-92165000D02*
X85256000Y-90715000D01*
G75*
G02*
X85506000Y-90465000I250000J0D01*
G01*
X86706000Y-90465000D01*
G75*
G02*
X86956000Y-90715000I0J-250000D01*
G01*
X86956000Y-92165000D01*
G75*
G02*
X86706000Y-92415000I-250000J0D01*
G01*
X85506000Y-92415000D01*
G75*
G02*
X85256000Y-92165000I0J250000D01*
G01*
G37*
%TD*%
D12*
%TO.C,D7*%
X72644000Y-107188000D03*
X68344000Y-107188000D03*
%TD*%
D13*
%TO.C,D14*%
X91186000Y-124476000D03*
X92136000Y-126476000D03*
X90236000Y-126476000D03*
%TD*%
D14*
%TO.C,D15*%
X160274000Y-137296000D03*
X160274000Y-141596000D03*
%TD*%
%TO.C,C8*%
G36*
G01*
X177054500Y-122499000D02*
X177529500Y-122499000D01*
G75*
G02*
X177767000Y-122736500I0J-237500D01*
G01*
X177767000Y-123336500D01*
G75*
G02*
X177529500Y-123574000I-237500J0D01*
G01*
X177054500Y-123574000D01*
G75*
G02*
X176817000Y-123336500I0J237500D01*
G01*
X176817000Y-122736500D01*
G75*
G02*
X177054500Y-122499000I237500J0D01*
G01*
G37*
G36*
G01*
X177054500Y-120774000D02*
X177529500Y-120774000D01*
G75*
G02*
X177767000Y-121011500I0J-237500D01*
G01*
X177767000Y-121611500D01*
G75*
G02*
X177529500Y-121849000I-237500J0D01*
G01*
X177054500Y-121849000D01*
G75*
G02*
X176817000Y-121611500I0J237500D01*
G01*
X176817000Y-121011500D01*
G75*
G02*
X177054500Y-120774000I237500J0D01*
G01*
G37*
%TD*%
%TO.C,R8*%
G36*
G01*
X121174500Y-85769000D02*
X121649500Y-85769000D01*
G75*
G02*
X121887000Y-86006500I0J-237500D01*
G01*
X121887000Y-86506500D01*
G75*
G02*
X121649500Y-86744000I-237500J0D01*
G01*
X121174500Y-86744000D01*
G75*
G02*
X120937000Y-86506500I0J237500D01*
G01*
X120937000Y-86006500D01*
G75*
G02*
X121174500Y-85769000I237500J0D01*
G01*
G37*
G36*
G01*
X121174500Y-83944000D02*
X121649500Y-83944000D01*
G75*
G02*
X121887000Y-84181500I0J-237500D01*
G01*
X121887000Y-84681500D01*
G75*
G02*
X121649500Y-84919000I-237500J0D01*
G01*
X121174500Y-84919000D01*
G75*
G02*
X120937000Y-84681500I0J237500D01*
G01*
X120937000Y-84181500D01*
G75*
G02*
X121174500Y-83944000I237500J0D01*
G01*
G37*
%TD*%
%TO.C,R6*%
G36*
G01*
X123714500Y-85769000D02*
X124189500Y-85769000D01*
G75*
G02*
X124427000Y-86006500I0J-237500D01*
G01*
X124427000Y-86506500D01*
G75*
G02*
X124189500Y-86744000I-237500J0D01*
G01*
X123714500Y-86744000D01*
G75*
G02*
X123477000Y-86506500I0J237500D01*
G01*
X123477000Y-86006500D01*
G75*
G02*
X123714500Y-85769000I237500J0D01*
G01*
G37*
G36*
G01*
X123714500Y-83944000D02*
X124189500Y-83944000D01*
G75*
G02*
X124427000Y-84181500I0J-237500D01*
G01*
X124427000Y-84681500D01*
G75*
G02*
X124189500Y-84919000I-237500J0D01*
G01*
X123714500Y-84919000D01*
G75*
G02*
X123477000Y-84681500I0J237500D01*
G01*
X123477000Y-84181500D01*
G75*
G02*
X123714500Y-83944000I237500J0D01*
G01*
G37*
%TD*%
D15*
%TO.C,J15*%
X154432000Y-138804000D03*
X154432000Y-141304000D03*
X154432000Y-143804000D03*
G36*
G01*
X155157000Y-147154000D02*
X153707000Y-147154000D01*
G75*
G02*
X153457000Y-146904000I0J250000D01*
G01*
X153457000Y-145704000D01*
G75*
G02*
X153707000Y-145454000I250000J0D01*
G01*
X155157000Y-145454000D01*
G75*
G02*
X155407000Y-145704000I0J-250000D01*
G01*
X155407000Y-146904000D01*
G75*
G02*
X155157000Y-147154000I-250000J0D01*
G01*
G37*
%TD*%
%TO.C,U14*%
G36*
G01*
X124437000Y-116054000D02*
X124737000Y-116054000D01*
G75*
G02*
X124887000Y-116204000I0J-150000D01*
G01*
X124887000Y-117854000D01*
G75*
G02*
X124737000Y-118004000I-150000J0D01*
G01*
X124437000Y-118004000D01*
G75*
G02*
X124287000Y-117854000I0J150000D01*
G01*
X124287000Y-116204000D01*
G75*
G02*
X124437000Y-116054000I150000J0D01*
G01*
G37*
G36*
G01*
X123167000Y-116054000D02*
X123467000Y-116054000D01*
G75*
G02*
X123617000Y-116204000I0J-150000D01*
G01*
X123617000Y-117854000D01*
G75*
G02*
X123467000Y-118004000I-150000J0D01*
G01*
X123167000Y-118004000D01*
G75*
G02*
X123017000Y-117854000I0J150000D01*
G01*
X123017000Y-116204000D01*
G75*
G02*
X123167000Y-116054000I150000J0D01*
G01*
G37*
G36*
G01*
X121897000Y-116054000D02*
X122197000Y-116054000D01*
G75*
G02*
X122347000Y-116204000I0J-150000D01*
G01*
X122347000Y-117854000D01*
G75*
G02*
X122197000Y-118004000I-150000J0D01*
G01*
X121897000Y-118004000D01*
G75*
G02*
X121747000Y-117854000I0J150000D01*
G01*
X121747000Y-116204000D01*
G75*
G02*
X121897000Y-116054000I150000J0D01*
G01*
G37*
G36*
G01*
X120627000Y-116054000D02*
X120927000Y-116054000D01*
G75*
G02*
X121077000Y-116204000I0J-150000D01*
G01*
X121077000Y-117854000D01*
G75*
G02*
X120927000Y-118004000I-150000J0D01*
G01*
X120627000Y-118004000D01*
G75*
G02*
X120477000Y-117854000I0J150000D01*
G01*
X120477000Y-116204000D01*
G75*
G02*
X120627000Y-116054000I150000J0D01*
G01*
G37*
G36*
G01*
X119357000Y-116054000D02*
X119657000Y-116054000D01*
G75*
G02*
X119807000Y-116204000I0J-150000D01*
G01*
X119807000Y-117854000D01*
G75*
G02*
X119657000Y-118004000I-150000J0D01*
G01*
X119357000Y-118004000D01*
G75*
G02*
X119207000Y-117854000I0J150000D01*
G01*
X119207000Y-116204000D01*
G75*
G02*
X119357000Y-116054000I150000J0D01*
G01*
G37*
G36*
G01*
X118087000Y-116054000D02*
X118387000Y-116054000D01*
G75*
G02*
X118537000Y-116204000I0J-150000D01*
G01*
X118537000Y-117854000D01*
G75*
G02*
X118387000Y-118004000I-150000J0D01*
G01*
X118087000Y-118004000D01*
G75*
G02*
X117937000Y-117854000I0J150000D01*
G01*
X117937000Y-116204000D01*
G75*
G02*
X118087000Y-116054000I150000J0D01*
G01*
G37*
G36*
G01*
X116817000Y-116054000D02*
X117117000Y-116054000D01*
G75*
G02*
X117267000Y-116204000I0J-150000D01*
G01*
X117267000Y-117854000D01*
G75*
G02*
X117117000Y-118004000I-150000J0D01*
G01*
X116817000Y-118004000D01*
G75*
G02*
X116667000Y-117854000I0J150000D01*
G01*
X116667000Y-116204000D01*
G75*
G02*
X116817000Y-116054000I150000J0D01*
G01*
G37*
G36*
G01*
X115547000Y-116054000D02*
X115847000Y-116054000D01*
G75*
G02*
X115997000Y-116204000I0J-150000D01*
G01*
X115997000Y-117854000D01*
G75*
G02*
X115847000Y-118004000I-150000J0D01*
G01*
X115547000Y-118004000D01*
G75*
G02*
X115397000Y-117854000I0J150000D01*
G01*
X115397000Y-116204000D01*
G75*
G02*
X115547000Y-116054000I150000J0D01*
G01*
G37*
G36*
G01*
X115547000Y-111104000D02*
X115847000Y-111104000D01*
G75*
G02*
X115997000Y-111254000I0J-150000D01*
G01*
X115997000Y-112904000D01*
G75*
G02*
X115847000Y-113054000I-150000J0D01*
G01*
X115547000Y-113054000D01*
G75*
G02*
X115397000Y-112904000I0J150000D01*
G01*
X115397000Y-111254000D01*
G75*
G02*
X115547000Y-111104000I150000J0D01*
G01*
G37*
G36*
G01*
X116817000Y-111104000D02*
X117117000Y-111104000D01*
G75*
G02*
X117267000Y-111254000I0J-150000D01*
G01*
X117267000Y-112904000D01*
G75*
G02*
X117117000Y-113054000I-150000J0D01*
G01*
X116817000Y-113054000D01*
G75*
G02*
X116667000Y-112904000I0J150000D01*
G01*
X116667000Y-111254000D01*
G75*
G02*
X116817000Y-111104000I150000J0D01*
G01*
G37*
G36*
G01*
X118087000Y-111104000D02*
X118387000Y-111104000D01*
G75*
G02*
X118537000Y-111254000I0J-150000D01*
G01*
X118537000Y-112904000D01*
G75*
G02*
X118387000Y-113054000I-150000J0D01*
G01*
X118087000Y-113054000D01*
G75*
G02*
X117937000Y-112904000I0J150000D01*
G01*
X117937000Y-111254000D01*
G75*
G02*
X118087000Y-111104000I150000J0D01*
G01*
G37*
G36*
G01*
X119357000Y-111104000D02*
X119657000Y-111104000D01*
G75*
G02*
X119807000Y-111254000I0J-150000D01*
G01*
X119807000Y-112904000D01*
G75*
G02*
X119657000Y-113054000I-150000J0D01*
G01*
X119357000Y-113054000D01*
G75*
G02*
X119207000Y-112904000I0J150000D01*
G01*
X119207000Y-111254000D01*
G75*
G02*
X119357000Y-111104000I150000J0D01*
G01*
G37*
G36*
G01*
X120627000Y-111104000D02*
X120927000Y-111104000D01*
G75*
G02*
X121077000Y-111254000I0J-150000D01*
G01*
X121077000Y-112904000D01*
G75*
G02*
X120927000Y-113054000I-150000J0D01*
G01*
X120627000Y-113054000D01*
G75*
G02*
X120477000Y-112904000I0J150000D01*
G01*
X120477000Y-111254000D01*
G75*
G02*
X120627000Y-111104000I150000J0D01*
G01*
G37*
G36*
G01*
X121897000Y-111104000D02*
X122197000Y-111104000D01*
G75*
G02*
X122347000Y-111254000I0J-150000D01*
G01*
X122347000Y-112904000D01*
G75*
G02*
X122197000Y-113054000I-150000J0D01*
G01*
X121897000Y-113054000D01*
G75*
G02*
X121747000Y-112904000I0J150000D01*
G01*
X121747000Y-111254000D01*
G75*
G02*
X121897000Y-111104000I150000J0D01*
G01*
G37*
G36*
G01*
X123167000Y-111104000D02*
X123467000Y-111104000D01*
G75*
G02*
X123617000Y-111254000I0J-150000D01*
G01*
X123617000Y-112904000D01*
G75*
G02*
X123467000Y-113054000I-150000J0D01*
G01*
X123167000Y-113054000D01*
G75*
G02*
X123017000Y-112904000I0J150000D01*
G01*
X123017000Y-111254000D01*
G75*
G02*
X123167000Y-111104000I150000J0D01*
G01*
G37*
G36*
G01*
X124437000Y-111104000D02*
X124737000Y-111104000D01*
G75*
G02*
X124887000Y-111254000I0J-150000D01*
G01*
X124887000Y-112904000D01*
G75*
G02*
X124737000Y-113054000I-150000J0D01*
G01*
X124437000Y-113054000D01*
G75*
G02*
X124287000Y-112904000I0J150000D01*
G01*
X124287000Y-111254000D01*
G75*
G02*
X124437000Y-111104000I150000J0D01*
G01*
G37*
%TD*%
D16*
%TO.C,U13*%
X107303000Y-117113000D03*
D17*
X98153000Y-119653000D03*
X98153000Y-117113000D03*
X98153000Y-114573000D03*
%TD*%
D18*
%TO.C,U12*%
X80264000Y-120396000D03*
G36*
G01*
X78509000Y-118896000D02*
X78209000Y-118896000D01*
G75*
G02*
X78059000Y-118746000I0J150000D01*
G01*
X78059000Y-117096000D01*
G75*
G02*
X78209000Y-116946000I150000J0D01*
G01*
X78509000Y-116946000D01*
G75*
G02*
X78659000Y-117096000I0J-150000D01*
G01*
X78659000Y-118746000D01*
G75*
G02*
X78509000Y-118896000I-150000J0D01*
G01*
G37*
G36*
G01*
X79779000Y-118896000D02*
X79479000Y-118896000D01*
G75*
G02*
X79329000Y-118746000I0J150000D01*
G01*
X79329000Y-117096000D01*
G75*
G02*
X79479000Y-116946000I150000J0D01*
G01*
X79779000Y-116946000D01*
G75*
G02*
X79929000Y-117096000I0J-150000D01*
G01*
X79929000Y-118746000D01*
G75*
G02*
X79779000Y-118896000I-150000J0D01*
G01*
G37*
G36*
G01*
X81049000Y-118896000D02*
X80749000Y-118896000D01*
G75*
G02*
X80599000Y-118746000I0J150000D01*
G01*
X80599000Y-117096000D01*
G75*
G02*
X80749000Y-116946000I150000J0D01*
G01*
X81049000Y-116946000D01*
G75*
G02*
X81199000Y-117096000I0J-150000D01*
G01*
X81199000Y-118746000D01*
G75*
G02*
X81049000Y-118896000I-150000J0D01*
G01*
G37*
G36*
G01*
X82319000Y-118896000D02*
X82019000Y-118896000D01*
G75*
G02*
X81869000Y-118746000I0J150000D01*
G01*
X81869000Y-117096000D01*
G75*
G02*
X82019000Y-116946000I150000J0D01*
G01*
X82319000Y-116946000D01*
G75*
G02*
X82469000Y-117096000I0J-150000D01*
G01*
X82469000Y-118746000D01*
G75*
G02*
X82319000Y-118896000I-150000J0D01*
G01*
G37*
G36*
G01*
X82319000Y-123846000D02*
X82019000Y-123846000D01*
G75*
G02*
X81869000Y-123696000I0J150000D01*
G01*
X81869000Y-122046000D01*
G75*
G02*
X82019000Y-121896000I150000J0D01*
G01*
X82319000Y-121896000D01*
G75*
G02*
X82469000Y-122046000I0J-150000D01*
G01*
X82469000Y-123696000D01*
G75*
G02*
X82319000Y-123846000I-150000J0D01*
G01*
G37*
G36*
G01*
X81049000Y-123846000D02*
X80749000Y-123846000D01*
G75*
G02*
X80599000Y-123696000I0J150000D01*
G01*
X80599000Y-122046000D01*
G75*
G02*
X80749000Y-121896000I150000J0D01*
G01*
X81049000Y-121896000D01*
G75*
G02*
X81199000Y-122046000I0J-150000D01*
G01*
X81199000Y-123696000D01*
G75*
G02*
X81049000Y-123846000I-150000J0D01*
G01*
G37*
G36*
G01*
X79779000Y-123846000D02*
X79479000Y-123846000D01*
G75*
G02*
X79329000Y-123696000I0J150000D01*
G01*
X79329000Y-122046000D01*
G75*
G02*
X79479000Y-121896000I150000J0D01*
G01*
X79779000Y-121896000D01*
G75*
G02*
X79929000Y-122046000I0J-150000D01*
G01*
X79929000Y-123696000D01*
G75*
G02*
X79779000Y-123846000I-150000J0D01*
G01*
G37*
G36*
G01*
X78509000Y-123846000D02*
X78209000Y-123846000D01*
G75*
G02*
X78059000Y-123696000I0J150000D01*
G01*
X78059000Y-122046000D01*
G75*
G02*
X78209000Y-121896000I150000J0D01*
G01*
X78509000Y-121896000D01*
G75*
G02*
X78659000Y-122046000I0J-150000D01*
G01*
X78659000Y-123696000D01*
G75*
G02*
X78509000Y-123846000I-150000J0D01*
G01*
G37*
%TD*%
%TO.C,U11*%
G36*
G01*
X232757000Y-118729000D02*
X232757000Y-118529000D01*
G75*
G02*
X232857000Y-118429000I100000J0D01*
G01*
X234132000Y-118429000D01*
G75*
G02*
X234232000Y-118529000I0J-100000D01*
G01*
X234232000Y-118729000D01*
G75*
G02*
X234132000Y-118829000I-100000J0D01*
G01*
X232857000Y-118829000D01*
G75*
G02*
X232757000Y-118729000I0J100000D01*
G01*
G37*
G36*
G01*
X232757000Y-119379000D02*
X232757000Y-119179000D01*
G75*
G02*
X232857000Y-119079000I100000J0D01*
G01*
X234132000Y-119079000D01*
G75*
G02*
X234232000Y-119179000I0J-100000D01*
G01*
X234232000Y-119379000D01*
G75*
G02*
X234132000Y-119479000I-100000J0D01*
G01*
X232857000Y-119479000D01*
G75*
G02*
X232757000Y-119379000I0J100000D01*
G01*
G37*
G36*
G01*
X232757000Y-120029000D02*
X232757000Y-119829000D01*
G75*
G02*
X232857000Y-119729000I100000J0D01*
G01*
X234132000Y-119729000D01*
G75*
G02*
X234232000Y-119829000I0J-100000D01*
G01*
X234232000Y-120029000D01*
G75*
G02*
X234132000Y-120129000I-100000J0D01*
G01*
X232857000Y-120129000D01*
G75*
G02*
X232757000Y-120029000I0J100000D01*
G01*
G37*
G36*
G01*
X232757000Y-120679000D02*
X232757000Y-120479000D01*
G75*
G02*
X232857000Y-120379000I100000J0D01*
G01*
X234132000Y-120379000D01*
G75*
G02*
X234232000Y-120479000I0J-100000D01*
G01*
X234232000Y-120679000D01*
G75*
G02*
X234132000Y-120779000I-100000J0D01*
G01*
X232857000Y-120779000D01*
G75*
G02*
X232757000Y-120679000I0J100000D01*
G01*
G37*
G36*
G01*
X232757000Y-121329000D02*
X232757000Y-121129000D01*
G75*
G02*
X232857000Y-121029000I100000J0D01*
G01*
X234132000Y-121029000D01*
G75*
G02*
X234232000Y-121129000I0J-100000D01*
G01*
X234232000Y-121329000D01*
G75*
G02*
X234132000Y-121429000I-100000J0D01*
G01*
X232857000Y-121429000D01*
G75*
G02*
X232757000Y-121329000I0J100000D01*
G01*
G37*
G36*
G01*
X232757000Y-121979000D02*
X232757000Y-121779000D01*
G75*
G02*
X232857000Y-121679000I100000J0D01*
G01*
X234132000Y-121679000D01*
G75*
G02*
X234232000Y-121779000I0J-100000D01*
G01*
X234232000Y-121979000D01*
G75*
G02*
X234132000Y-122079000I-100000J0D01*
G01*
X232857000Y-122079000D01*
G75*
G02*
X232757000Y-121979000I0J100000D01*
G01*
G37*
G36*
G01*
X232757000Y-122629000D02*
X232757000Y-122429000D01*
G75*
G02*
X232857000Y-122329000I100000J0D01*
G01*
X234132000Y-122329000D01*
G75*
G02*
X234232000Y-122429000I0J-100000D01*
G01*
X234232000Y-122629000D01*
G75*
G02*
X234132000Y-122729000I-100000J0D01*
G01*
X232857000Y-122729000D01*
G75*
G02*
X232757000Y-122629000I0J100000D01*
G01*
G37*
G36*
G01*
X232757000Y-123279000D02*
X232757000Y-123079000D01*
G75*
G02*
X232857000Y-122979000I100000J0D01*
G01*
X234132000Y-122979000D01*
G75*
G02*
X234232000Y-123079000I0J-100000D01*
G01*
X234232000Y-123279000D01*
G75*
G02*
X234132000Y-123379000I-100000J0D01*
G01*
X232857000Y-123379000D01*
G75*
G02*
X232757000Y-123279000I0J100000D01*
G01*
G37*
G36*
G01*
X227032000Y-123279000D02*
X227032000Y-123079000D01*
G75*
G02*
X227132000Y-122979000I100000J0D01*
G01*
X228407000Y-122979000D01*
G75*
G02*
X228507000Y-123079000I0J-100000D01*
G01*
X228507000Y-123279000D01*
G75*
G02*
X228407000Y-123379000I-100000J0D01*
G01*
X227132000Y-123379000D01*
G75*
G02*
X227032000Y-123279000I0J100000D01*
G01*
G37*
G36*
G01*
X227032000Y-122629000D02*
X227032000Y-122429000D01*
G75*
G02*
X227132000Y-122329000I100000J0D01*
G01*
X228407000Y-122329000D01*
G75*
G02*
X228507000Y-122429000I0J-100000D01*
G01*
X228507000Y-122629000D01*
G75*
G02*
X228407000Y-122729000I-100000J0D01*
G01*
X227132000Y-122729000D01*
G75*
G02*
X227032000Y-122629000I0J100000D01*
G01*
G37*
G36*
G01*
X227032000Y-121979000D02*
X227032000Y-121779000D01*
G75*
G02*
X227132000Y-121679000I100000J0D01*
G01*
X228407000Y-121679000D01*
G75*
G02*
X228507000Y-121779000I0J-100000D01*
G01*
X228507000Y-121979000D01*
G75*
G02*
X228407000Y-122079000I-100000J0D01*
G01*
X227132000Y-122079000D01*
G75*
G02*
X227032000Y-121979000I0J100000D01*
G01*
G37*
G36*
G01*
X227032000Y-121329000D02*
X227032000Y-121129000D01*
G75*
G02*
X227132000Y-121029000I100000J0D01*
G01*
X228407000Y-121029000D01*
G75*
G02*
X228507000Y-121129000I0J-100000D01*
G01*
X228507000Y-121329000D01*
G75*
G02*
X228407000Y-121429000I-100000J0D01*
G01*
X227132000Y-121429000D01*
G75*
G02*
X227032000Y-121329000I0J100000D01*
G01*
G37*
G36*
G01*
X227032000Y-120679000D02*
X227032000Y-120479000D01*
G75*
G02*
X227132000Y-120379000I100000J0D01*
G01*
X228407000Y-120379000D01*
G75*
G02*
X228507000Y-120479000I0J-100000D01*
G01*
X228507000Y-120679000D01*
G75*
G02*
X228407000Y-120779000I-100000J0D01*
G01*
X227132000Y-120779000D01*
G75*
G02*
X227032000Y-120679000I0J100000D01*
G01*
G37*
G36*
G01*
X227032000Y-120029000D02*
X227032000Y-119829000D01*
G75*
G02*
X227132000Y-119729000I100000J0D01*
G01*
X228407000Y-119729000D01*
G75*
G02*
X228507000Y-119829000I0J-100000D01*
G01*
X228507000Y-120029000D01*
G75*
G02*
X228407000Y-120129000I-100000J0D01*
G01*
X227132000Y-120129000D01*
G75*
G02*
X227032000Y-120029000I0J100000D01*
G01*
G37*
G36*
G01*
X227032000Y-119379000D02*
X227032000Y-119179000D01*
G75*
G02*
X227132000Y-119079000I100000J0D01*
G01*
X228407000Y-119079000D01*
G75*
G02*
X228507000Y-119179000I0J-100000D01*
G01*
X228507000Y-119379000D01*
G75*
G02*
X228407000Y-119479000I-100000J0D01*
G01*
X227132000Y-119479000D01*
G75*
G02*
X227032000Y-119379000I0J100000D01*
G01*
G37*
G36*
G01*
X227032000Y-118729000D02*
X227032000Y-118529000D01*
G75*
G02*
X227132000Y-118429000I100000J0D01*
G01*
X228407000Y-118429000D01*
G75*
G02*
X228507000Y-118529000I0J-100000D01*
G01*
X228507000Y-118729000D01*
G75*
G02*
X228407000Y-118829000I-100000J0D01*
G01*
X227132000Y-118829000D01*
G75*
G02*
X227032000Y-118729000I0J100000D01*
G01*
G37*
%TD*%
%TO.C,U10*%
G36*
G01*
X216247000Y-118729000D02*
X216247000Y-118529000D01*
G75*
G02*
X216347000Y-118429000I100000J0D01*
G01*
X217622000Y-118429000D01*
G75*
G02*
X217722000Y-118529000I0J-100000D01*
G01*
X217722000Y-118729000D01*
G75*
G02*
X217622000Y-118829000I-100000J0D01*
G01*
X216347000Y-118829000D01*
G75*
G02*
X216247000Y-118729000I0J100000D01*
G01*
G37*
G36*
G01*
X216247000Y-119379000D02*
X216247000Y-119179000D01*
G75*
G02*
X216347000Y-119079000I100000J0D01*
G01*
X217622000Y-119079000D01*
G75*
G02*
X217722000Y-119179000I0J-100000D01*
G01*
X217722000Y-119379000D01*
G75*
G02*
X217622000Y-119479000I-100000J0D01*
G01*
X216347000Y-119479000D01*
G75*
G02*
X216247000Y-119379000I0J100000D01*
G01*
G37*
G36*
G01*
X216247000Y-120029000D02*
X216247000Y-119829000D01*
G75*
G02*
X216347000Y-119729000I100000J0D01*
G01*
X217622000Y-119729000D01*
G75*
G02*
X217722000Y-119829000I0J-100000D01*
G01*
X217722000Y-120029000D01*
G75*
G02*
X217622000Y-120129000I-100000J0D01*
G01*
X216347000Y-120129000D01*
G75*
G02*
X216247000Y-120029000I0J100000D01*
G01*
G37*
G36*
G01*
X216247000Y-120679000D02*
X216247000Y-120479000D01*
G75*
G02*
X216347000Y-120379000I100000J0D01*
G01*
X217622000Y-120379000D01*
G75*
G02*
X217722000Y-120479000I0J-100000D01*
G01*
X217722000Y-120679000D01*
G75*
G02*
X217622000Y-120779000I-100000J0D01*
G01*
X216347000Y-120779000D01*
G75*
G02*
X216247000Y-120679000I0J100000D01*
G01*
G37*
G36*
G01*
X216247000Y-121329000D02*
X216247000Y-121129000D01*
G75*
G02*
X216347000Y-121029000I100000J0D01*
G01*
X217622000Y-121029000D01*
G75*
G02*
X217722000Y-121129000I0J-100000D01*
G01*
X217722000Y-121329000D01*
G75*
G02*
X217622000Y-121429000I-100000J0D01*
G01*
X216347000Y-121429000D01*
G75*
G02*
X216247000Y-121329000I0J100000D01*
G01*
G37*
G36*
G01*
X216247000Y-121979000D02*
X216247000Y-121779000D01*
G75*
G02*
X216347000Y-121679000I100000J0D01*
G01*
X217622000Y-121679000D01*
G75*
G02*
X217722000Y-121779000I0J-100000D01*
G01*
X217722000Y-121979000D01*
G75*
G02*
X217622000Y-122079000I-100000J0D01*
G01*
X216347000Y-122079000D01*
G75*
G02*
X216247000Y-121979000I0J100000D01*
G01*
G37*
G36*
G01*
X216247000Y-122629000D02*
X216247000Y-122429000D01*
G75*
G02*
X216347000Y-122329000I100000J0D01*
G01*
X217622000Y-122329000D01*
G75*
G02*
X217722000Y-122429000I0J-100000D01*
G01*
X217722000Y-122629000D01*
G75*
G02*
X217622000Y-122729000I-100000J0D01*
G01*
X216347000Y-122729000D01*
G75*
G02*
X216247000Y-122629000I0J100000D01*
G01*
G37*
G36*
G01*
X216247000Y-123279000D02*
X216247000Y-123079000D01*
G75*
G02*
X216347000Y-122979000I100000J0D01*
G01*
X217622000Y-122979000D01*
G75*
G02*
X217722000Y-123079000I0J-100000D01*
G01*
X217722000Y-123279000D01*
G75*
G02*
X217622000Y-123379000I-100000J0D01*
G01*
X216347000Y-123379000D01*
G75*
G02*
X216247000Y-123279000I0J100000D01*
G01*
G37*
G36*
G01*
X210522000Y-123279000D02*
X210522000Y-123079000D01*
G75*
G02*
X210622000Y-122979000I100000J0D01*
G01*
X211897000Y-122979000D01*
G75*
G02*
X211997000Y-123079000I0J-100000D01*
G01*
X211997000Y-123279000D01*
G75*
G02*
X211897000Y-123379000I-100000J0D01*
G01*
X210622000Y-123379000D01*
G75*
G02*
X210522000Y-123279000I0J100000D01*
G01*
G37*
G36*
G01*
X210522000Y-122629000D02*
X210522000Y-122429000D01*
G75*
G02*
X210622000Y-122329000I100000J0D01*
G01*
X211897000Y-122329000D01*
G75*
G02*
X211997000Y-122429000I0J-100000D01*
G01*
X211997000Y-122629000D01*
G75*
G02*
X211897000Y-122729000I-100000J0D01*
G01*
X210622000Y-122729000D01*
G75*
G02*
X210522000Y-122629000I0J100000D01*
G01*
G37*
G36*
G01*
X210522000Y-121979000D02*
X210522000Y-121779000D01*
G75*
G02*
X210622000Y-121679000I100000J0D01*
G01*
X211897000Y-121679000D01*
G75*
G02*
X211997000Y-121779000I0J-100000D01*
G01*
X211997000Y-121979000D01*
G75*
G02*
X211897000Y-122079000I-100000J0D01*
G01*
X210622000Y-122079000D01*
G75*
G02*
X210522000Y-121979000I0J100000D01*
G01*
G37*
G36*
G01*
X210522000Y-121329000D02*
X210522000Y-121129000D01*
G75*
G02*
X210622000Y-121029000I100000J0D01*
G01*
X211897000Y-121029000D01*
G75*
G02*
X211997000Y-121129000I0J-100000D01*
G01*
X211997000Y-121329000D01*
G75*
G02*
X211897000Y-121429000I-100000J0D01*
G01*
X210622000Y-121429000D01*
G75*
G02*
X210522000Y-121329000I0J100000D01*
G01*
G37*
G36*
G01*
X210522000Y-120679000D02*
X210522000Y-120479000D01*
G75*
G02*
X210622000Y-120379000I100000J0D01*
G01*
X211897000Y-120379000D01*
G75*
G02*
X211997000Y-120479000I0J-100000D01*
G01*
X211997000Y-120679000D01*
G75*
G02*
X211897000Y-120779000I-100000J0D01*
G01*
X210622000Y-120779000D01*
G75*
G02*
X210522000Y-120679000I0J100000D01*
G01*
G37*
G36*
G01*
X210522000Y-120029000D02*
X210522000Y-119829000D01*
G75*
G02*
X210622000Y-119729000I100000J0D01*
G01*
X211897000Y-119729000D01*
G75*
G02*
X211997000Y-119829000I0J-100000D01*
G01*
X211997000Y-120029000D01*
G75*
G02*
X211897000Y-120129000I-100000J0D01*
G01*
X210622000Y-120129000D01*
G75*
G02*
X210522000Y-120029000I0J100000D01*
G01*
G37*
G36*
G01*
X210522000Y-119379000D02*
X210522000Y-119179000D01*
G75*
G02*
X210622000Y-119079000I100000J0D01*
G01*
X211897000Y-119079000D01*
G75*
G02*
X211997000Y-119179000I0J-100000D01*
G01*
X211997000Y-119379000D01*
G75*
G02*
X211897000Y-119479000I-100000J0D01*
G01*
X210622000Y-119479000D01*
G75*
G02*
X210522000Y-119379000I0J100000D01*
G01*
G37*
G36*
G01*
X210522000Y-118729000D02*
X210522000Y-118529000D01*
G75*
G02*
X210622000Y-118429000I100000J0D01*
G01*
X211897000Y-118429000D01*
G75*
G02*
X211997000Y-118529000I0J-100000D01*
G01*
X211997000Y-118729000D01*
G75*
G02*
X211897000Y-118829000I-100000J0D01*
G01*
X210622000Y-118829000D01*
G75*
G02*
X210522000Y-118729000I0J100000D01*
G01*
G37*
%TD*%
%TO.C,U9*%
G36*
G01*
X201007000Y-118729000D02*
X201007000Y-118529000D01*
G75*
G02*
X201107000Y-118429000I100000J0D01*
G01*
X202382000Y-118429000D01*
G75*
G02*
X202482000Y-118529000I0J-100000D01*
G01*
X202482000Y-118729000D01*
G75*
G02*
X202382000Y-118829000I-100000J0D01*
G01*
X201107000Y-118829000D01*
G75*
G02*
X201007000Y-118729000I0J100000D01*
G01*
G37*
G36*
G01*
X201007000Y-119379000D02*
X201007000Y-119179000D01*
G75*
G02*
X201107000Y-119079000I100000J0D01*
G01*
X202382000Y-119079000D01*
G75*
G02*
X202482000Y-119179000I0J-100000D01*
G01*
X202482000Y-119379000D01*
G75*
G02*
X202382000Y-119479000I-100000J0D01*
G01*
X201107000Y-119479000D01*
G75*
G02*
X201007000Y-119379000I0J100000D01*
G01*
G37*
G36*
G01*
X201007000Y-120029000D02*
X201007000Y-119829000D01*
G75*
G02*
X201107000Y-119729000I100000J0D01*
G01*
X202382000Y-119729000D01*
G75*
G02*
X202482000Y-119829000I0J-100000D01*
G01*
X202482000Y-120029000D01*
G75*
G02*
X202382000Y-120129000I-100000J0D01*
G01*
X201107000Y-120129000D01*
G75*
G02*
X201007000Y-120029000I0J100000D01*
G01*
G37*
G36*
G01*
X201007000Y-120679000D02*
X201007000Y-120479000D01*
G75*
G02*
X201107000Y-120379000I100000J0D01*
G01*
X202382000Y-120379000D01*
G75*
G02*
X202482000Y-120479000I0J-100000D01*
G01*
X202482000Y-120679000D01*
G75*
G02*
X202382000Y-120779000I-100000J0D01*
G01*
X201107000Y-120779000D01*
G75*
G02*
X201007000Y-120679000I0J100000D01*
G01*
G37*
G36*
G01*
X201007000Y-121329000D02*
X201007000Y-121129000D01*
G75*
G02*
X201107000Y-121029000I100000J0D01*
G01*
X202382000Y-121029000D01*
G75*
G02*
X202482000Y-121129000I0J-100000D01*
G01*
X202482000Y-121329000D01*
G75*
G02*
X202382000Y-121429000I-100000J0D01*
G01*
X201107000Y-121429000D01*
G75*
G02*
X201007000Y-121329000I0J100000D01*
G01*
G37*
G36*
G01*
X201007000Y-121979000D02*
X201007000Y-121779000D01*
G75*
G02*
X201107000Y-121679000I100000J0D01*
G01*
X202382000Y-121679000D01*
G75*
G02*
X202482000Y-121779000I0J-100000D01*
G01*
X202482000Y-121979000D01*
G75*
G02*
X202382000Y-122079000I-100000J0D01*
G01*
X201107000Y-122079000D01*
G75*
G02*
X201007000Y-121979000I0J100000D01*
G01*
G37*
G36*
G01*
X201007000Y-122629000D02*
X201007000Y-122429000D01*
G75*
G02*
X201107000Y-122329000I100000J0D01*
G01*
X202382000Y-122329000D01*
G75*
G02*
X202482000Y-122429000I0J-100000D01*
G01*
X202482000Y-122629000D01*
G75*
G02*
X202382000Y-122729000I-100000J0D01*
G01*
X201107000Y-122729000D01*
G75*
G02*
X201007000Y-122629000I0J100000D01*
G01*
G37*
G36*
G01*
X201007000Y-123279000D02*
X201007000Y-123079000D01*
G75*
G02*
X201107000Y-122979000I100000J0D01*
G01*
X202382000Y-122979000D01*
G75*
G02*
X202482000Y-123079000I0J-100000D01*
G01*
X202482000Y-123279000D01*
G75*
G02*
X202382000Y-123379000I-100000J0D01*
G01*
X201107000Y-123379000D01*
G75*
G02*
X201007000Y-123279000I0J100000D01*
G01*
G37*
G36*
G01*
X195282000Y-123279000D02*
X195282000Y-123079000D01*
G75*
G02*
X195382000Y-122979000I100000J0D01*
G01*
X196657000Y-122979000D01*
G75*
G02*
X196757000Y-123079000I0J-100000D01*
G01*
X196757000Y-123279000D01*
G75*
G02*
X196657000Y-123379000I-100000J0D01*
G01*
X195382000Y-123379000D01*
G75*
G02*
X195282000Y-123279000I0J100000D01*
G01*
G37*
G36*
G01*
X195282000Y-122629000D02*
X195282000Y-122429000D01*
G75*
G02*
X195382000Y-122329000I100000J0D01*
G01*
X196657000Y-122329000D01*
G75*
G02*
X196757000Y-122429000I0J-100000D01*
G01*
X196757000Y-122629000D01*
G75*
G02*
X196657000Y-122729000I-100000J0D01*
G01*
X195382000Y-122729000D01*
G75*
G02*
X195282000Y-122629000I0J100000D01*
G01*
G37*
G36*
G01*
X195282000Y-121979000D02*
X195282000Y-121779000D01*
G75*
G02*
X195382000Y-121679000I100000J0D01*
G01*
X196657000Y-121679000D01*
G75*
G02*
X196757000Y-121779000I0J-100000D01*
G01*
X196757000Y-121979000D01*
G75*
G02*
X196657000Y-122079000I-100000J0D01*
G01*
X195382000Y-122079000D01*
G75*
G02*
X195282000Y-121979000I0J100000D01*
G01*
G37*
G36*
G01*
X195282000Y-121329000D02*
X195282000Y-121129000D01*
G75*
G02*
X195382000Y-121029000I100000J0D01*
G01*
X196657000Y-121029000D01*
G75*
G02*
X196757000Y-121129000I0J-100000D01*
G01*
X196757000Y-121329000D01*
G75*
G02*
X196657000Y-121429000I-100000J0D01*
G01*
X195382000Y-121429000D01*
G75*
G02*
X195282000Y-121329000I0J100000D01*
G01*
G37*
G36*
G01*
X195282000Y-120679000D02*
X195282000Y-120479000D01*
G75*
G02*
X195382000Y-120379000I100000J0D01*
G01*
X196657000Y-120379000D01*
G75*
G02*
X196757000Y-120479000I0J-100000D01*
G01*
X196757000Y-120679000D01*
G75*
G02*
X196657000Y-120779000I-100000J0D01*
G01*
X195382000Y-120779000D01*
G75*
G02*
X195282000Y-120679000I0J100000D01*
G01*
G37*
G36*
G01*
X195282000Y-120029000D02*
X195282000Y-119829000D01*
G75*
G02*
X195382000Y-119729000I100000J0D01*
G01*
X196657000Y-119729000D01*
G75*
G02*
X196757000Y-119829000I0J-100000D01*
G01*
X196757000Y-120029000D01*
G75*
G02*
X196657000Y-120129000I-100000J0D01*
G01*
X195382000Y-120129000D01*
G75*
G02*
X195282000Y-120029000I0J100000D01*
G01*
G37*
G36*
G01*
X195282000Y-119379000D02*
X195282000Y-119179000D01*
G75*
G02*
X195382000Y-119079000I100000J0D01*
G01*
X196657000Y-119079000D01*
G75*
G02*
X196757000Y-119179000I0J-100000D01*
G01*
X196757000Y-119379000D01*
G75*
G02*
X196657000Y-119479000I-100000J0D01*
G01*
X195382000Y-119479000D01*
G75*
G02*
X195282000Y-119379000I0J100000D01*
G01*
G37*
G36*
G01*
X195282000Y-118729000D02*
X195282000Y-118529000D01*
G75*
G02*
X195382000Y-118429000I100000J0D01*
G01*
X196657000Y-118429000D01*
G75*
G02*
X196757000Y-118529000I0J-100000D01*
G01*
X196757000Y-118729000D01*
G75*
G02*
X196657000Y-118829000I-100000J0D01*
G01*
X195382000Y-118829000D01*
G75*
G02*
X195282000Y-118729000I0J100000D01*
G01*
G37*
%TD*%
%TO.C,U8*%
G36*
G01*
X185767000Y-118729000D02*
X185767000Y-118529000D01*
G75*
G02*
X185867000Y-118429000I100000J0D01*
G01*
X187142000Y-118429000D01*
G75*
G02*
X187242000Y-118529000I0J-100000D01*
G01*
X187242000Y-118729000D01*
G75*
G02*
X187142000Y-118829000I-100000J0D01*
G01*
X185867000Y-118829000D01*
G75*
G02*
X185767000Y-118729000I0J100000D01*
G01*
G37*
G36*
G01*
X185767000Y-119379000D02*
X185767000Y-119179000D01*
G75*
G02*
X185867000Y-119079000I100000J0D01*
G01*
X187142000Y-119079000D01*
G75*
G02*
X187242000Y-119179000I0J-100000D01*
G01*
X187242000Y-119379000D01*
G75*
G02*
X187142000Y-119479000I-100000J0D01*
G01*
X185867000Y-119479000D01*
G75*
G02*
X185767000Y-119379000I0J100000D01*
G01*
G37*
G36*
G01*
X185767000Y-120029000D02*
X185767000Y-119829000D01*
G75*
G02*
X185867000Y-119729000I100000J0D01*
G01*
X187142000Y-119729000D01*
G75*
G02*
X187242000Y-119829000I0J-100000D01*
G01*
X187242000Y-120029000D01*
G75*
G02*
X187142000Y-120129000I-100000J0D01*
G01*
X185867000Y-120129000D01*
G75*
G02*
X185767000Y-120029000I0J100000D01*
G01*
G37*
G36*
G01*
X185767000Y-120679000D02*
X185767000Y-120479000D01*
G75*
G02*
X185867000Y-120379000I100000J0D01*
G01*
X187142000Y-120379000D01*
G75*
G02*
X187242000Y-120479000I0J-100000D01*
G01*
X187242000Y-120679000D01*
G75*
G02*
X187142000Y-120779000I-100000J0D01*
G01*
X185867000Y-120779000D01*
G75*
G02*
X185767000Y-120679000I0J100000D01*
G01*
G37*
G36*
G01*
X185767000Y-121329000D02*
X185767000Y-121129000D01*
G75*
G02*
X185867000Y-121029000I100000J0D01*
G01*
X187142000Y-121029000D01*
G75*
G02*
X187242000Y-121129000I0J-100000D01*
G01*
X187242000Y-121329000D01*
G75*
G02*
X187142000Y-121429000I-100000J0D01*
G01*
X185867000Y-121429000D01*
G75*
G02*
X185767000Y-121329000I0J100000D01*
G01*
G37*
G36*
G01*
X185767000Y-121979000D02*
X185767000Y-121779000D01*
G75*
G02*
X185867000Y-121679000I100000J0D01*
G01*
X187142000Y-121679000D01*
G75*
G02*
X187242000Y-121779000I0J-100000D01*
G01*
X187242000Y-121979000D01*
G75*
G02*
X187142000Y-122079000I-100000J0D01*
G01*
X185867000Y-122079000D01*
G75*
G02*
X185767000Y-121979000I0J100000D01*
G01*
G37*
G36*
G01*
X185767000Y-122629000D02*
X185767000Y-122429000D01*
G75*
G02*
X185867000Y-122329000I100000J0D01*
G01*
X187142000Y-122329000D01*
G75*
G02*
X187242000Y-122429000I0J-100000D01*
G01*
X187242000Y-122629000D01*
G75*
G02*
X187142000Y-122729000I-100000J0D01*
G01*
X185867000Y-122729000D01*
G75*
G02*
X185767000Y-122629000I0J100000D01*
G01*
G37*
G36*
G01*
X185767000Y-123279000D02*
X185767000Y-123079000D01*
G75*
G02*
X185867000Y-122979000I100000J0D01*
G01*
X187142000Y-122979000D01*
G75*
G02*
X187242000Y-123079000I0J-100000D01*
G01*
X187242000Y-123279000D01*
G75*
G02*
X187142000Y-123379000I-100000J0D01*
G01*
X185867000Y-123379000D01*
G75*
G02*
X185767000Y-123279000I0J100000D01*
G01*
G37*
G36*
G01*
X180042000Y-123279000D02*
X180042000Y-123079000D01*
G75*
G02*
X180142000Y-122979000I100000J0D01*
G01*
X181417000Y-122979000D01*
G75*
G02*
X181517000Y-123079000I0J-100000D01*
G01*
X181517000Y-123279000D01*
G75*
G02*
X181417000Y-123379000I-100000J0D01*
G01*
X180142000Y-123379000D01*
G75*
G02*
X180042000Y-123279000I0J100000D01*
G01*
G37*
G36*
G01*
X180042000Y-122629000D02*
X180042000Y-122429000D01*
G75*
G02*
X180142000Y-122329000I100000J0D01*
G01*
X181417000Y-122329000D01*
G75*
G02*
X181517000Y-122429000I0J-100000D01*
G01*
X181517000Y-122629000D01*
G75*
G02*
X181417000Y-122729000I-100000J0D01*
G01*
X180142000Y-122729000D01*
G75*
G02*
X180042000Y-122629000I0J100000D01*
G01*
G37*
G36*
G01*
X180042000Y-121979000D02*
X180042000Y-121779000D01*
G75*
G02*
X180142000Y-121679000I100000J0D01*
G01*
X181417000Y-121679000D01*
G75*
G02*
X181517000Y-121779000I0J-100000D01*
G01*
X181517000Y-121979000D01*
G75*
G02*
X181417000Y-122079000I-100000J0D01*
G01*
X180142000Y-122079000D01*
G75*
G02*
X180042000Y-121979000I0J100000D01*
G01*
G37*
G36*
G01*
X180042000Y-121329000D02*
X180042000Y-121129000D01*
G75*
G02*
X180142000Y-121029000I100000J0D01*
G01*
X181417000Y-121029000D01*
G75*
G02*
X181517000Y-121129000I0J-100000D01*
G01*
X181517000Y-121329000D01*
G75*
G02*
X181417000Y-121429000I-100000J0D01*
G01*
X180142000Y-121429000D01*
G75*
G02*
X180042000Y-121329000I0J100000D01*
G01*
G37*
G36*
G01*
X180042000Y-120679000D02*
X180042000Y-120479000D01*
G75*
G02*
X180142000Y-120379000I100000J0D01*
G01*
X181417000Y-120379000D01*
G75*
G02*
X181517000Y-120479000I0J-100000D01*
G01*
X181517000Y-120679000D01*
G75*
G02*
X181417000Y-120779000I-100000J0D01*
G01*
X180142000Y-120779000D01*
G75*
G02*
X180042000Y-120679000I0J100000D01*
G01*
G37*
G36*
G01*
X180042000Y-120029000D02*
X180042000Y-119829000D01*
G75*
G02*
X180142000Y-119729000I100000J0D01*
G01*
X181417000Y-119729000D01*
G75*
G02*
X181517000Y-119829000I0J-100000D01*
G01*
X181517000Y-120029000D01*
G75*
G02*
X181417000Y-120129000I-100000J0D01*
G01*
X180142000Y-120129000D01*
G75*
G02*
X180042000Y-120029000I0J100000D01*
G01*
G37*
G36*
G01*
X180042000Y-119379000D02*
X180042000Y-119179000D01*
G75*
G02*
X180142000Y-119079000I100000J0D01*
G01*
X181417000Y-119079000D01*
G75*
G02*
X181517000Y-119179000I0J-100000D01*
G01*
X181517000Y-119379000D01*
G75*
G02*
X181417000Y-119479000I-100000J0D01*
G01*
X180142000Y-119479000D01*
G75*
G02*
X180042000Y-119379000I0J100000D01*
G01*
G37*
G36*
G01*
X180042000Y-118729000D02*
X180042000Y-118529000D01*
G75*
G02*
X180142000Y-118429000I100000J0D01*
G01*
X181417000Y-118429000D01*
G75*
G02*
X181517000Y-118529000I0J-100000D01*
G01*
X181517000Y-118729000D01*
G75*
G02*
X181417000Y-118829000I-100000J0D01*
G01*
X180142000Y-118829000D01*
G75*
G02*
X180042000Y-118729000I0J100000D01*
G01*
G37*
%TD*%
%TO.C,U7*%
G36*
G01*
X170527000Y-118729000D02*
X170527000Y-118529000D01*
G75*
G02*
X170627000Y-118429000I100000J0D01*
G01*
X171902000Y-118429000D01*
G75*
G02*
X172002000Y-118529000I0J-100000D01*
G01*
X172002000Y-118729000D01*
G75*
G02*
X171902000Y-118829000I-100000J0D01*
G01*
X170627000Y-118829000D01*
G75*
G02*
X170527000Y-118729000I0J100000D01*
G01*
G37*
G36*
G01*
X170527000Y-119379000D02*
X170527000Y-119179000D01*
G75*
G02*
X170627000Y-119079000I100000J0D01*
G01*
X171902000Y-119079000D01*
G75*
G02*
X172002000Y-119179000I0J-100000D01*
G01*
X172002000Y-119379000D01*
G75*
G02*
X171902000Y-119479000I-100000J0D01*
G01*
X170627000Y-119479000D01*
G75*
G02*
X170527000Y-119379000I0J100000D01*
G01*
G37*
G36*
G01*
X170527000Y-120029000D02*
X170527000Y-119829000D01*
G75*
G02*
X170627000Y-119729000I100000J0D01*
G01*
X171902000Y-119729000D01*
G75*
G02*
X172002000Y-119829000I0J-100000D01*
G01*
X172002000Y-120029000D01*
G75*
G02*
X171902000Y-120129000I-100000J0D01*
G01*
X170627000Y-120129000D01*
G75*
G02*
X170527000Y-120029000I0J100000D01*
G01*
G37*
G36*
G01*
X170527000Y-120679000D02*
X170527000Y-120479000D01*
G75*
G02*
X170627000Y-120379000I100000J0D01*
G01*
X171902000Y-120379000D01*
G75*
G02*
X172002000Y-120479000I0J-100000D01*
G01*
X172002000Y-120679000D01*
G75*
G02*
X171902000Y-120779000I-100000J0D01*
G01*
X170627000Y-120779000D01*
G75*
G02*
X170527000Y-120679000I0J100000D01*
G01*
G37*
G36*
G01*
X170527000Y-121329000D02*
X170527000Y-121129000D01*
G75*
G02*
X170627000Y-121029000I100000J0D01*
G01*
X171902000Y-121029000D01*
G75*
G02*
X172002000Y-121129000I0J-100000D01*
G01*
X172002000Y-121329000D01*
G75*
G02*
X171902000Y-121429000I-100000J0D01*
G01*
X170627000Y-121429000D01*
G75*
G02*
X170527000Y-121329000I0J100000D01*
G01*
G37*
G36*
G01*
X170527000Y-121979000D02*
X170527000Y-121779000D01*
G75*
G02*
X170627000Y-121679000I100000J0D01*
G01*
X171902000Y-121679000D01*
G75*
G02*
X172002000Y-121779000I0J-100000D01*
G01*
X172002000Y-121979000D01*
G75*
G02*
X171902000Y-122079000I-100000J0D01*
G01*
X170627000Y-122079000D01*
G75*
G02*
X170527000Y-121979000I0J100000D01*
G01*
G37*
G36*
G01*
X170527000Y-122629000D02*
X170527000Y-122429000D01*
G75*
G02*
X170627000Y-122329000I100000J0D01*
G01*
X171902000Y-122329000D01*
G75*
G02*
X172002000Y-122429000I0J-100000D01*
G01*
X172002000Y-122629000D01*
G75*
G02*
X171902000Y-122729000I-100000J0D01*
G01*
X170627000Y-122729000D01*
G75*
G02*
X170527000Y-122629000I0J100000D01*
G01*
G37*
G36*
G01*
X170527000Y-123279000D02*
X170527000Y-123079000D01*
G75*
G02*
X170627000Y-122979000I100000J0D01*
G01*
X171902000Y-122979000D01*
G75*
G02*
X172002000Y-123079000I0J-100000D01*
G01*
X172002000Y-123279000D01*
G75*
G02*
X171902000Y-123379000I-100000J0D01*
G01*
X170627000Y-123379000D01*
G75*
G02*
X170527000Y-123279000I0J100000D01*
G01*
G37*
G36*
G01*
X164802000Y-123279000D02*
X164802000Y-123079000D01*
G75*
G02*
X164902000Y-122979000I100000J0D01*
G01*
X166177000Y-122979000D01*
G75*
G02*
X166277000Y-123079000I0J-100000D01*
G01*
X166277000Y-123279000D01*
G75*
G02*
X166177000Y-123379000I-100000J0D01*
G01*
X164902000Y-123379000D01*
G75*
G02*
X164802000Y-123279000I0J100000D01*
G01*
G37*
G36*
G01*
X164802000Y-122629000D02*
X164802000Y-122429000D01*
G75*
G02*
X164902000Y-122329000I100000J0D01*
G01*
X166177000Y-122329000D01*
G75*
G02*
X166277000Y-122429000I0J-100000D01*
G01*
X166277000Y-122629000D01*
G75*
G02*
X166177000Y-122729000I-100000J0D01*
G01*
X164902000Y-122729000D01*
G75*
G02*
X164802000Y-122629000I0J100000D01*
G01*
G37*
G36*
G01*
X164802000Y-121979000D02*
X164802000Y-121779000D01*
G75*
G02*
X164902000Y-121679000I100000J0D01*
G01*
X166177000Y-121679000D01*
G75*
G02*
X166277000Y-121779000I0J-100000D01*
G01*
X166277000Y-121979000D01*
G75*
G02*
X166177000Y-122079000I-100000J0D01*
G01*
X164902000Y-122079000D01*
G75*
G02*
X164802000Y-121979000I0J100000D01*
G01*
G37*
G36*
G01*
X164802000Y-121329000D02*
X164802000Y-121129000D01*
G75*
G02*
X164902000Y-121029000I100000J0D01*
G01*
X166177000Y-121029000D01*
G75*
G02*
X166277000Y-121129000I0J-100000D01*
G01*
X166277000Y-121329000D01*
G75*
G02*
X166177000Y-121429000I-100000J0D01*
G01*
X164902000Y-121429000D01*
G75*
G02*
X164802000Y-121329000I0J100000D01*
G01*
G37*
G36*
G01*
X164802000Y-120679000D02*
X164802000Y-120479000D01*
G75*
G02*
X164902000Y-120379000I100000J0D01*
G01*
X166177000Y-120379000D01*
G75*
G02*
X166277000Y-120479000I0J-100000D01*
G01*
X166277000Y-120679000D01*
G75*
G02*
X166177000Y-120779000I-100000J0D01*
G01*
X164902000Y-120779000D01*
G75*
G02*
X164802000Y-120679000I0J100000D01*
G01*
G37*
G36*
G01*
X164802000Y-120029000D02*
X164802000Y-119829000D01*
G75*
G02*
X164902000Y-119729000I100000J0D01*
G01*
X166177000Y-119729000D01*
G75*
G02*
X166277000Y-119829000I0J-100000D01*
G01*
X166277000Y-120029000D01*
G75*
G02*
X166177000Y-120129000I-100000J0D01*
G01*
X164902000Y-120129000D01*
G75*
G02*
X164802000Y-120029000I0J100000D01*
G01*
G37*
G36*
G01*
X164802000Y-119379000D02*
X164802000Y-119179000D01*
G75*
G02*
X164902000Y-119079000I100000J0D01*
G01*
X166177000Y-119079000D01*
G75*
G02*
X166277000Y-119179000I0J-100000D01*
G01*
X166277000Y-119379000D01*
G75*
G02*
X166177000Y-119479000I-100000J0D01*
G01*
X164902000Y-119479000D01*
G75*
G02*
X164802000Y-119379000I0J100000D01*
G01*
G37*
G36*
G01*
X164802000Y-118729000D02*
X164802000Y-118529000D01*
G75*
G02*
X164902000Y-118429000I100000J0D01*
G01*
X166177000Y-118429000D01*
G75*
G02*
X166277000Y-118529000I0J-100000D01*
G01*
X166277000Y-118729000D01*
G75*
G02*
X166177000Y-118829000I-100000J0D01*
G01*
X164902000Y-118829000D01*
G75*
G02*
X164802000Y-118729000I0J100000D01*
G01*
G37*
%TD*%
%TO.C,U6*%
G36*
G01*
X127912000Y-78764000D02*
X127612000Y-78764000D01*
G75*
G02*
X127462000Y-78614000I0J150000D01*
G01*
X127462000Y-76964000D01*
G75*
G02*
X127612000Y-76814000I150000J0D01*
G01*
X127912000Y-76814000D01*
G75*
G02*
X128062000Y-76964000I0J-150000D01*
G01*
X128062000Y-78614000D01*
G75*
G02*
X127912000Y-78764000I-150000J0D01*
G01*
G37*
G36*
G01*
X129182000Y-78764000D02*
X128882000Y-78764000D01*
G75*
G02*
X128732000Y-78614000I0J150000D01*
G01*
X128732000Y-76964000D01*
G75*
G02*
X128882000Y-76814000I150000J0D01*
G01*
X129182000Y-76814000D01*
G75*
G02*
X129332000Y-76964000I0J-150000D01*
G01*
X129332000Y-78614000D01*
G75*
G02*
X129182000Y-78764000I-150000J0D01*
G01*
G37*
G36*
G01*
X130452000Y-78764000D02*
X130152000Y-78764000D01*
G75*
G02*
X130002000Y-78614000I0J150000D01*
G01*
X130002000Y-76964000D01*
G75*
G02*
X130152000Y-76814000I150000J0D01*
G01*
X130452000Y-76814000D01*
G75*
G02*
X130602000Y-76964000I0J-150000D01*
G01*
X130602000Y-78614000D01*
G75*
G02*
X130452000Y-78764000I-150000J0D01*
G01*
G37*
G36*
G01*
X131722000Y-78764000D02*
X131422000Y-78764000D01*
G75*
G02*
X131272000Y-78614000I0J150000D01*
G01*
X131272000Y-76964000D01*
G75*
G02*
X131422000Y-76814000I150000J0D01*
G01*
X131722000Y-76814000D01*
G75*
G02*
X131872000Y-76964000I0J-150000D01*
G01*
X131872000Y-78614000D01*
G75*
G02*
X131722000Y-78764000I-150000J0D01*
G01*
G37*
G36*
G01*
X132992000Y-78764000D02*
X132692000Y-78764000D01*
G75*
G02*
X132542000Y-78614000I0J150000D01*
G01*
X132542000Y-76964000D01*
G75*
G02*
X132692000Y-76814000I150000J0D01*
G01*
X132992000Y-76814000D01*
G75*
G02*
X133142000Y-76964000I0J-150000D01*
G01*
X133142000Y-78614000D01*
G75*
G02*
X132992000Y-78764000I-150000J0D01*
G01*
G37*
G36*
G01*
X134262000Y-78764000D02*
X133962000Y-78764000D01*
G75*
G02*
X133812000Y-78614000I0J150000D01*
G01*
X133812000Y-76964000D01*
G75*
G02*
X133962000Y-76814000I150000J0D01*
G01*
X134262000Y-76814000D01*
G75*
G02*
X134412000Y-76964000I0J-150000D01*
G01*
X134412000Y-78614000D01*
G75*
G02*
X134262000Y-78764000I-150000J0D01*
G01*
G37*
G36*
G01*
X135532000Y-78764000D02*
X135232000Y-78764000D01*
G75*
G02*
X135082000Y-78614000I0J150000D01*
G01*
X135082000Y-76964000D01*
G75*
G02*
X135232000Y-76814000I150000J0D01*
G01*
X135532000Y-76814000D01*
G75*
G02*
X135682000Y-76964000I0J-150000D01*
G01*
X135682000Y-78614000D01*
G75*
G02*
X135532000Y-78764000I-150000J0D01*
G01*
G37*
G36*
G01*
X135532000Y-83714000D02*
X135232000Y-83714000D01*
G75*
G02*
X135082000Y-83564000I0J150000D01*
G01*
X135082000Y-81914000D01*
G75*
G02*
X135232000Y-81764000I150000J0D01*
G01*
X135532000Y-81764000D01*
G75*
G02*
X135682000Y-81914000I0J-150000D01*
G01*
X135682000Y-83564000D01*
G75*
G02*
X135532000Y-83714000I-150000J0D01*
G01*
G37*
G36*
G01*
X134262000Y-83714000D02*
X133962000Y-83714000D01*
G75*
G02*
X133812000Y-83564000I0J150000D01*
G01*
X133812000Y-81914000D01*
G75*
G02*
X133962000Y-81764000I150000J0D01*
G01*
X134262000Y-81764000D01*
G75*
G02*
X134412000Y-81914000I0J-150000D01*
G01*
X134412000Y-83564000D01*
G75*
G02*
X134262000Y-83714000I-150000J0D01*
G01*
G37*
G36*
G01*
X132992000Y-83714000D02*
X132692000Y-83714000D01*
G75*
G02*
X132542000Y-83564000I0J150000D01*
G01*
X132542000Y-81914000D01*
G75*
G02*
X132692000Y-81764000I150000J0D01*
G01*
X132992000Y-81764000D01*
G75*
G02*
X133142000Y-81914000I0J-150000D01*
G01*
X133142000Y-83564000D01*
G75*
G02*
X132992000Y-83714000I-150000J0D01*
G01*
G37*
G36*
G01*
X131722000Y-83714000D02*
X131422000Y-83714000D01*
G75*
G02*
X131272000Y-83564000I0J150000D01*
G01*
X131272000Y-81914000D01*
G75*
G02*
X131422000Y-81764000I150000J0D01*
G01*
X131722000Y-81764000D01*
G75*
G02*
X131872000Y-81914000I0J-150000D01*
G01*
X131872000Y-83564000D01*
G75*
G02*
X131722000Y-83714000I-150000J0D01*
G01*
G37*
G36*
G01*
X130452000Y-83714000D02*
X130152000Y-83714000D01*
G75*
G02*
X130002000Y-83564000I0J150000D01*
G01*
X130002000Y-81914000D01*
G75*
G02*
X130152000Y-81764000I150000J0D01*
G01*
X130452000Y-81764000D01*
G75*
G02*
X130602000Y-81914000I0J-150000D01*
G01*
X130602000Y-83564000D01*
G75*
G02*
X130452000Y-83714000I-150000J0D01*
G01*
G37*
G36*
G01*
X129182000Y-83714000D02*
X128882000Y-83714000D01*
G75*
G02*
X128732000Y-83564000I0J150000D01*
G01*
X128732000Y-81914000D01*
G75*
G02*
X128882000Y-81764000I150000J0D01*
G01*
X129182000Y-81764000D01*
G75*
G02*
X129332000Y-81914000I0J-150000D01*
G01*
X129332000Y-83564000D01*
G75*
G02*
X129182000Y-83714000I-150000J0D01*
G01*
G37*
G36*
G01*
X127912000Y-83714000D02*
X127612000Y-83714000D01*
G75*
G02*
X127462000Y-83564000I0J150000D01*
G01*
X127462000Y-81914000D01*
G75*
G02*
X127612000Y-81764000I150000J0D01*
G01*
X127912000Y-81764000D01*
G75*
G02*
X128062000Y-81914000I0J-150000D01*
G01*
X128062000Y-83564000D01*
G75*
G02*
X127912000Y-83714000I-150000J0D01*
G01*
G37*
%TD*%
%TO.C,U5*%
G36*
G01*
X148232000Y-78764000D02*
X147932000Y-78764000D01*
G75*
G02*
X147782000Y-78614000I0J150000D01*
G01*
X147782000Y-76964000D01*
G75*
G02*
X147932000Y-76814000I150000J0D01*
G01*
X148232000Y-76814000D01*
G75*
G02*
X148382000Y-76964000I0J-150000D01*
G01*
X148382000Y-78614000D01*
G75*
G02*
X148232000Y-78764000I-150000J0D01*
G01*
G37*
G36*
G01*
X149502000Y-78764000D02*
X149202000Y-78764000D01*
G75*
G02*
X149052000Y-78614000I0J150000D01*
G01*
X149052000Y-76964000D01*
G75*
G02*
X149202000Y-76814000I150000J0D01*
G01*
X149502000Y-76814000D01*
G75*
G02*
X149652000Y-76964000I0J-150000D01*
G01*
X149652000Y-78614000D01*
G75*
G02*
X149502000Y-78764000I-150000J0D01*
G01*
G37*
G36*
G01*
X150772000Y-78764000D02*
X150472000Y-78764000D01*
G75*
G02*
X150322000Y-78614000I0J150000D01*
G01*
X150322000Y-76964000D01*
G75*
G02*
X150472000Y-76814000I150000J0D01*
G01*
X150772000Y-76814000D01*
G75*
G02*
X150922000Y-76964000I0J-150000D01*
G01*
X150922000Y-78614000D01*
G75*
G02*
X150772000Y-78764000I-150000J0D01*
G01*
G37*
G36*
G01*
X152042000Y-78764000D02*
X151742000Y-78764000D01*
G75*
G02*
X151592000Y-78614000I0J150000D01*
G01*
X151592000Y-76964000D01*
G75*
G02*
X151742000Y-76814000I150000J0D01*
G01*
X152042000Y-76814000D01*
G75*
G02*
X152192000Y-76964000I0J-150000D01*
G01*
X152192000Y-78614000D01*
G75*
G02*
X152042000Y-78764000I-150000J0D01*
G01*
G37*
G36*
G01*
X153312000Y-78764000D02*
X153012000Y-78764000D01*
G75*
G02*
X152862000Y-78614000I0J150000D01*
G01*
X152862000Y-76964000D01*
G75*
G02*
X153012000Y-76814000I150000J0D01*
G01*
X153312000Y-76814000D01*
G75*
G02*
X153462000Y-76964000I0J-150000D01*
G01*
X153462000Y-78614000D01*
G75*
G02*
X153312000Y-78764000I-150000J0D01*
G01*
G37*
G36*
G01*
X154582000Y-78764000D02*
X154282000Y-78764000D01*
G75*
G02*
X154132000Y-78614000I0J150000D01*
G01*
X154132000Y-76964000D01*
G75*
G02*
X154282000Y-76814000I150000J0D01*
G01*
X154582000Y-76814000D01*
G75*
G02*
X154732000Y-76964000I0J-150000D01*
G01*
X154732000Y-78614000D01*
G75*
G02*
X154582000Y-78764000I-150000J0D01*
G01*
G37*
G36*
G01*
X155852000Y-78764000D02*
X155552000Y-78764000D01*
G75*
G02*
X155402000Y-78614000I0J150000D01*
G01*
X155402000Y-76964000D01*
G75*
G02*
X155552000Y-76814000I150000J0D01*
G01*
X155852000Y-76814000D01*
G75*
G02*
X156002000Y-76964000I0J-150000D01*
G01*
X156002000Y-78614000D01*
G75*
G02*
X155852000Y-78764000I-150000J0D01*
G01*
G37*
G36*
G01*
X155852000Y-83714000D02*
X155552000Y-83714000D01*
G75*
G02*
X155402000Y-83564000I0J150000D01*
G01*
X155402000Y-81914000D01*
G75*
G02*
X155552000Y-81764000I150000J0D01*
G01*
X155852000Y-81764000D01*
G75*
G02*
X156002000Y-81914000I0J-150000D01*
G01*
X156002000Y-83564000D01*
G75*
G02*
X155852000Y-83714000I-150000J0D01*
G01*
G37*
G36*
G01*
X154582000Y-83714000D02*
X154282000Y-83714000D01*
G75*
G02*
X154132000Y-83564000I0J150000D01*
G01*
X154132000Y-81914000D01*
G75*
G02*
X154282000Y-81764000I150000J0D01*
G01*
X154582000Y-81764000D01*
G75*
G02*
X154732000Y-81914000I0J-150000D01*
G01*
X154732000Y-83564000D01*
G75*
G02*
X154582000Y-83714000I-150000J0D01*
G01*
G37*
G36*
G01*
X153312000Y-83714000D02*
X153012000Y-83714000D01*
G75*
G02*
X152862000Y-83564000I0J150000D01*
G01*
X152862000Y-81914000D01*
G75*
G02*
X153012000Y-81764000I150000J0D01*
G01*
X153312000Y-81764000D01*
G75*
G02*
X153462000Y-81914000I0J-150000D01*
G01*
X153462000Y-83564000D01*
G75*
G02*
X153312000Y-83714000I-150000J0D01*
G01*
G37*
G36*
G01*
X152042000Y-83714000D02*
X151742000Y-83714000D01*
G75*
G02*
X151592000Y-83564000I0J150000D01*
G01*
X151592000Y-81914000D01*
G75*
G02*
X151742000Y-81764000I150000J0D01*
G01*
X152042000Y-81764000D01*
G75*
G02*
X152192000Y-81914000I0J-150000D01*
G01*
X152192000Y-83564000D01*
G75*
G02*
X152042000Y-83714000I-150000J0D01*
G01*
G37*
G36*
G01*
X150772000Y-83714000D02*
X150472000Y-83714000D01*
G75*
G02*
X150322000Y-83564000I0J150000D01*
G01*
X150322000Y-81914000D01*
G75*
G02*
X150472000Y-81764000I150000J0D01*
G01*
X150772000Y-81764000D01*
G75*
G02*
X150922000Y-81914000I0J-150000D01*
G01*
X150922000Y-83564000D01*
G75*
G02*
X150772000Y-83714000I-150000J0D01*
G01*
G37*
G36*
G01*
X149502000Y-83714000D02*
X149202000Y-83714000D01*
G75*
G02*
X149052000Y-83564000I0J150000D01*
G01*
X149052000Y-81914000D01*
G75*
G02*
X149202000Y-81764000I150000J0D01*
G01*
X149502000Y-81764000D01*
G75*
G02*
X149652000Y-81914000I0J-150000D01*
G01*
X149652000Y-83564000D01*
G75*
G02*
X149502000Y-83714000I-150000J0D01*
G01*
G37*
G36*
G01*
X148232000Y-83714000D02*
X147932000Y-83714000D01*
G75*
G02*
X147782000Y-83564000I0J150000D01*
G01*
X147782000Y-81914000D01*
G75*
G02*
X147932000Y-81764000I150000J0D01*
G01*
X148232000Y-81764000D01*
G75*
G02*
X148382000Y-81914000I0J-150000D01*
G01*
X148382000Y-83564000D01*
G75*
G02*
X148232000Y-83714000I-150000J0D01*
G01*
G37*
%TD*%
%TO.C,U4*%
G36*
G01*
X122912000Y-77239000D02*
X122912000Y-76939000D01*
G75*
G02*
X123062000Y-76789000I150000J0D01*
G01*
X124712000Y-76789000D01*
G75*
G02*
X124862000Y-76939000I0J-150000D01*
G01*
X124862000Y-77239000D01*
G75*
G02*
X124712000Y-77389000I-150000J0D01*
G01*
X123062000Y-77389000D01*
G75*
G02*
X122912000Y-77239000I0J150000D01*
G01*
G37*
G36*
G01*
X122912000Y-78509000D02*
X122912000Y-78209000D01*
G75*
G02*
X123062000Y-78059000I150000J0D01*
G01*
X124712000Y-78059000D01*
G75*
G02*
X124862000Y-78209000I0J-150000D01*
G01*
X124862000Y-78509000D01*
G75*
G02*
X124712000Y-78659000I-150000J0D01*
G01*
X123062000Y-78659000D01*
G75*
G02*
X122912000Y-78509000I0J150000D01*
G01*
G37*
G36*
G01*
X122912000Y-79779000D02*
X122912000Y-79479000D01*
G75*
G02*
X123062000Y-79329000I150000J0D01*
G01*
X124712000Y-79329000D01*
G75*
G02*
X124862000Y-79479000I0J-150000D01*
G01*
X124862000Y-79779000D01*
G75*
G02*
X124712000Y-79929000I-150000J0D01*
G01*
X123062000Y-79929000D01*
G75*
G02*
X122912000Y-79779000I0J150000D01*
G01*
G37*
G36*
G01*
X122912000Y-81049000D02*
X122912000Y-80749000D01*
G75*
G02*
X123062000Y-80599000I150000J0D01*
G01*
X124712000Y-80599000D01*
G75*
G02*
X124862000Y-80749000I0J-150000D01*
G01*
X124862000Y-81049000D01*
G75*
G02*
X124712000Y-81199000I-150000J0D01*
G01*
X123062000Y-81199000D01*
G75*
G02*
X122912000Y-81049000I0J150000D01*
G01*
G37*
G36*
G01*
X117962000Y-81049000D02*
X117962000Y-80749000D01*
G75*
G02*
X118112000Y-80599000I150000J0D01*
G01*
X119762000Y-80599000D01*
G75*
G02*
X119912000Y-80749000I0J-150000D01*
G01*
X119912000Y-81049000D01*
G75*
G02*
X119762000Y-81199000I-150000J0D01*
G01*
X118112000Y-81199000D01*
G75*
G02*
X117962000Y-81049000I0J150000D01*
G01*
G37*
G36*
G01*
X117962000Y-79779000D02*
X117962000Y-79479000D01*
G75*
G02*
X118112000Y-79329000I150000J0D01*
G01*
X119762000Y-79329000D01*
G75*
G02*
X119912000Y-79479000I0J-150000D01*
G01*
X119912000Y-79779000D01*
G75*
G02*
X119762000Y-79929000I-150000J0D01*
G01*
X118112000Y-79929000D01*
G75*
G02*
X117962000Y-79779000I0J150000D01*
G01*
G37*
G36*
G01*
X117962000Y-78509000D02*
X117962000Y-78209000D01*
G75*
G02*
X118112000Y-78059000I150000J0D01*
G01*
X119762000Y-78059000D01*
G75*
G02*
X119912000Y-78209000I0J-150000D01*
G01*
X119912000Y-78509000D01*
G75*
G02*
X119762000Y-78659000I-150000J0D01*
G01*
X118112000Y-78659000D01*
G75*
G02*
X117962000Y-78509000I0J150000D01*
G01*
G37*
G36*
G01*
X117962000Y-77239000D02*
X117962000Y-76939000D01*
G75*
G02*
X118112000Y-76789000I150000J0D01*
G01*
X119762000Y-76789000D01*
G75*
G02*
X119912000Y-76939000I0J-150000D01*
G01*
X119912000Y-77239000D01*
G75*
G02*
X119762000Y-77389000I-150000J0D01*
G01*
X118112000Y-77389000D01*
G75*
G02*
X117962000Y-77239000I0J150000D01*
G01*
G37*
%TD*%
%TO.C,U3*%
G36*
G01*
X143232000Y-78509000D02*
X143232000Y-78209000D01*
G75*
G02*
X143382000Y-78059000I150000J0D01*
G01*
X145032000Y-78059000D01*
G75*
G02*
X145182000Y-78209000I0J-150000D01*
G01*
X145182000Y-78509000D01*
G75*
G02*
X145032000Y-78659000I-150000J0D01*
G01*
X143382000Y-78659000D01*
G75*
G02*
X143232000Y-78509000I0J150000D01*
G01*
G37*
G36*
G01*
X143232000Y-79779000D02*
X143232000Y-79479000D01*
G75*
G02*
X143382000Y-79329000I150000J0D01*
G01*
X145032000Y-79329000D01*
G75*
G02*
X145182000Y-79479000I0J-150000D01*
G01*
X145182000Y-79779000D01*
G75*
G02*
X145032000Y-79929000I-150000J0D01*
G01*
X143382000Y-79929000D01*
G75*
G02*
X143232000Y-79779000I0J150000D01*
G01*
G37*
G36*
G01*
X143232000Y-81049000D02*
X143232000Y-80749000D01*
G75*
G02*
X143382000Y-80599000I150000J0D01*
G01*
X145032000Y-80599000D01*
G75*
G02*
X145182000Y-80749000I0J-150000D01*
G01*
X145182000Y-81049000D01*
G75*
G02*
X145032000Y-81199000I-150000J0D01*
G01*
X143382000Y-81199000D01*
G75*
G02*
X143232000Y-81049000I0J150000D01*
G01*
G37*
G36*
G01*
X143232000Y-82319000D02*
X143232000Y-82019000D01*
G75*
G02*
X143382000Y-81869000I150000J0D01*
G01*
X145032000Y-81869000D01*
G75*
G02*
X145182000Y-82019000I0J-150000D01*
G01*
X145182000Y-82319000D01*
G75*
G02*
X145032000Y-82469000I-150000J0D01*
G01*
X143382000Y-82469000D01*
G75*
G02*
X143232000Y-82319000I0J150000D01*
G01*
G37*
G36*
G01*
X138282000Y-82319000D02*
X138282000Y-82019000D01*
G75*
G02*
X138432000Y-81869000I150000J0D01*
G01*
X140082000Y-81869000D01*
G75*
G02*
X140232000Y-82019000I0J-150000D01*
G01*
X140232000Y-82319000D01*
G75*
G02*
X140082000Y-82469000I-150000J0D01*
G01*
X138432000Y-82469000D01*
G75*
G02*
X138282000Y-82319000I0J150000D01*
G01*
G37*
G36*
G01*
X138282000Y-81049000D02*
X138282000Y-80749000D01*
G75*
G02*
X138432000Y-80599000I150000J0D01*
G01*
X140082000Y-80599000D01*
G75*
G02*
X140232000Y-80749000I0J-150000D01*
G01*
X140232000Y-81049000D01*
G75*
G02*
X140082000Y-81199000I-150000J0D01*
G01*
X138432000Y-81199000D01*
G75*
G02*
X138282000Y-81049000I0J150000D01*
G01*
G37*
G36*
G01*
X138282000Y-79779000D02*
X138282000Y-79479000D01*
G75*
G02*
X138432000Y-79329000I150000J0D01*
G01*
X140082000Y-79329000D01*
G75*
G02*
X140232000Y-79479000I0J-150000D01*
G01*
X140232000Y-79779000D01*
G75*
G02*
X140082000Y-79929000I-150000J0D01*
G01*
X138432000Y-79929000D01*
G75*
G02*
X138282000Y-79779000I0J150000D01*
G01*
G37*
G36*
G01*
X138282000Y-78509000D02*
X138282000Y-78209000D01*
G75*
G02*
X138432000Y-78059000I150000J0D01*
G01*
X140082000Y-78059000D01*
G75*
G02*
X140232000Y-78209000I0J-150000D01*
G01*
X140232000Y-78509000D01*
G75*
G02*
X140082000Y-78659000I-150000J0D01*
G01*
X138432000Y-78659000D01*
G75*
G02*
X138282000Y-78509000I0J150000D01*
G01*
G37*
%TD*%
%TO.C,U2*%
G36*
G01*
X139677000Y-116054000D02*
X139977000Y-116054000D01*
G75*
G02*
X140127000Y-116204000I0J-150000D01*
G01*
X140127000Y-117854000D01*
G75*
G02*
X139977000Y-118004000I-150000J0D01*
G01*
X139677000Y-118004000D01*
G75*
G02*
X139527000Y-117854000I0J150000D01*
G01*
X139527000Y-116204000D01*
G75*
G02*
X139677000Y-116054000I150000J0D01*
G01*
G37*
G36*
G01*
X138407000Y-116054000D02*
X138707000Y-116054000D01*
G75*
G02*
X138857000Y-116204000I0J-150000D01*
G01*
X138857000Y-117854000D01*
G75*
G02*
X138707000Y-118004000I-150000J0D01*
G01*
X138407000Y-118004000D01*
G75*
G02*
X138257000Y-117854000I0J150000D01*
G01*
X138257000Y-116204000D01*
G75*
G02*
X138407000Y-116054000I150000J0D01*
G01*
G37*
G36*
G01*
X137137000Y-116054000D02*
X137437000Y-116054000D01*
G75*
G02*
X137587000Y-116204000I0J-150000D01*
G01*
X137587000Y-117854000D01*
G75*
G02*
X137437000Y-118004000I-150000J0D01*
G01*
X137137000Y-118004000D01*
G75*
G02*
X136987000Y-117854000I0J150000D01*
G01*
X136987000Y-116204000D01*
G75*
G02*
X137137000Y-116054000I150000J0D01*
G01*
G37*
G36*
G01*
X135867000Y-116054000D02*
X136167000Y-116054000D01*
G75*
G02*
X136317000Y-116204000I0J-150000D01*
G01*
X136317000Y-117854000D01*
G75*
G02*
X136167000Y-118004000I-150000J0D01*
G01*
X135867000Y-118004000D01*
G75*
G02*
X135717000Y-117854000I0J150000D01*
G01*
X135717000Y-116204000D01*
G75*
G02*
X135867000Y-116054000I150000J0D01*
G01*
G37*
G36*
G01*
X134597000Y-116054000D02*
X134897000Y-116054000D01*
G75*
G02*
X135047000Y-116204000I0J-150000D01*
G01*
X135047000Y-117854000D01*
G75*
G02*
X134897000Y-118004000I-150000J0D01*
G01*
X134597000Y-118004000D01*
G75*
G02*
X134447000Y-117854000I0J150000D01*
G01*
X134447000Y-116204000D01*
G75*
G02*
X134597000Y-116054000I150000J0D01*
G01*
G37*
G36*
G01*
X133327000Y-116054000D02*
X133627000Y-116054000D01*
G75*
G02*
X133777000Y-116204000I0J-150000D01*
G01*
X133777000Y-117854000D01*
G75*
G02*
X133627000Y-118004000I-150000J0D01*
G01*
X133327000Y-118004000D01*
G75*
G02*
X133177000Y-117854000I0J150000D01*
G01*
X133177000Y-116204000D01*
G75*
G02*
X133327000Y-116054000I150000J0D01*
G01*
G37*
G36*
G01*
X132057000Y-116054000D02*
X132357000Y-116054000D01*
G75*
G02*
X132507000Y-116204000I0J-150000D01*
G01*
X132507000Y-117854000D01*
G75*
G02*
X132357000Y-118004000I-150000J0D01*
G01*
X132057000Y-118004000D01*
G75*
G02*
X131907000Y-117854000I0J150000D01*
G01*
X131907000Y-116204000D01*
G75*
G02*
X132057000Y-116054000I150000J0D01*
G01*
G37*
G36*
G01*
X130787000Y-116054000D02*
X131087000Y-116054000D01*
G75*
G02*
X131237000Y-116204000I0J-150000D01*
G01*
X131237000Y-117854000D01*
G75*
G02*
X131087000Y-118004000I-150000J0D01*
G01*
X130787000Y-118004000D01*
G75*
G02*
X130637000Y-117854000I0J150000D01*
G01*
X130637000Y-116204000D01*
G75*
G02*
X130787000Y-116054000I150000J0D01*
G01*
G37*
G36*
G01*
X130787000Y-111104000D02*
X131087000Y-111104000D01*
G75*
G02*
X131237000Y-111254000I0J-150000D01*
G01*
X131237000Y-112904000D01*
G75*
G02*
X131087000Y-113054000I-150000J0D01*
G01*
X130787000Y-113054000D01*
G75*
G02*
X130637000Y-112904000I0J150000D01*
G01*
X130637000Y-111254000D01*
G75*
G02*
X130787000Y-111104000I150000J0D01*
G01*
G37*
G36*
G01*
X132057000Y-111104000D02*
X132357000Y-111104000D01*
G75*
G02*
X132507000Y-111254000I0J-150000D01*
G01*
X132507000Y-112904000D01*
G75*
G02*
X132357000Y-113054000I-150000J0D01*
G01*
X132057000Y-113054000D01*
G75*
G02*
X131907000Y-112904000I0J150000D01*
G01*
X131907000Y-111254000D01*
G75*
G02*
X132057000Y-111104000I150000J0D01*
G01*
G37*
G36*
G01*
X133327000Y-111104000D02*
X133627000Y-111104000D01*
G75*
G02*
X133777000Y-111254000I0J-150000D01*
G01*
X133777000Y-112904000D01*
G75*
G02*
X133627000Y-113054000I-150000J0D01*
G01*
X133327000Y-113054000D01*
G75*
G02*
X133177000Y-112904000I0J150000D01*
G01*
X133177000Y-111254000D01*
G75*
G02*
X133327000Y-111104000I150000J0D01*
G01*
G37*
G36*
G01*
X134597000Y-111104000D02*
X134897000Y-111104000D01*
G75*
G02*
X135047000Y-111254000I0J-150000D01*
G01*
X135047000Y-112904000D01*
G75*
G02*
X134897000Y-113054000I-150000J0D01*
G01*
X134597000Y-113054000D01*
G75*
G02*
X134447000Y-112904000I0J150000D01*
G01*
X134447000Y-111254000D01*
G75*
G02*
X134597000Y-111104000I150000J0D01*
G01*
G37*
G36*
G01*
X135867000Y-111104000D02*
X136167000Y-111104000D01*
G75*
G02*
X136317000Y-111254000I0J-150000D01*
G01*
X136317000Y-112904000D01*
G75*
G02*
X136167000Y-113054000I-150000J0D01*
G01*
X135867000Y-113054000D01*
G75*
G02*
X135717000Y-112904000I0J150000D01*
G01*
X135717000Y-111254000D01*
G75*
G02*
X135867000Y-111104000I150000J0D01*
G01*
G37*
G36*
G01*
X137137000Y-111104000D02*
X137437000Y-111104000D01*
G75*
G02*
X137587000Y-111254000I0J-150000D01*
G01*
X137587000Y-112904000D01*
G75*
G02*
X137437000Y-113054000I-150000J0D01*
G01*
X137137000Y-113054000D01*
G75*
G02*
X136987000Y-112904000I0J150000D01*
G01*
X136987000Y-111254000D01*
G75*
G02*
X137137000Y-111104000I150000J0D01*
G01*
G37*
G36*
G01*
X138407000Y-111104000D02*
X138707000Y-111104000D01*
G75*
G02*
X138857000Y-111254000I0J-150000D01*
G01*
X138857000Y-112904000D01*
G75*
G02*
X138707000Y-113054000I-150000J0D01*
G01*
X138407000Y-113054000D01*
G75*
G02*
X138257000Y-112904000I0J150000D01*
G01*
X138257000Y-111254000D01*
G75*
G02*
X138407000Y-111104000I150000J0D01*
G01*
G37*
G36*
G01*
X139677000Y-111104000D02*
X139977000Y-111104000D01*
G75*
G02*
X140127000Y-111254000I0J-150000D01*
G01*
X140127000Y-112904000D01*
G75*
G02*
X139977000Y-113054000I-150000J0D01*
G01*
X139677000Y-113054000D01*
G75*
G02*
X139527000Y-112904000I0J150000D01*
G01*
X139527000Y-111254000D01*
G75*
G02*
X139677000Y-111104000I150000J0D01*
G01*
G37*
%TD*%
D19*
%TO.C,U1*%
X105632000Y-96774000D03*
X105632000Y-99314000D03*
D20*
X150622000Y-92964000D03*
X150622000Y-95504000D03*
X150622000Y-98044000D03*
X150622000Y-100584000D03*
X150622000Y-103124000D03*
D19*
X117872000Y-96862400D03*
X119872000Y-96862400D03*
X119872000Y-94862400D03*
X117872000Y-94862400D03*
X119872000Y-92862400D03*
D21*
X117872000Y-92862400D03*
D20*
X145542000Y-105664000D03*
X148082000Y-105664000D03*
X150622000Y-105664000D03*
X153162000Y-105664000D03*
X143002000Y-105664000D03*
X140462000Y-105664000D03*
X137922000Y-105664000D03*
X155702000Y-105664000D03*
X158242000Y-105664000D03*
X160782000Y-105664000D03*
X163322000Y-105664000D03*
X163322000Y-90424000D03*
X160782000Y-90424000D03*
X158242000Y-90424000D03*
X155702000Y-90424000D03*
X153162000Y-90424000D03*
X150622000Y-90424000D03*
X148082000Y-90424000D03*
X145542000Y-90424000D03*
X143002000Y-90424000D03*
X140462000Y-90424000D03*
X135382000Y-105664000D03*
X132842000Y-105664000D03*
X130302000Y-105664000D03*
X127762000Y-105664000D03*
X125222000Y-105664000D03*
X122682000Y-105664000D03*
X120142000Y-105664000D03*
X117602000Y-105664000D03*
X115062000Y-105664000D03*
X112522000Y-105664000D03*
X109982000Y-105664000D03*
X107442000Y-105664000D03*
D22*
X104902000Y-105664000D03*
D20*
X137922000Y-90424000D03*
X135382000Y-90424000D03*
X132842000Y-90424000D03*
X130302000Y-90424000D03*
X127762000Y-90424000D03*
X125222000Y-90424000D03*
X122682000Y-90424000D03*
X120142000Y-90424000D03*
X117602000Y-90424000D03*
X115062000Y-90424000D03*
X112522000Y-90424000D03*
X109982000Y-90424000D03*
X107442000Y-90424000D03*
X104902000Y-90424000D03*
D22*
X111201200Y-102613200D03*
D20*
X113741200Y-102613200D03*
X116281200Y-102613200D03*
X118821200Y-102613200D03*
X121361200Y-102613200D03*
X107442000Y-92964000D03*
%TD*%
%TO.C,R85*%
G36*
G01*
X183244500Y-91269000D02*
X182769500Y-91269000D01*
G75*
G02*
X182532000Y-91031500I0J237500D01*
G01*
X182532000Y-90531500D01*
G75*
G02*
X182769500Y-90294000I237500J0D01*
G01*
X183244500Y-90294000D01*
G75*
G02*
X183482000Y-90531500I0J-237500D01*
G01*
X183482000Y-91031500D01*
G75*
G02*
X183244500Y-91269000I-237500J0D01*
G01*
G37*
G36*
G01*
X183244500Y-93094000D02*
X182769500Y-93094000D01*
G75*
G02*
X182532000Y-92856500I0J237500D01*
G01*
X182532000Y-92356500D01*
G75*
G02*
X182769500Y-92119000I237500J0D01*
G01*
X183244500Y-92119000D01*
G75*
G02*
X183482000Y-92356500I0J-237500D01*
G01*
X183482000Y-92856500D01*
G75*
G02*
X183244500Y-93094000I-237500J0D01*
G01*
G37*
%TD*%
%TO.C,R84*%
G36*
G01*
X158452000Y-69866500D02*
X158452000Y-70341500D01*
G75*
G02*
X158214500Y-70579000I-237500J0D01*
G01*
X157714500Y-70579000D01*
G75*
G02*
X157477000Y-70341500I0J237500D01*
G01*
X157477000Y-69866500D01*
G75*
G02*
X157714500Y-69629000I237500J0D01*
G01*
X158214500Y-69629000D01*
G75*
G02*
X158452000Y-69866500I0J-237500D01*
G01*
G37*
G36*
G01*
X160277000Y-69866500D02*
X160277000Y-70341500D01*
G75*
G02*
X160039500Y-70579000I-237500J0D01*
G01*
X159539500Y-70579000D01*
G75*
G02*
X159302000Y-70341500I0J237500D01*
G01*
X159302000Y-69866500D01*
G75*
G02*
X159539500Y-69629000I237500J0D01*
G01*
X160039500Y-69629000D01*
G75*
G02*
X160277000Y-69866500I0J-237500D01*
G01*
G37*
%TD*%
%TO.C,R83*%
G36*
G01*
X195663000Y-69993500D02*
X195663000Y-70468500D01*
G75*
G02*
X195425500Y-70706000I-237500J0D01*
G01*
X194925500Y-70706000D01*
G75*
G02*
X194688000Y-70468500I0J237500D01*
G01*
X194688000Y-69993500D01*
G75*
G02*
X194925500Y-69756000I237500J0D01*
G01*
X195425500Y-69756000D01*
G75*
G02*
X195663000Y-69993500I0J-237500D01*
G01*
G37*
G36*
G01*
X197488000Y-69993500D02*
X197488000Y-70468500D01*
G75*
G02*
X197250500Y-70706000I-237500J0D01*
G01*
X196750500Y-70706000D01*
G75*
G02*
X196513000Y-70468500I0J237500D01*
G01*
X196513000Y-69993500D01*
G75*
G02*
X196750500Y-69756000I237500J0D01*
G01*
X197250500Y-69756000D01*
G75*
G02*
X197488000Y-69993500I0J-237500D01*
G01*
G37*
%TD*%
%TO.C,R82*%
G36*
G01*
X180069500Y-91269000D02*
X179594500Y-91269000D01*
G75*
G02*
X179357000Y-91031500I0J237500D01*
G01*
X179357000Y-90531500D01*
G75*
G02*
X179594500Y-90294000I237500J0D01*
G01*
X180069500Y-90294000D01*
G75*
G02*
X180307000Y-90531500I0J-237500D01*
G01*
X180307000Y-91031500D01*
G75*
G02*
X180069500Y-91269000I-237500J0D01*
G01*
G37*
G36*
G01*
X180069500Y-93094000D02*
X179594500Y-93094000D01*
G75*
G02*
X179357000Y-92856500I0J237500D01*
G01*
X179357000Y-92356500D01*
G75*
G02*
X179594500Y-92119000I237500J0D01*
G01*
X180069500Y-92119000D01*
G75*
G02*
X180307000Y-92356500I0J-237500D01*
G01*
X180307000Y-92856500D01*
G75*
G02*
X180069500Y-93094000I-237500J0D01*
G01*
G37*
%TD*%
%TO.C,R81*%
G36*
G01*
X163112000Y-70341500D02*
X163112000Y-69866500D01*
G75*
G02*
X163349500Y-69629000I237500J0D01*
G01*
X163849500Y-69629000D01*
G75*
G02*
X164087000Y-69866500I0J-237500D01*
G01*
X164087000Y-70341500D01*
G75*
G02*
X163849500Y-70579000I-237500J0D01*
G01*
X163349500Y-70579000D01*
G75*
G02*
X163112000Y-70341500I0J237500D01*
G01*
G37*
G36*
G01*
X161287000Y-70341500D02*
X161287000Y-69866500D01*
G75*
G02*
X161524500Y-69629000I237500J0D01*
G01*
X162024500Y-69629000D01*
G75*
G02*
X162262000Y-69866500I0J-237500D01*
G01*
X162262000Y-70341500D01*
G75*
G02*
X162024500Y-70579000I-237500J0D01*
G01*
X161524500Y-70579000D01*
G75*
G02*
X161287000Y-70341500I0J237500D01*
G01*
G37*
%TD*%
%TO.C,R80*%
G36*
G01*
X200069000Y-70468500D02*
X200069000Y-69993500D01*
G75*
G02*
X200306500Y-69756000I237500J0D01*
G01*
X200806500Y-69756000D01*
G75*
G02*
X201044000Y-69993500I0J-237500D01*
G01*
X201044000Y-70468500D01*
G75*
G02*
X200806500Y-70706000I-237500J0D01*
G01*
X200306500Y-70706000D01*
G75*
G02*
X200069000Y-70468500I0J237500D01*
G01*
G37*
G36*
G01*
X198244000Y-70468500D02*
X198244000Y-69993500D01*
G75*
G02*
X198481500Y-69756000I237500J0D01*
G01*
X198981500Y-69756000D01*
G75*
G02*
X199219000Y-69993500I0J-237500D01*
G01*
X199219000Y-70468500D01*
G75*
G02*
X198981500Y-70706000I-237500J0D01*
G01*
X198481500Y-70706000D01*
G75*
G02*
X198244000Y-70468500I0J237500D01*
G01*
G37*
%TD*%
%TO.C,R79*%
G36*
G01*
X199754500Y-91269000D02*
X199279500Y-91269000D01*
G75*
G02*
X199042000Y-91031500I0J237500D01*
G01*
X199042000Y-90531500D01*
G75*
G02*
X199279500Y-90294000I237500J0D01*
G01*
X199754500Y-90294000D01*
G75*
G02*
X199992000Y-90531500I0J-237500D01*
G01*
X199992000Y-91031500D01*
G75*
G02*
X199754500Y-91269000I-237500J0D01*
G01*
G37*
G36*
G01*
X199754500Y-93094000D02*
X199279500Y-93094000D01*
G75*
G02*
X199042000Y-92856500I0J237500D01*
G01*
X199042000Y-92356500D01*
G75*
G02*
X199279500Y-92119000I237500J0D01*
G01*
X199754500Y-92119000D01*
G75*
G02*
X199992000Y-92356500I0J-237500D01*
G01*
X199992000Y-92856500D01*
G75*
G02*
X199754500Y-93094000I-237500J0D01*
G01*
G37*
%TD*%
%TO.C,R78*%
G36*
G01*
X176740000Y-70374500D02*
X176740000Y-70849500D01*
G75*
G02*
X176502500Y-71087000I-237500J0D01*
G01*
X176002500Y-71087000D01*
G75*
G02*
X175765000Y-70849500I0J237500D01*
G01*
X175765000Y-70374500D01*
G75*
G02*
X176002500Y-70137000I237500J0D01*
G01*
X176502500Y-70137000D01*
G75*
G02*
X176740000Y-70374500I0J-237500D01*
G01*
G37*
G36*
G01*
X178565000Y-70374500D02*
X178565000Y-70849500D01*
G75*
G02*
X178327500Y-71087000I-237500J0D01*
G01*
X177827500Y-71087000D01*
G75*
G02*
X177590000Y-70849500I0J237500D01*
G01*
X177590000Y-70374500D01*
G75*
G02*
X177827500Y-70137000I237500J0D01*
G01*
X178327500Y-70137000D01*
G75*
G02*
X178565000Y-70374500I0J-237500D01*
G01*
G37*
%TD*%
%TO.C,R76*%
G36*
G01*
X196579500Y-91269000D02*
X196104500Y-91269000D01*
G75*
G02*
X195867000Y-91031500I0J237500D01*
G01*
X195867000Y-90531500D01*
G75*
G02*
X196104500Y-90294000I237500J0D01*
G01*
X196579500Y-90294000D01*
G75*
G02*
X196817000Y-90531500I0J-237500D01*
G01*
X196817000Y-91031500D01*
G75*
G02*
X196579500Y-91269000I-237500J0D01*
G01*
G37*
G36*
G01*
X196579500Y-93094000D02*
X196104500Y-93094000D01*
G75*
G02*
X195867000Y-92856500I0J237500D01*
G01*
X195867000Y-92356500D01*
G75*
G02*
X196104500Y-92119000I237500J0D01*
G01*
X196579500Y-92119000D01*
G75*
G02*
X196817000Y-92356500I0J-237500D01*
G01*
X196817000Y-92856500D01*
G75*
G02*
X196579500Y-93094000I-237500J0D01*
G01*
G37*
%TD*%
%TO.C,R75*%
G36*
G01*
X181400000Y-70849500D02*
X181400000Y-70374500D01*
G75*
G02*
X181637500Y-70137000I237500J0D01*
G01*
X182137500Y-70137000D01*
G75*
G02*
X182375000Y-70374500I0J-237500D01*
G01*
X182375000Y-70849500D01*
G75*
G02*
X182137500Y-71087000I-237500J0D01*
G01*
X181637500Y-71087000D01*
G75*
G02*
X181400000Y-70849500I0J237500D01*
G01*
G37*
G36*
G01*
X179575000Y-70849500D02*
X179575000Y-70374500D01*
G75*
G02*
X179812500Y-70137000I237500J0D01*
G01*
X180312500Y-70137000D01*
G75*
G02*
X180550000Y-70374500I0J-237500D01*
G01*
X180550000Y-70849500D01*
G75*
G02*
X180312500Y-71087000I-237500J0D01*
G01*
X179812500Y-71087000D01*
G75*
G02*
X179575000Y-70849500I0J237500D01*
G01*
G37*
%TD*%
%TO.C,R73*%
G36*
G01*
X185944500Y-108629000D02*
X186419500Y-108629000D01*
G75*
G02*
X186657000Y-108866500I0J-237500D01*
G01*
X186657000Y-109366500D01*
G75*
G02*
X186419500Y-109604000I-237500J0D01*
G01*
X185944500Y-109604000D01*
G75*
G02*
X185707000Y-109366500I0J237500D01*
G01*
X185707000Y-108866500D01*
G75*
G02*
X185944500Y-108629000I237500J0D01*
G01*
G37*
G36*
G01*
X185944500Y-106804000D02*
X186419500Y-106804000D01*
G75*
G02*
X186657000Y-107041500I0J-237500D01*
G01*
X186657000Y-107541500D01*
G75*
G02*
X186419500Y-107779000I-237500J0D01*
G01*
X185944500Y-107779000D01*
G75*
G02*
X185707000Y-107541500I0J237500D01*
G01*
X185707000Y-107041500D01*
G75*
G02*
X185944500Y-106804000I237500J0D01*
G01*
G37*
%TD*%
%TO.C,R72*%
G36*
G01*
X218964500Y-108629000D02*
X219439500Y-108629000D01*
G75*
G02*
X219677000Y-108866500I0J-237500D01*
G01*
X219677000Y-109366500D01*
G75*
G02*
X219439500Y-109604000I-237500J0D01*
G01*
X218964500Y-109604000D01*
G75*
G02*
X218727000Y-109366500I0J237500D01*
G01*
X218727000Y-108866500D01*
G75*
G02*
X218964500Y-108629000I237500J0D01*
G01*
G37*
G36*
G01*
X218964500Y-106804000D02*
X219439500Y-106804000D01*
G75*
G02*
X219677000Y-107041500I0J-237500D01*
G01*
X219677000Y-107541500D01*
G75*
G02*
X219439500Y-107779000I-237500J0D01*
G01*
X218964500Y-107779000D01*
G75*
G02*
X218727000Y-107541500I0J237500D01*
G01*
X218727000Y-107041500D01*
G75*
G02*
X218964500Y-106804000I237500J0D01*
G01*
G37*
%TD*%
%TO.C,R71*%
G36*
G01*
X216264500Y-91269000D02*
X215789500Y-91269000D01*
G75*
G02*
X215552000Y-91031500I0J237500D01*
G01*
X215552000Y-90531500D01*
G75*
G02*
X215789500Y-90294000I237500J0D01*
G01*
X216264500Y-90294000D01*
G75*
G02*
X216502000Y-90531500I0J-237500D01*
G01*
X216502000Y-91031500D01*
G75*
G02*
X216264500Y-91269000I-237500J0D01*
G01*
G37*
G36*
G01*
X216264500Y-93094000D02*
X215789500Y-93094000D01*
G75*
G02*
X215552000Y-92856500I0J237500D01*
G01*
X215552000Y-92356500D01*
G75*
G02*
X215789500Y-92119000I237500J0D01*
G01*
X216264500Y-92119000D01*
G75*
G02*
X216502000Y-92356500I0J-237500D01*
G01*
X216502000Y-92856500D01*
G75*
G02*
X216264500Y-93094000I-237500J0D01*
G01*
G37*
%TD*%
%TO.C,R70*%
G36*
G01*
X183404500Y-108629000D02*
X183879500Y-108629000D01*
G75*
G02*
X184117000Y-108866500I0J-237500D01*
G01*
X184117000Y-109366500D01*
G75*
G02*
X183879500Y-109604000I-237500J0D01*
G01*
X183404500Y-109604000D01*
G75*
G02*
X183167000Y-109366500I0J237500D01*
G01*
X183167000Y-108866500D01*
G75*
G02*
X183404500Y-108629000I237500J0D01*
G01*
G37*
G36*
G01*
X183404500Y-106804000D02*
X183879500Y-106804000D01*
G75*
G02*
X184117000Y-107041500I0J-237500D01*
G01*
X184117000Y-107541500D01*
G75*
G02*
X183879500Y-107779000I-237500J0D01*
G01*
X183404500Y-107779000D01*
G75*
G02*
X183167000Y-107541500I0J237500D01*
G01*
X183167000Y-107041500D01*
G75*
G02*
X183404500Y-106804000I237500J0D01*
G01*
G37*
%TD*%
D23*
%TO.C,R65*%
X115697000Y-123704000D03*
X116967000Y-123704000D03*
X118237000Y-123704000D03*
X119507000Y-123704000D03*
X120777000Y-123704000D03*
X122047000Y-123704000D03*
X123317000Y-123704000D03*
X124587000Y-123704000D03*
X124587000Y-130804000D03*
X123317000Y-130804000D03*
X122047000Y-130804000D03*
X120777000Y-130804000D03*
X119507000Y-130804000D03*
X118237000Y-130804000D03*
X116967000Y-130804000D03*
X115697000Y-130804000D03*
%TD*%
%TO.C,R63*%
G36*
G01*
X227059500Y-139529000D02*
X226584500Y-139529000D01*
G75*
G02*
X226347000Y-139291500I0J237500D01*
G01*
X226347000Y-138791500D01*
G75*
G02*
X226584500Y-138554000I237500J0D01*
G01*
X227059500Y-138554000D01*
G75*
G02*
X227297000Y-138791500I0J-237500D01*
G01*
X227297000Y-139291500D01*
G75*
G02*
X227059500Y-139529000I-237500J0D01*
G01*
G37*
G36*
G01*
X227059500Y-141354000D02*
X226584500Y-141354000D01*
G75*
G02*
X226347000Y-141116500I0J237500D01*
G01*
X226347000Y-140616500D01*
G75*
G02*
X226584500Y-140379000I237500J0D01*
G01*
X227059500Y-140379000D01*
G75*
G02*
X227297000Y-140616500I0J-237500D01*
G01*
X227297000Y-141116500D01*
G75*
G02*
X227059500Y-141354000I-237500J0D01*
G01*
G37*
%TD*%
%TO.C,R62*%
G36*
G01*
X227059500Y-134449000D02*
X226584500Y-134449000D01*
G75*
G02*
X226347000Y-134211500I0J237500D01*
G01*
X226347000Y-133711500D01*
G75*
G02*
X226584500Y-133474000I237500J0D01*
G01*
X227059500Y-133474000D01*
G75*
G02*
X227297000Y-133711500I0J-237500D01*
G01*
X227297000Y-134211500D01*
G75*
G02*
X227059500Y-134449000I-237500J0D01*
G01*
G37*
G36*
G01*
X227059500Y-136274000D02*
X226584500Y-136274000D01*
G75*
G02*
X226347000Y-136036500I0J237500D01*
G01*
X226347000Y-135536500D01*
G75*
G02*
X226584500Y-135299000I237500J0D01*
G01*
X227059500Y-135299000D01*
G75*
G02*
X227297000Y-135536500I0J-237500D01*
G01*
X227297000Y-136036500D01*
G75*
G02*
X227059500Y-136274000I-237500J0D01*
G01*
G37*
%TD*%
%TO.C,R61*%
G36*
G01*
X229599500Y-134369000D02*
X229124500Y-134369000D01*
G75*
G02*
X228887000Y-134131500I0J237500D01*
G01*
X228887000Y-133631500D01*
G75*
G02*
X229124500Y-133394000I237500J0D01*
G01*
X229599500Y-133394000D01*
G75*
G02*
X229837000Y-133631500I0J-237500D01*
G01*
X229837000Y-134131500D01*
G75*
G02*
X229599500Y-134369000I-237500J0D01*
G01*
G37*
G36*
G01*
X229599500Y-136194000D02*
X229124500Y-136194000D01*
G75*
G02*
X228887000Y-135956500I0J237500D01*
G01*
X228887000Y-135456500D01*
G75*
G02*
X229124500Y-135219000I237500J0D01*
G01*
X229599500Y-135219000D01*
G75*
G02*
X229837000Y-135456500I0J-237500D01*
G01*
X229837000Y-135956500D01*
G75*
G02*
X229599500Y-136194000I-237500J0D01*
G01*
G37*
%TD*%
%TO.C,R60*%
G36*
G01*
X229124500Y-140379000D02*
X229599500Y-140379000D01*
G75*
G02*
X229837000Y-140616500I0J-237500D01*
G01*
X229837000Y-141116500D01*
G75*
G02*
X229599500Y-141354000I-237500J0D01*
G01*
X229124500Y-141354000D01*
G75*
G02*
X228887000Y-141116500I0J237500D01*
G01*
X228887000Y-140616500D01*
G75*
G02*
X229124500Y-140379000I237500J0D01*
G01*
G37*
G36*
G01*
X229124500Y-138554000D02*
X229599500Y-138554000D01*
G75*
G02*
X229837000Y-138791500I0J-237500D01*
G01*
X229837000Y-139291500D01*
G75*
G02*
X229599500Y-139529000I-237500J0D01*
G01*
X229124500Y-139529000D01*
G75*
G02*
X228887000Y-139291500I0J237500D01*
G01*
X228887000Y-138791500D01*
G75*
G02*
X229124500Y-138554000I237500J0D01*
G01*
G37*
%TD*%
%TO.C,R59*%
G36*
G01*
X232139500Y-139529000D02*
X231664500Y-139529000D01*
G75*
G02*
X231427000Y-139291500I0J237500D01*
G01*
X231427000Y-138791500D01*
G75*
G02*
X231664500Y-138554000I237500J0D01*
G01*
X232139500Y-138554000D01*
G75*
G02*
X232377000Y-138791500I0J-237500D01*
G01*
X232377000Y-139291500D01*
G75*
G02*
X232139500Y-139529000I-237500J0D01*
G01*
G37*
G36*
G01*
X232139500Y-141354000D02*
X231664500Y-141354000D01*
G75*
G02*
X231427000Y-141116500I0J237500D01*
G01*
X231427000Y-140616500D01*
G75*
G02*
X231664500Y-140379000I237500J0D01*
G01*
X232139500Y-140379000D01*
G75*
G02*
X232377000Y-140616500I0J-237500D01*
G01*
X232377000Y-141116500D01*
G75*
G02*
X232139500Y-141354000I-237500J0D01*
G01*
G37*
%TD*%
%TO.C,R58*%
G36*
G01*
X232139500Y-134449000D02*
X231664500Y-134449000D01*
G75*
G02*
X231427000Y-134211500I0J237500D01*
G01*
X231427000Y-133711500D01*
G75*
G02*
X231664500Y-133474000I237500J0D01*
G01*
X232139500Y-133474000D01*
G75*
G02*
X232377000Y-133711500I0J-237500D01*
G01*
X232377000Y-134211500D01*
G75*
G02*
X232139500Y-134449000I-237500J0D01*
G01*
G37*
G36*
G01*
X232139500Y-136274000D02*
X231664500Y-136274000D01*
G75*
G02*
X231427000Y-136036500I0J237500D01*
G01*
X231427000Y-135536500D01*
G75*
G02*
X231664500Y-135299000I237500J0D01*
G01*
X232139500Y-135299000D01*
G75*
G02*
X232377000Y-135536500I0J-237500D01*
G01*
X232377000Y-136036500D01*
G75*
G02*
X232139500Y-136274000I-237500J0D01*
G01*
G37*
%TD*%
%TO.C,R57*%
G36*
G01*
X234679500Y-134449000D02*
X234204500Y-134449000D01*
G75*
G02*
X233967000Y-134211500I0J237500D01*
G01*
X233967000Y-133711500D01*
G75*
G02*
X234204500Y-133474000I237500J0D01*
G01*
X234679500Y-133474000D01*
G75*
G02*
X234917000Y-133711500I0J-237500D01*
G01*
X234917000Y-134211500D01*
G75*
G02*
X234679500Y-134449000I-237500J0D01*
G01*
G37*
G36*
G01*
X234679500Y-136274000D02*
X234204500Y-136274000D01*
G75*
G02*
X233967000Y-136036500I0J237500D01*
G01*
X233967000Y-135536500D01*
G75*
G02*
X234204500Y-135299000I237500J0D01*
G01*
X234679500Y-135299000D01*
G75*
G02*
X234917000Y-135536500I0J-237500D01*
G01*
X234917000Y-136036500D01*
G75*
G02*
X234679500Y-136274000I-237500J0D01*
G01*
G37*
%TD*%
%TO.C,R56*%
G36*
G01*
X234204500Y-140379000D02*
X234679500Y-140379000D01*
G75*
G02*
X234917000Y-140616500I0J-237500D01*
G01*
X234917000Y-141116500D01*
G75*
G02*
X234679500Y-141354000I-237500J0D01*
G01*
X234204500Y-141354000D01*
G75*
G02*
X233967000Y-141116500I0J237500D01*
G01*
X233967000Y-140616500D01*
G75*
G02*
X234204500Y-140379000I237500J0D01*
G01*
G37*
G36*
G01*
X234204500Y-138554000D02*
X234679500Y-138554000D01*
G75*
G02*
X234917000Y-138791500I0J-237500D01*
G01*
X234917000Y-139291500D01*
G75*
G02*
X234679500Y-139529000I-237500J0D01*
G01*
X234204500Y-139529000D01*
G75*
G02*
X233967000Y-139291500I0J237500D01*
G01*
X233967000Y-138791500D01*
G75*
G02*
X234204500Y-138554000I237500J0D01*
G01*
G37*
%TD*%
%TO.C,R55*%
G36*
G01*
X210549500Y-139529000D02*
X210074500Y-139529000D01*
G75*
G02*
X209837000Y-139291500I0J237500D01*
G01*
X209837000Y-138791500D01*
G75*
G02*
X210074500Y-138554000I237500J0D01*
G01*
X210549500Y-138554000D01*
G75*
G02*
X210787000Y-138791500I0J-237500D01*
G01*
X210787000Y-139291500D01*
G75*
G02*
X210549500Y-139529000I-237500J0D01*
G01*
G37*
G36*
G01*
X210549500Y-141354000D02*
X210074500Y-141354000D01*
G75*
G02*
X209837000Y-141116500I0J237500D01*
G01*
X209837000Y-140616500D01*
G75*
G02*
X210074500Y-140379000I237500J0D01*
G01*
X210549500Y-140379000D01*
G75*
G02*
X210787000Y-140616500I0J-237500D01*
G01*
X210787000Y-141116500D01*
G75*
G02*
X210549500Y-141354000I-237500J0D01*
G01*
G37*
%TD*%
%TO.C,R54*%
G36*
G01*
X210549500Y-134449000D02*
X210074500Y-134449000D01*
G75*
G02*
X209837000Y-134211500I0J237500D01*
G01*
X209837000Y-133711500D01*
G75*
G02*
X210074500Y-133474000I237500J0D01*
G01*
X210549500Y-133474000D01*
G75*
G02*
X210787000Y-133711500I0J-237500D01*
G01*
X210787000Y-134211500D01*
G75*
G02*
X210549500Y-134449000I-237500J0D01*
G01*
G37*
G36*
G01*
X210549500Y-136274000D02*
X210074500Y-136274000D01*
G75*
G02*
X209837000Y-136036500I0J237500D01*
G01*
X209837000Y-135536500D01*
G75*
G02*
X210074500Y-135299000I237500J0D01*
G01*
X210549500Y-135299000D01*
G75*
G02*
X210787000Y-135536500I0J-237500D01*
G01*
X210787000Y-136036500D01*
G75*
G02*
X210549500Y-136274000I-237500J0D01*
G01*
G37*
%TD*%
%TO.C,R53*%
G36*
G01*
X195309500Y-139529000D02*
X194834500Y-139529000D01*
G75*
G02*
X194597000Y-139291500I0J237500D01*
G01*
X194597000Y-138791500D01*
G75*
G02*
X194834500Y-138554000I237500J0D01*
G01*
X195309500Y-138554000D01*
G75*
G02*
X195547000Y-138791500I0J-237500D01*
G01*
X195547000Y-139291500D01*
G75*
G02*
X195309500Y-139529000I-237500J0D01*
G01*
G37*
G36*
G01*
X195309500Y-141354000D02*
X194834500Y-141354000D01*
G75*
G02*
X194597000Y-141116500I0J237500D01*
G01*
X194597000Y-140616500D01*
G75*
G02*
X194834500Y-140379000I237500J0D01*
G01*
X195309500Y-140379000D01*
G75*
G02*
X195547000Y-140616500I0J-237500D01*
G01*
X195547000Y-141116500D01*
G75*
G02*
X195309500Y-141354000I-237500J0D01*
G01*
G37*
%TD*%
%TO.C,R52*%
G36*
G01*
X213089500Y-134449000D02*
X212614500Y-134449000D01*
G75*
G02*
X212377000Y-134211500I0J237500D01*
G01*
X212377000Y-133711500D01*
G75*
G02*
X212614500Y-133474000I237500J0D01*
G01*
X213089500Y-133474000D01*
G75*
G02*
X213327000Y-133711500I0J-237500D01*
G01*
X213327000Y-134211500D01*
G75*
G02*
X213089500Y-134449000I-237500J0D01*
G01*
G37*
G36*
G01*
X213089500Y-136274000D02*
X212614500Y-136274000D01*
G75*
G02*
X212377000Y-136036500I0J237500D01*
G01*
X212377000Y-135536500D01*
G75*
G02*
X212614500Y-135299000I237500J0D01*
G01*
X213089500Y-135299000D01*
G75*
G02*
X213327000Y-135536500I0J-237500D01*
G01*
X213327000Y-136036500D01*
G75*
G02*
X213089500Y-136274000I-237500J0D01*
G01*
G37*
%TD*%
%TO.C,R51*%
G36*
G01*
X195309500Y-134449000D02*
X194834500Y-134449000D01*
G75*
G02*
X194597000Y-134211500I0J237500D01*
G01*
X194597000Y-133711500D01*
G75*
G02*
X194834500Y-133474000I237500J0D01*
G01*
X195309500Y-133474000D01*
G75*
G02*
X195547000Y-133711500I0J-237500D01*
G01*
X195547000Y-134211500D01*
G75*
G02*
X195309500Y-134449000I-237500J0D01*
G01*
G37*
G36*
G01*
X195309500Y-136274000D02*
X194834500Y-136274000D01*
G75*
G02*
X194597000Y-136036500I0J237500D01*
G01*
X194597000Y-135536500D01*
G75*
G02*
X194834500Y-135299000I237500J0D01*
G01*
X195309500Y-135299000D01*
G75*
G02*
X195547000Y-135536500I0J-237500D01*
G01*
X195547000Y-136036500D01*
G75*
G02*
X195309500Y-136274000I-237500J0D01*
G01*
G37*
%TD*%
%TO.C,R50*%
G36*
G01*
X212614500Y-140379000D02*
X213089500Y-140379000D01*
G75*
G02*
X213327000Y-140616500I0J-237500D01*
G01*
X213327000Y-141116500D01*
G75*
G02*
X213089500Y-141354000I-237500J0D01*
G01*
X212614500Y-141354000D01*
G75*
G02*
X212377000Y-141116500I0J237500D01*
G01*
X212377000Y-140616500D01*
G75*
G02*
X212614500Y-140379000I237500J0D01*
G01*
G37*
G36*
G01*
X212614500Y-138554000D02*
X213089500Y-138554000D01*
G75*
G02*
X213327000Y-138791500I0J-237500D01*
G01*
X213327000Y-139291500D01*
G75*
G02*
X213089500Y-139529000I-237500J0D01*
G01*
X212614500Y-139529000D01*
G75*
G02*
X212377000Y-139291500I0J237500D01*
G01*
X212377000Y-138791500D01*
G75*
G02*
X212614500Y-138554000I237500J0D01*
G01*
G37*
%TD*%
%TO.C,R49*%
G36*
G01*
X197849500Y-134449000D02*
X197374500Y-134449000D01*
G75*
G02*
X197137000Y-134211500I0J237500D01*
G01*
X197137000Y-133711500D01*
G75*
G02*
X197374500Y-133474000I237500J0D01*
G01*
X197849500Y-133474000D01*
G75*
G02*
X198087000Y-133711500I0J-237500D01*
G01*
X198087000Y-134211500D01*
G75*
G02*
X197849500Y-134449000I-237500J0D01*
G01*
G37*
G36*
G01*
X197849500Y-136274000D02*
X197374500Y-136274000D01*
G75*
G02*
X197137000Y-136036500I0J237500D01*
G01*
X197137000Y-135536500D01*
G75*
G02*
X197374500Y-135299000I237500J0D01*
G01*
X197849500Y-135299000D01*
G75*
G02*
X198087000Y-135536500I0J-237500D01*
G01*
X198087000Y-136036500D01*
G75*
G02*
X197849500Y-136274000I-237500J0D01*
G01*
G37*
%TD*%
%TO.C,R48*%
G36*
G01*
X197374500Y-140379000D02*
X197849500Y-140379000D01*
G75*
G02*
X198087000Y-140616500I0J-237500D01*
G01*
X198087000Y-141116500D01*
G75*
G02*
X197849500Y-141354000I-237500J0D01*
G01*
X197374500Y-141354000D01*
G75*
G02*
X197137000Y-141116500I0J237500D01*
G01*
X197137000Y-140616500D01*
G75*
G02*
X197374500Y-140379000I237500J0D01*
G01*
G37*
G36*
G01*
X197374500Y-138554000D02*
X197849500Y-138554000D01*
G75*
G02*
X198087000Y-138791500I0J-237500D01*
G01*
X198087000Y-139291500D01*
G75*
G02*
X197849500Y-139529000I-237500J0D01*
G01*
X197374500Y-139529000D01*
G75*
G02*
X197137000Y-139291500I0J237500D01*
G01*
X197137000Y-138791500D01*
G75*
G02*
X197374500Y-138554000I237500J0D01*
G01*
G37*
%TD*%
%TO.C,R47*%
G36*
G01*
X215629500Y-139529000D02*
X215154500Y-139529000D01*
G75*
G02*
X214917000Y-139291500I0J237500D01*
G01*
X214917000Y-138791500D01*
G75*
G02*
X215154500Y-138554000I237500J0D01*
G01*
X215629500Y-138554000D01*
G75*
G02*
X215867000Y-138791500I0J-237500D01*
G01*
X215867000Y-139291500D01*
G75*
G02*
X215629500Y-139529000I-237500J0D01*
G01*
G37*
G36*
G01*
X215629500Y-141354000D02*
X215154500Y-141354000D01*
G75*
G02*
X214917000Y-141116500I0J237500D01*
G01*
X214917000Y-140616500D01*
G75*
G02*
X215154500Y-140379000I237500J0D01*
G01*
X215629500Y-140379000D01*
G75*
G02*
X215867000Y-140616500I0J-237500D01*
G01*
X215867000Y-141116500D01*
G75*
G02*
X215629500Y-141354000I-237500J0D01*
G01*
G37*
%TD*%
%TO.C,R46*%
G36*
G01*
X215629500Y-134449000D02*
X215154500Y-134449000D01*
G75*
G02*
X214917000Y-134211500I0J237500D01*
G01*
X214917000Y-133711500D01*
G75*
G02*
X215154500Y-133474000I237500J0D01*
G01*
X215629500Y-133474000D01*
G75*
G02*
X215867000Y-133711500I0J-237500D01*
G01*
X215867000Y-134211500D01*
G75*
G02*
X215629500Y-134449000I-237500J0D01*
G01*
G37*
G36*
G01*
X215629500Y-136274000D02*
X215154500Y-136274000D01*
G75*
G02*
X214917000Y-136036500I0J237500D01*
G01*
X214917000Y-135536500D01*
G75*
G02*
X215154500Y-135299000I237500J0D01*
G01*
X215629500Y-135299000D01*
G75*
G02*
X215867000Y-135536500I0J-237500D01*
G01*
X215867000Y-136036500D01*
G75*
G02*
X215629500Y-136274000I-237500J0D01*
G01*
G37*
%TD*%
%TO.C,R45*%
G36*
G01*
X200389500Y-139529000D02*
X199914500Y-139529000D01*
G75*
G02*
X199677000Y-139291500I0J237500D01*
G01*
X199677000Y-138791500D01*
G75*
G02*
X199914500Y-138554000I237500J0D01*
G01*
X200389500Y-138554000D01*
G75*
G02*
X200627000Y-138791500I0J-237500D01*
G01*
X200627000Y-139291500D01*
G75*
G02*
X200389500Y-139529000I-237500J0D01*
G01*
G37*
G36*
G01*
X200389500Y-141354000D02*
X199914500Y-141354000D01*
G75*
G02*
X199677000Y-141116500I0J237500D01*
G01*
X199677000Y-140616500D01*
G75*
G02*
X199914500Y-140379000I237500J0D01*
G01*
X200389500Y-140379000D01*
G75*
G02*
X200627000Y-140616500I0J-237500D01*
G01*
X200627000Y-141116500D01*
G75*
G02*
X200389500Y-141354000I-237500J0D01*
G01*
G37*
%TD*%
%TO.C,R44*%
G36*
G01*
X218169500Y-134449000D02*
X217694500Y-134449000D01*
G75*
G02*
X217457000Y-134211500I0J237500D01*
G01*
X217457000Y-133711500D01*
G75*
G02*
X217694500Y-133474000I237500J0D01*
G01*
X218169500Y-133474000D01*
G75*
G02*
X218407000Y-133711500I0J-237500D01*
G01*
X218407000Y-134211500D01*
G75*
G02*
X218169500Y-134449000I-237500J0D01*
G01*
G37*
G36*
G01*
X218169500Y-136274000D02*
X217694500Y-136274000D01*
G75*
G02*
X217457000Y-136036500I0J237500D01*
G01*
X217457000Y-135536500D01*
G75*
G02*
X217694500Y-135299000I237500J0D01*
G01*
X218169500Y-135299000D01*
G75*
G02*
X218407000Y-135536500I0J-237500D01*
G01*
X218407000Y-136036500D01*
G75*
G02*
X218169500Y-136274000I-237500J0D01*
G01*
G37*
%TD*%
%TO.C,R43*%
G36*
G01*
X200389500Y-134449000D02*
X199914500Y-134449000D01*
G75*
G02*
X199677000Y-134211500I0J237500D01*
G01*
X199677000Y-133711500D01*
G75*
G02*
X199914500Y-133474000I237500J0D01*
G01*
X200389500Y-133474000D01*
G75*
G02*
X200627000Y-133711500I0J-237500D01*
G01*
X200627000Y-134211500D01*
G75*
G02*
X200389500Y-134449000I-237500J0D01*
G01*
G37*
G36*
G01*
X200389500Y-136274000D02*
X199914500Y-136274000D01*
G75*
G02*
X199677000Y-136036500I0J237500D01*
G01*
X199677000Y-135536500D01*
G75*
G02*
X199914500Y-135299000I237500J0D01*
G01*
X200389500Y-135299000D01*
G75*
G02*
X200627000Y-135536500I0J-237500D01*
G01*
X200627000Y-136036500D01*
G75*
G02*
X200389500Y-136274000I-237500J0D01*
G01*
G37*
%TD*%
%TO.C,R42*%
G36*
G01*
X217694500Y-140379000D02*
X218169500Y-140379000D01*
G75*
G02*
X218407000Y-140616500I0J-237500D01*
G01*
X218407000Y-141116500D01*
G75*
G02*
X218169500Y-141354000I-237500J0D01*
G01*
X217694500Y-141354000D01*
G75*
G02*
X217457000Y-141116500I0J237500D01*
G01*
X217457000Y-140616500D01*
G75*
G02*
X217694500Y-140379000I237500J0D01*
G01*
G37*
G36*
G01*
X217694500Y-138554000D02*
X218169500Y-138554000D01*
G75*
G02*
X218407000Y-138791500I0J-237500D01*
G01*
X218407000Y-139291500D01*
G75*
G02*
X218169500Y-139529000I-237500J0D01*
G01*
X217694500Y-139529000D01*
G75*
G02*
X217457000Y-139291500I0J237500D01*
G01*
X217457000Y-138791500D01*
G75*
G02*
X217694500Y-138554000I237500J0D01*
G01*
G37*
%TD*%
%TO.C,R41*%
G36*
G01*
X202929500Y-134449000D02*
X202454500Y-134449000D01*
G75*
G02*
X202217000Y-134211500I0J237500D01*
G01*
X202217000Y-133711500D01*
G75*
G02*
X202454500Y-133474000I237500J0D01*
G01*
X202929500Y-133474000D01*
G75*
G02*
X203167000Y-133711500I0J-237500D01*
G01*
X203167000Y-134211500D01*
G75*
G02*
X202929500Y-134449000I-237500J0D01*
G01*
G37*
G36*
G01*
X202929500Y-136274000D02*
X202454500Y-136274000D01*
G75*
G02*
X202217000Y-136036500I0J237500D01*
G01*
X202217000Y-135536500D01*
G75*
G02*
X202454500Y-135299000I237500J0D01*
G01*
X202929500Y-135299000D01*
G75*
G02*
X203167000Y-135536500I0J-237500D01*
G01*
X203167000Y-136036500D01*
G75*
G02*
X202929500Y-136274000I-237500J0D01*
G01*
G37*
%TD*%
%TO.C,R40*%
G36*
G01*
X202454500Y-140379000D02*
X202929500Y-140379000D01*
G75*
G02*
X203167000Y-140616500I0J-237500D01*
G01*
X203167000Y-141116500D01*
G75*
G02*
X202929500Y-141354000I-237500J0D01*
G01*
X202454500Y-141354000D01*
G75*
G02*
X202217000Y-141116500I0J237500D01*
G01*
X202217000Y-140616500D01*
G75*
G02*
X202454500Y-140379000I237500J0D01*
G01*
G37*
G36*
G01*
X202454500Y-138554000D02*
X202929500Y-138554000D01*
G75*
G02*
X203167000Y-138791500I0J-237500D01*
G01*
X203167000Y-139291500D01*
G75*
G02*
X202929500Y-139529000I-237500J0D01*
G01*
X202454500Y-139529000D01*
G75*
G02*
X202217000Y-139291500I0J237500D01*
G01*
X202217000Y-138791500D01*
G75*
G02*
X202454500Y-138554000I237500J0D01*
G01*
G37*
%TD*%
%TO.C,R39*%
G36*
G01*
X180069500Y-139529000D02*
X179594500Y-139529000D01*
G75*
G02*
X179357000Y-139291500I0J237500D01*
G01*
X179357000Y-138791500D01*
G75*
G02*
X179594500Y-138554000I237500J0D01*
G01*
X180069500Y-138554000D01*
G75*
G02*
X180307000Y-138791500I0J-237500D01*
G01*
X180307000Y-139291500D01*
G75*
G02*
X180069500Y-139529000I-237500J0D01*
G01*
G37*
G36*
G01*
X180069500Y-141354000D02*
X179594500Y-141354000D01*
G75*
G02*
X179357000Y-141116500I0J237500D01*
G01*
X179357000Y-140616500D01*
G75*
G02*
X179594500Y-140379000I237500J0D01*
G01*
X180069500Y-140379000D01*
G75*
G02*
X180307000Y-140616500I0J-237500D01*
G01*
X180307000Y-141116500D01*
G75*
G02*
X180069500Y-141354000I-237500J0D01*
G01*
G37*
%TD*%
%TO.C,R38*%
G36*
G01*
X164829500Y-139529000D02*
X164354500Y-139529000D01*
G75*
G02*
X164117000Y-139291500I0J237500D01*
G01*
X164117000Y-138791500D01*
G75*
G02*
X164354500Y-138554000I237500J0D01*
G01*
X164829500Y-138554000D01*
G75*
G02*
X165067000Y-138791500I0J-237500D01*
G01*
X165067000Y-139291500D01*
G75*
G02*
X164829500Y-139529000I-237500J0D01*
G01*
G37*
G36*
G01*
X164829500Y-141354000D02*
X164354500Y-141354000D01*
G75*
G02*
X164117000Y-141116500I0J237500D01*
G01*
X164117000Y-140616500D01*
G75*
G02*
X164354500Y-140379000I237500J0D01*
G01*
X164829500Y-140379000D01*
G75*
G02*
X165067000Y-140616500I0J-237500D01*
G01*
X165067000Y-141116500D01*
G75*
G02*
X164829500Y-141354000I-237500J0D01*
G01*
G37*
%TD*%
%TO.C,R37*%
G36*
G01*
X180069500Y-134449000D02*
X179594500Y-134449000D01*
G75*
G02*
X179357000Y-134211500I0J237500D01*
G01*
X179357000Y-133711500D01*
G75*
G02*
X179594500Y-133474000I237500J0D01*
G01*
X180069500Y-133474000D01*
G75*
G02*
X180307000Y-133711500I0J-237500D01*
G01*
X180307000Y-134211500D01*
G75*
G02*
X180069500Y-134449000I-237500J0D01*
G01*
G37*
G36*
G01*
X180069500Y-136274000D02*
X179594500Y-136274000D01*
G75*
G02*
X179357000Y-136036500I0J237500D01*
G01*
X179357000Y-135536500D01*
G75*
G02*
X179594500Y-135299000I237500J0D01*
G01*
X180069500Y-135299000D01*
G75*
G02*
X180307000Y-135536500I0J-237500D01*
G01*
X180307000Y-136036500D01*
G75*
G02*
X180069500Y-136274000I-237500J0D01*
G01*
G37*
%TD*%
%TO.C,R36*%
G36*
G01*
X164829500Y-134449000D02*
X164354500Y-134449000D01*
G75*
G02*
X164117000Y-134211500I0J237500D01*
G01*
X164117000Y-133711500D01*
G75*
G02*
X164354500Y-133474000I237500J0D01*
G01*
X164829500Y-133474000D01*
G75*
G02*
X165067000Y-133711500I0J-237500D01*
G01*
X165067000Y-134211500D01*
G75*
G02*
X164829500Y-134449000I-237500J0D01*
G01*
G37*
G36*
G01*
X164829500Y-136274000D02*
X164354500Y-136274000D01*
G75*
G02*
X164117000Y-136036500I0J237500D01*
G01*
X164117000Y-135536500D01*
G75*
G02*
X164354500Y-135299000I237500J0D01*
G01*
X164829500Y-135299000D01*
G75*
G02*
X165067000Y-135536500I0J-237500D01*
G01*
X165067000Y-136036500D01*
G75*
G02*
X164829500Y-136274000I-237500J0D01*
G01*
G37*
%TD*%
%TO.C,R35*%
G36*
G01*
X182609500Y-134449000D02*
X182134500Y-134449000D01*
G75*
G02*
X181897000Y-134211500I0J237500D01*
G01*
X181897000Y-133711500D01*
G75*
G02*
X182134500Y-133474000I237500J0D01*
G01*
X182609500Y-133474000D01*
G75*
G02*
X182847000Y-133711500I0J-237500D01*
G01*
X182847000Y-134211500D01*
G75*
G02*
X182609500Y-134449000I-237500J0D01*
G01*
G37*
G36*
G01*
X182609500Y-136274000D02*
X182134500Y-136274000D01*
G75*
G02*
X181897000Y-136036500I0J237500D01*
G01*
X181897000Y-135536500D01*
G75*
G02*
X182134500Y-135299000I237500J0D01*
G01*
X182609500Y-135299000D01*
G75*
G02*
X182847000Y-135536500I0J-237500D01*
G01*
X182847000Y-136036500D01*
G75*
G02*
X182609500Y-136274000I-237500J0D01*
G01*
G37*
%TD*%
%TO.C,R34*%
G36*
G01*
X167369500Y-134449000D02*
X166894500Y-134449000D01*
G75*
G02*
X166657000Y-134211500I0J237500D01*
G01*
X166657000Y-133711500D01*
G75*
G02*
X166894500Y-133474000I237500J0D01*
G01*
X167369500Y-133474000D01*
G75*
G02*
X167607000Y-133711500I0J-237500D01*
G01*
X167607000Y-134211500D01*
G75*
G02*
X167369500Y-134449000I-237500J0D01*
G01*
G37*
G36*
G01*
X167369500Y-136274000D02*
X166894500Y-136274000D01*
G75*
G02*
X166657000Y-136036500I0J237500D01*
G01*
X166657000Y-135536500D01*
G75*
G02*
X166894500Y-135299000I237500J0D01*
G01*
X167369500Y-135299000D01*
G75*
G02*
X167607000Y-135536500I0J-237500D01*
G01*
X167607000Y-136036500D01*
G75*
G02*
X167369500Y-136274000I-237500J0D01*
G01*
G37*
%TD*%
%TO.C,R33*%
G36*
G01*
X182134500Y-140379000D02*
X182609500Y-140379000D01*
G75*
G02*
X182847000Y-140616500I0J-237500D01*
G01*
X182847000Y-141116500D01*
G75*
G02*
X182609500Y-141354000I-237500J0D01*
G01*
X182134500Y-141354000D01*
G75*
G02*
X181897000Y-141116500I0J237500D01*
G01*
X181897000Y-140616500D01*
G75*
G02*
X182134500Y-140379000I237500J0D01*
G01*
G37*
G36*
G01*
X182134500Y-138554000D02*
X182609500Y-138554000D01*
G75*
G02*
X182847000Y-138791500I0J-237500D01*
G01*
X182847000Y-139291500D01*
G75*
G02*
X182609500Y-139529000I-237500J0D01*
G01*
X182134500Y-139529000D01*
G75*
G02*
X181897000Y-139291500I0J237500D01*
G01*
X181897000Y-138791500D01*
G75*
G02*
X182134500Y-138554000I237500J0D01*
G01*
G37*
%TD*%
%TO.C,R32*%
G36*
G01*
X166894500Y-140379000D02*
X167369500Y-140379000D01*
G75*
G02*
X167607000Y-140616500I0J-237500D01*
G01*
X167607000Y-141116500D01*
G75*
G02*
X167369500Y-141354000I-237500J0D01*
G01*
X166894500Y-141354000D01*
G75*
G02*
X166657000Y-141116500I0J237500D01*
G01*
X166657000Y-140616500D01*
G75*
G02*
X166894500Y-140379000I237500J0D01*
G01*
G37*
G36*
G01*
X166894500Y-138554000D02*
X167369500Y-138554000D01*
G75*
G02*
X167607000Y-138791500I0J-237500D01*
G01*
X167607000Y-139291500D01*
G75*
G02*
X167369500Y-139529000I-237500J0D01*
G01*
X166894500Y-139529000D01*
G75*
G02*
X166657000Y-139291500I0J237500D01*
G01*
X166657000Y-138791500D01*
G75*
G02*
X166894500Y-138554000I237500J0D01*
G01*
G37*
%TD*%
%TO.C,R31*%
G36*
G01*
X185149500Y-139529000D02*
X184674500Y-139529000D01*
G75*
G02*
X184437000Y-139291500I0J237500D01*
G01*
X184437000Y-138791500D01*
G75*
G02*
X184674500Y-138554000I237500J0D01*
G01*
X185149500Y-138554000D01*
G75*
G02*
X185387000Y-138791500I0J-237500D01*
G01*
X185387000Y-139291500D01*
G75*
G02*
X185149500Y-139529000I-237500J0D01*
G01*
G37*
G36*
G01*
X185149500Y-141354000D02*
X184674500Y-141354000D01*
G75*
G02*
X184437000Y-141116500I0J237500D01*
G01*
X184437000Y-140616500D01*
G75*
G02*
X184674500Y-140379000I237500J0D01*
G01*
X185149500Y-140379000D01*
G75*
G02*
X185387000Y-140616500I0J-237500D01*
G01*
X185387000Y-141116500D01*
G75*
G02*
X185149500Y-141354000I-237500J0D01*
G01*
G37*
%TD*%
%TO.C,R30*%
G36*
G01*
X169909500Y-139529000D02*
X169434500Y-139529000D01*
G75*
G02*
X169197000Y-139291500I0J237500D01*
G01*
X169197000Y-138791500D01*
G75*
G02*
X169434500Y-138554000I237500J0D01*
G01*
X169909500Y-138554000D01*
G75*
G02*
X170147000Y-138791500I0J-237500D01*
G01*
X170147000Y-139291500D01*
G75*
G02*
X169909500Y-139529000I-237500J0D01*
G01*
G37*
G36*
G01*
X169909500Y-141354000D02*
X169434500Y-141354000D01*
G75*
G02*
X169197000Y-141116500I0J237500D01*
G01*
X169197000Y-140616500D01*
G75*
G02*
X169434500Y-140379000I237500J0D01*
G01*
X169909500Y-140379000D01*
G75*
G02*
X170147000Y-140616500I0J-237500D01*
G01*
X170147000Y-141116500D01*
G75*
G02*
X169909500Y-141354000I-237500J0D01*
G01*
G37*
%TD*%
%TO.C,R29*%
G36*
G01*
X185149500Y-134449000D02*
X184674500Y-134449000D01*
G75*
G02*
X184437000Y-134211500I0J237500D01*
G01*
X184437000Y-133711500D01*
G75*
G02*
X184674500Y-133474000I237500J0D01*
G01*
X185149500Y-133474000D01*
G75*
G02*
X185387000Y-133711500I0J-237500D01*
G01*
X185387000Y-134211500D01*
G75*
G02*
X185149500Y-134449000I-237500J0D01*
G01*
G37*
G36*
G01*
X185149500Y-136274000D02*
X184674500Y-136274000D01*
G75*
G02*
X184437000Y-136036500I0J237500D01*
G01*
X184437000Y-135536500D01*
G75*
G02*
X184674500Y-135299000I237500J0D01*
G01*
X185149500Y-135299000D01*
G75*
G02*
X185387000Y-135536500I0J-237500D01*
G01*
X185387000Y-136036500D01*
G75*
G02*
X185149500Y-136274000I-237500J0D01*
G01*
G37*
%TD*%
%TO.C,R28*%
G36*
G01*
X169909500Y-134449000D02*
X169434500Y-134449000D01*
G75*
G02*
X169197000Y-134211500I0J237500D01*
G01*
X169197000Y-133711500D01*
G75*
G02*
X169434500Y-133474000I237500J0D01*
G01*
X169909500Y-133474000D01*
G75*
G02*
X170147000Y-133711500I0J-237500D01*
G01*
X170147000Y-134211500D01*
G75*
G02*
X169909500Y-134449000I-237500J0D01*
G01*
G37*
G36*
G01*
X169909500Y-136274000D02*
X169434500Y-136274000D01*
G75*
G02*
X169197000Y-136036500I0J237500D01*
G01*
X169197000Y-135536500D01*
G75*
G02*
X169434500Y-135299000I237500J0D01*
G01*
X169909500Y-135299000D01*
G75*
G02*
X170147000Y-135536500I0J-237500D01*
G01*
X170147000Y-136036500D01*
G75*
G02*
X169909500Y-136274000I-237500J0D01*
G01*
G37*
%TD*%
%TO.C,R27*%
G36*
G01*
X187689500Y-134449000D02*
X187214500Y-134449000D01*
G75*
G02*
X186977000Y-134211500I0J237500D01*
G01*
X186977000Y-133711500D01*
G75*
G02*
X187214500Y-133474000I237500J0D01*
G01*
X187689500Y-133474000D01*
G75*
G02*
X187927000Y-133711500I0J-237500D01*
G01*
X187927000Y-134211500D01*
G75*
G02*
X187689500Y-134449000I-237500J0D01*
G01*
G37*
G36*
G01*
X187689500Y-136274000D02*
X187214500Y-136274000D01*
G75*
G02*
X186977000Y-136036500I0J237500D01*
G01*
X186977000Y-135536500D01*
G75*
G02*
X187214500Y-135299000I237500J0D01*
G01*
X187689500Y-135299000D01*
G75*
G02*
X187927000Y-135536500I0J-237500D01*
G01*
X187927000Y-136036500D01*
G75*
G02*
X187689500Y-136274000I-237500J0D01*
G01*
G37*
%TD*%
%TO.C,R26*%
G36*
G01*
X172449500Y-134449000D02*
X171974500Y-134449000D01*
G75*
G02*
X171737000Y-134211500I0J237500D01*
G01*
X171737000Y-133711500D01*
G75*
G02*
X171974500Y-133474000I237500J0D01*
G01*
X172449500Y-133474000D01*
G75*
G02*
X172687000Y-133711500I0J-237500D01*
G01*
X172687000Y-134211500D01*
G75*
G02*
X172449500Y-134449000I-237500J0D01*
G01*
G37*
G36*
G01*
X172449500Y-136274000D02*
X171974500Y-136274000D01*
G75*
G02*
X171737000Y-136036500I0J237500D01*
G01*
X171737000Y-135536500D01*
G75*
G02*
X171974500Y-135299000I237500J0D01*
G01*
X172449500Y-135299000D01*
G75*
G02*
X172687000Y-135536500I0J-237500D01*
G01*
X172687000Y-136036500D01*
G75*
G02*
X172449500Y-136274000I-237500J0D01*
G01*
G37*
%TD*%
%TO.C,R25*%
G36*
G01*
X187214500Y-140379000D02*
X187689500Y-140379000D01*
G75*
G02*
X187927000Y-140616500I0J-237500D01*
G01*
X187927000Y-141116500D01*
G75*
G02*
X187689500Y-141354000I-237500J0D01*
G01*
X187214500Y-141354000D01*
G75*
G02*
X186977000Y-141116500I0J237500D01*
G01*
X186977000Y-140616500D01*
G75*
G02*
X187214500Y-140379000I237500J0D01*
G01*
G37*
G36*
G01*
X187214500Y-138554000D02*
X187689500Y-138554000D01*
G75*
G02*
X187927000Y-138791500I0J-237500D01*
G01*
X187927000Y-139291500D01*
G75*
G02*
X187689500Y-139529000I-237500J0D01*
G01*
X187214500Y-139529000D01*
G75*
G02*
X186977000Y-139291500I0J237500D01*
G01*
X186977000Y-138791500D01*
G75*
G02*
X187214500Y-138554000I237500J0D01*
G01*
G37*
%TD*%
%TO.C,R24*%
G36*
G01*
X171974500Y-140379000D02*
X172449500Y-140379000D01*
G75*
G02*
X172687000Y-140616500I0J-237500D01*
G01*
X172687000Y-141116500D01*
G75*
G02*
X172449500Y-141354000I-237500J0D01*
G01*
X171974500Y-141354000D01*
G75*
G02*
X171737000Y-141116500I0J237500D01*
G01*
X171737000Y-140616500D01*
G75*
G02*
X171974500Y-140379000I237500J0D01*
G01*
G37*
G36*
G01*
X171974500Y-138554000D02*
X172449500Y-138554000D01*
G75*
G02*
X172687000Y-138791500I0J-237500D01*
G01*
X172687000Y-139291500D01*
G75*
G02*
X172449500Y-139529000I-237500J0D01*
G01*
X171974500Y-139529000D01*
G75*
G02*
X171737000Y-139291500I0J237500D01*
G01*
X171737000Y-138791500D01*
G75*
G02*
X171974500Y-138554000I237500J0D01*
G01*
G37*
%TD*%
%TO.C,R23*%
G36*
G01*
X216424500Y-108629000D02*
X216899500Y-108629000D01*
G75*
G02*
X217137000Y-108866500I0J-237500D01*
G01*
X217137000Y-109366500D01*
G75*
G02*
X216899500Y-109604000I-237500J0D01*
G01*
X216424500Y-109604000D01*
G75*
G02*
X216187000Y-109366500I0J237500D01*
G01*
X216187000Y-108866500D01*
G75*
G02*
X216424500Y-108629000I237500J0D01*
G01*
G37*
G36*
G01*
X216424500Y-106804000D02*
X216899500Y-106804000D01*
G75*
G02*
X217137000Y-107041500I0J-237500D01*
G01*
X217137000Y-107541500D01*
G75*
G02*
X216899500Y-107779000I-237500J0D01*
G01*
X216424500Y-107779000D01*
G75*
G02*
X216187000Y-107541500I0J237500D01*
G01*
X216187000Y-107041500D01*
G75*
G02*
X216424500Y-106804000I237500J0D01*
G01*
G37*
%TD*%
%TO.C,R22*%
G36*
G01*
X213089500Y-91269000D02*
X212614500Y-91269000D01*
G75*
G02*
X212377000Y-91031500I0J237500D01*
G01*
X212377000Y-90531500D01*
G75*
G02*
X212614500Y-90294000I237500J0D01*
G01*
X213089500Y-90294000D01*
G75*
G02*
X213327000Y-90531500I0J-237500D01*
G01*
X213327000Y-91031500D01*
G75*
G02*
X213089500Y-91269000I-237500J0D01*
G01*
G37*
G36*
G01*
X213089500Y-93094000D02*
X212614500Y-93094000D01*
G75*
G02*
X212377000Y-92856500I0J237500D01*
G01*
X212377000Y-92356500D01*
G75*
G02*
X212614500Y-92119000I237500J0D01*
G01*
X213089500Y-92119000D01*
G75*
G02*
X213327000Y-92356500I0J-237500D01*
G01*
X213327000Y-92856500D01*
G75*
G02*
X213089500Y-93094000I-237500J0D01*
G01*
G37*
%TD*%
%TO.C,R21*%
G36*
G01*
X235474500Y-108629000D02*
X235949500Y-108629000D01*
G75*
G02*
X236187000Y-108866500I0J-237500D01*
G01*
X236187000Y-109366500D01*
G75*
G02*
X235949500Y-109604000I-237500J0D01*
G01*
X235474500Y-109604000D01*
G75*
G02*
X235237000Y-109366500I0J237500D01*
G01*
X235237000Y-108866500D01*
G75*
G02*
X235474500Y-108629000I237500J0D01*
G01*
G37*
G36*
G01*
X235474500Y-106804000D02*
X235949500Y-106804000D01*
G75*
G02*
X236187000Y-107041500I0J-237500D01*
G01*
X236187000Y-107541500D01*
G75*
G02*
X235949500Y-107779000I-237500J0D01*
G01*
X235474500Y-107779000D01*
G75*
G02*
X235237000Y-107541500I0J237500D01*
G01*
X235237000Y-107041500D01*
G75*
G02*
X235474500Y-106804000I237500J0D01*
G01*
G37*
%TD*%
%TO.C,R20*%
G36*
G01*
X233409500Y-91269000D02*
X232934500Y-91269000D01*
G75*
G02*
X232697000Y-91031500I0J237500D01*
G01*
X232697000Y-90531500D01*
G75*
G02*
X232934500Y-90294000I237500J0D01*
G01*
X233409500Y-90294000D01*
G75*
G02*
X233647000Y-90531500I0J-237500D01*
G01*
X233647000Y-91031500D01*
G75*
G02*
X233409500Y-91269000I-237500J0D01*
G01*
G37*
G36*
G01*
X233409500Y-93094000D02*
X232934500Y-93094000D01*
G75*
G02*
X232697000Y-92856500I0J237500D01*
G01*
X232697000Y-92356500D01*
G75*
G02*
X232934500Y-92119000I237500J0D01*
G01*
X233409500Y-92119000D01*
G75*
G02*
X233647000Y-92356500I0J-237500D01*
G01*
X233647000Y-92856500D01*
G75*
G02*
X233409500Y-93094000I-237500J0D01*
G01*
G37*
%TD*%
%TO.C,R19*%
X130937000Y-123704000D03*
X132207000Y-123704000D03*
X133477000Y-123704000D03*
X134747000Y-123704000D03*
X136017000Y-123704000D03*
X137287000Y-123704000D03*
X138557000Y-123704000D03*
X139827000Y-123704000D03*
X139827000Y-130804000D03*
X138557000Y-130804000D03*
X137287000Y-130804000D03*
X136017000Y-130804000D03*
X134747000Y-130804000D03*
X133477000Y-130804000D03*
X132207000Y-130804000D03*
X130937000Y-130804000D03*
%TD*%
%TO.C,R18*%
G36*
G01*
X202454500Y-108629000D02*
X202929500Y-108629000D01*
G75*
G02*
X203167000Y-108866500I0J-237500D01*
G01*
X203167000Y-109366500D01*
G75*
G02*
X202929500Y-109604000I-237500J0D01*
G01*
X202454500Y-109604000D01*
G75*
G02*
X202217000Y-109366500I0J237500D01*
G01*
X202217000Y-108866500D01*
G75*
G02*
X202454500Y-108629000I237500J0D01*
G01*
G37*
G36*
G01*
X202454500Y-106804000D02*
X202929500Y-106804000D01*
G75*
G02*
X203167000Y-107041500I0J-237500D01*
G01*
X203167000Y-107541500D01*
G75*
G02*
X202929500Y-107779000I-237500J0D01*
G01*
X202454500Y-107779000D01*
G75*
G02*
X202217000Y-107541500I0J237500D01*
G01*
X202217000Y-107041500D01*
G75*
G02*
X202454500Y-106804000I237500J0D01*
G01*
G37*
%TD*%
%TO.C,R17*%
G36*
G01*
X232934500Y-108629000D02*
X233409500Y-108629000D01*
G75*
G02*
X233647000Y-108866500I0J-237500D01*
G01*
X233647000Y-109366500D01*
G75*
G02*
X233409500Y-109604000I-237500J0D01*
G01*
X232934500Y-109604000D01*
G75*
G02*
X232697000Y-109366500I0J237500D01*
G01*
X232697000Y-108866500D01*
G75*
G02*
X232934500Y-108629000I237500J0D01*
G01*
G37*
G36*
G01*
X232934500Y-106804000D02*
X233409500Y-106804000D01*
G75*
G02*
X233647000Y-107041500I0J-237500D01*
G01*
X233647000Y-107541500D01*
G75*
G02*
X233409500Y-107779000I-237500J0D01*
G01*
X232934500Y-107779000D01*
G75*
G02*
X232697000Y-107541500I0J237500D01*
G01*
X232697000Y-107041500D01*
G75*
G02*
X232934500Y-106804000I237500J0D01*
G01*
G37*
%TD*%
%TO.C,R16*%
G36*
G01*
X230234500Y-91269000D02*
X229759500Y-91269000D01*
G75*
G02*
X229522000Y-91031500I0J237500D01*
G01*
X229522000Y-90531500D01*
G75*
G02*
X229759500Y-90294000I237500J0D01*
G01*
X230234500Y-90294000D01*
G75*
G02*
X230472000Y-90531500I0J-237500D01*
G01*
X230472000Y-91031500D01*
G75*
G02*
X230234500Y-91269000I-237500J0D01*
G01*
G37*
G36*
G01*
X230234500Y-93094000D02*
X229759500Y-93094000D01*
G75*
G02*
X229522000Y-92856500I0J237500D01*
G01*
X229522000Y-92356500D01*
G75*
G02*
X229759500Y-92119000I237500J0D01*
G01*
X230234500Y-92119000D01*
G75*
G02*
X230472000Y-92356500I0J-237500D01*
G01*
X230472000Y-92856500D01*
G75*
G02*
X230234500Y-93094000I-237500J0D01*
G01*
G37*
%TD*%
%TO.C,R15*%
G36*
G01*
X199914500Y-108629000D02*
X200389500Y-108629000D01*
G75*
G02*
X200627000Y-108866500I0J-237500D01*
G01*
X200627000Y-109366500D01*
G75*
G02*
X200389500Y-109604000I-237500J0D01*
G01*
X199914500Y-109604000D01*
G75*
G02*
X199677000Y-109366500I0J237500D01*
G01*
X199677000Y-108866500D01*
G75*
G02*
X199914500Y-108629000I237500J0D01*
G01*
G37*
G36*
G01*
X199914500Y-106804000D02*
X200389500Y-106804000D01*
G75*
G02*
X200627000Y-107041500I0J-237500D01*
G01*
X200627000Y-107541500D01*
G75*
G02*
X200389500Y-107779000I-237500J0D01*
G01*
X199914500Y-107779000D01*
G75*
G02*
X199677000Y-107541500I0J237500D01*
G01*
X199677000Y-107041500D01*
G75*
G02*
X199914500Y-106804000I237500J0D01*
G01*
G37*
%TD*%
%TO.C,R14*%
G36*
G01*
X93201500Y-104477000D02*
X92726500Y-104477000D01*
G75*
G02*
X92489000Y-104239500I0J237500D01*
G01*
X92489000Y-103739500D01*
G75*
G02*
X92726500Y-103502000I237500J0D01*
G01*
X93201500Y-103502000D01*
G75*
G02*
X93439000Y-103739500I0J-237500D01*
G01*
X93439000Y-104239500D01*
G75*
G02*
X93201500Y-104477000I-237500J0D01*
G01*
G37*
G36*
G01*
X93201500Y-106302000D02*
X92726500Y-106302000D01*
G75*
G02*
X92489000Y-106064500I0J237500D01*
G01*
X92489000Y-105564500D01*
G75*
G02*
X92726500Y-105327000I237500J0D01*
G01*
X93201500Y-105327000D01*
G75*
G02*
X93439000Y-105564500I0J-237500D01*
G01*
X93439000Y-106064500D01*
G75*
G02*
X93201500Y-106302000I-237500J0D01*
G01*
G37*
%TD*%
%TO.C,R13*%
G36*
G01*
X90661500Y-104477000D02*
X90186500Y-104477000D01*
G75*
G02*
X89949000Y-104239500I0J237500D01*
G01*
X89949000Y-103739500D01*
G75*
G02*
X90186500Y-103502000I237500J0D01*
G01*
X90661500Y-103502000D01*
G75*
G02*
X90899000Y-103739500I0J-237500D01*
G01*
X90899000Y-104239500D01*
G75*
G02*
X90661500Y-104477000I-237500J0D01*
G01*
G37*
G36*
G01*
X90661500Y-106302000D02*
X90186500Y-106302000D01*
G75*
G02*
X89949000Y-106064500I0J237500D01*
G01*
X89949000Y-105564500D01*
G75*
G02*
X90186500Y-105327000I237500J0D01*
G01*
X90661500Y-105327000D01*
G75*
G02*
X90899000Y-105564500I0J-237500D01*
G01*
X90899000Y-106064500D01*
G75*
G02*
X90661500Y-106302000I-237500J0D01*
G01*
G37*
%TD*%
%TO.C,R12*%
G36*
G01*
X88121500Y-104477000D02*
X87646500Y-104477000D01*
G75*
G02*
X87409000Y-104239500I0J237500D01*
G01*
X87409000Y-103739500D01*
G75*
G02*
X87646500Y-103502000I237500J0D01*
G01*
X88121500Y-103502000D01*
G75*
G02*
X88359000Y-103739500I0J-237500D01*
G01*
X88359000Y-104239500D01*
G75*
G02*
X88121500Y-104477000I-237500J0D01*
G01*
G37*
G36*
G01*
X88121500Y-106302000D02*
X87646500Y-106302000D01*
G75*
G02*
X87409000Y-106064500I0J237500D01*
G01*
X87409000Y-105564500D01*
G75*
G02*
X87646500Y-105327000I237500J0D01*
G01*
X88121500Y-105327000D01*
G75*
G02*
X88359000Y-105564500I0J-237500D01*
G01*
X88359000Y-106064500D01*
G75*
G02*
X88121500Y-106302000I-237500J0D01*
G01*
G37*
%TD*%
%TO.C,R11*%
G36*
G01*
X85581500Y-104477000D02*
X85106500Y-104477000D01*
G75*
G02*
X84869000Y-104239500I0J237500D01*
G01*
X84869000Y-103739500D01*
G75*
G02*
X85106500Y-103502000I237500J0D01*
G01*
X85581500Y-103502000D01*
G75*
G02*
X85819000Y-103739500I0J-237500D01*
G01*
X85819000Y-104239500D01*
G75*
G02*
X85581500Y-104477000I-237500J0D01*
G01*
G37*
G36*
G01*
X85581500Y-106302000D02*
X85106500Y-106302000D01*
G75*
G02*
X84869000Y-106064500I0J237500D01*
G01*
X84869000Y-105564500D01*
G75*
G02*
X85106500Y-105327000I237500J0D01*
G01*
X85581500Y-105327000D01*
G75*
G02*
X85819000Y-105564500I0J-237500D01*
G01*
X85819000Y-106064500D01*
G75*
G02*
X85581500Y-106302000I-237500J0D01*
G01*
G37*
%TD*%
%TO.C,R7*%
G36*
G01*
X99838500Y-99127500D02*
X100313500Y-99127500D01*
G75*
G02*
X100551000Y-99365000I0J-237500D01*
G01*
X100551000Y-99865000D01*
G75*
G02*
X100313500Y-100102500I-237500J0D01*
G01*
X99838500Y-100102500D01*
G75*
G02*
X99601000Y-99865000I0J237500D01*
G01*
X99601000Y-99365000D01*
G75*
G02*
X99838500Y-99127500I237500J0D01*
G01*
G37*
G36*
G01*
X99838500Y-97302500D02*
X100313500Y-97302500D01*
G75*
G02*
X100551000Y-97540000I0J-237500D01*
G01*
X100551000Y-98040000D01*
G75*
G02*
X100313500Y-98277500I-237500J0D01*
G01*
X99838500Y-98277500D01*
G75*
G02*
X99601000Y-98040000I0J237500D01*
G01*
X99601000Y-97540000D01*
G75*
G02*
X99838500Y-97302500I237500J0D01*
G01*
G37*
%TD*%
%TO.C,R5*%
G36*
G01*
X77486500Y-102533000D02*
X77961500Y-102533000D01*
G75*
G02*
X78199000Y-102770500I0J-237500D01*
G01*
X78199000Y-103270500D01*
G75*
G02*
X77961500Y-103508000I-237500J0D01*
G01*
X77486500Y-103508000D01*
G75*
G02*
X77249000Y-103270500I0J237500D01*
G01*
X77249000Y-102770500D01*
G75*
G02*
X77486500Y-102533000I237500J0D01*
G01*
G37*
G36*
G01*
X77486500Y-100708000D02*
X77961500Y-100708000D01*
G75*
G02*
X78199000Y-100945500I0J-237500D01*
G01*
X78199000Y-101445500D01*
G75*
G02*
X77961500Y-101683000I-237500J0D01*
G01*
X77486500Y-101683000D01*
G75*
G02*
X77249000Y-101445500I0J237500D01*
G01*
X77249000Y-100945500D01*
G75*
G02*
X77486500Y-100708000I237500J0D01*
G01*
G37*
%TD*%
D24*
%TO.C,Q16*%
X178562000Y-84074000D03*
X181102000Y-84074000D03*
D25*
X183642000Y-84074000D03*
%TD*%
D24*
%TO.C,Q15*%
X167386000Y-66802000D03*
X169926000Y-66802000D03*
D25*
X172466000Y-66802000D03*
%TD*%
D24*
%TO.C,Q14*%
X204978000Y-66548000D03*
X207518000Y-66548000D03*
D25*
X210058000Y-66548000D03*
%TD*%
D24*
%TO.C,Q13*%
X195072000Y-84074000D03*
X197612000Y-84074000D03*
D25*
X200152000Y-84074000D03*
%TD*%
D24*
%TO.C,Q12*%
X185674000Y-66802000D03*
X188214000Y-66802000D03*
D25*
X190754000Y-66802000D03*
%TD*%
D24*
%TO.C,Q11*%
X224028000Y-66294000D03*
X226568000Y-66294000D03*
D25*
X229108000Y-66294000D03*
%TD*%
D13*
%TO.C,Q10*%
X179832000Y-107204000D03*
X180782000Y-109204000D03*
X178882000Y-109204000D03*
%TD*%
%TO.C,Q9*%
X212852000Y-107204000D03*
X213802000Y-109204000D03*
X211902000Y-109204000D03*
%TD*%
D24*
%TO.C,Q8*%
X211582000Y-84074000D03*
X214122000Y-84074000D03*
D25*
X216662000Y-84074000D03*
%TD*%
D13*
%TO.C,Q7*%
X229997000Y-107204000D03*
X230947000Y-109204000D03*
X229047000Y-109204000D03*
%TD*%
D24*
%TO.C,Q6*%
X228092000Y-84074000D03*
X230632000Y-84074000D03*
D25*
X233172000Y-84074000D03*
%TD*%
D13*
%TO.C,Q5*%
X196342000Y-107204000D03*
X197292000Y-109204000D03*
X195392000Y-109204000D03*
%TD*%
D26*
%TO.C,Q3*%
X74930000Y-96266000D03*
X74930000Y-93726000D03*
D27*
X74930000Y-91186000D03*
%TD*%
D11*
%TO.C,J35*%
X184832000Y-77724000D03*
X182332000Y-77724000D03*
X179832000Y-77724000D03*
G36*
G01*
X176482000Y-78449000D02*
X176482000Y-76999000D01*
G75*
G02*
X176732000Y-76749000I250000J0D01*
G01*
X177932000Y-76749000D01*
G75*
G02*
X178182000Y-76999000I0J-250000D01*
G01*
X178182000Y-78449000D01*
G75*
G02*
X177932000Y-78699000I-250000J0D01*
G01*
X176732000Y-78699000D01*
G75*
G02*
X176482000Y-78449000I0J250000D01*
G01*
G37*
%TD*%
%TO.C,J34*%
X173696000Y-60452000D03*
X171196000Y-60452000D03*
X168696000Y-60452000D03*
G36*
G01*
X165346000Y-61177000D02*
X165346000Y-59727000D01*
G75*
G02*
X165596000Y-59477000I250000J0D01*
G01*
X166796000Y-59477000D01*
G75*
G02*
X167046000Y-59727000I0J-250000D01*
G01*
X167046000Y-61177000D01*
G75*
G02*
X166796000Y-61427000I-250000J0D01*
G01*
X165596000Y-61427000D01*
G75*
G02*
X165346000Y-61177000I0J250000D01*
G01*
G37*
%TD*%
%TO.C,J33*%
X211208000Y-60198000D03*
X208708000Y-60198000D03*
X206208000Y-60198000D03*
G36*
G01*
X202858000Y-60923000D02*
X202858000Y-59473000D01*
G75*
G02*
X203108000Y-59223000I250000J0D01*
G01*
X204308000Y-59223000D01*
G75*
G02*
X204558000Y-59473000I0J-250000D01*
G01*
X204558000Y-60923000D01*
G75*
G02*
X204308000Y-61173000I-250000J0D01*
G01*
X203108000Y-61173000D01*
G75*
G02*
X202858000Y-60923000I0J250000D01*
G01*
G37*
%TD*%
%TO.C,J32*%
X201302000Y-77724000D03*
X198802000Y-77724000D03*
X196302000Y-77724000D03*
G36*
G01*
X192952000Y-78449000D02*
X192952000Y-76999000D01*
G75*
G02*
X193202000Y-76749000I250000J0D01*
G01*
X194402000Y-76749000D01*
G75*
G02*
X194652000Y-76999000I0J-250000D01*
G01*
X194652000Y-78449000D01*
G75*
G02*
X194402000Y-78699000I-250000J0D01*
G01*
X193202000Y-78699000D01*
G75*
G02*
X192952000Y-78449000I0J250000D01*
G01*
G37*
%TD*%
%TO.C,J31*%
X191944000Y-60452000D03*
X189444000Y-60452000D03*
X186944000Y-60452000D03*
G36*
G01*
X183594000Y-61177000D02*
X183594000Y-59727000D01*
G75*
G02*
X183844000Y-59477000I250000J0D01*
G01*
X185044000Y-59477000D01*
G75*
G02*
X185294000Y-59727000I0J-250000D01*
G01*
X185294000Y-61177000D01*
G75*
G02*
X185044000Y-61427000I-250000J0D01*
G01*
X183844000Y-61427000D01*
G75*
G02*
X183594000Y-61177000I0J250000D01*
G01*
G37*
%TD*%
%TO.C,J30*%
X230258000Y-59944000D03*
X227758000Y-59944000D03*
X225258000Y-59944000D03*
G36*
G01*
X221908000Y-60669000D02*
X221908000Y-59219000D01*
G75*
G02*
X222158000Y-58969000I250000J0D01*
G01*
X223358000Y-58969000D01*
G75*
G02*
X223608000Y-59219000I0J-250000D01*
G01*
X223608000Y-60669000D01*
G75*
G02*
X223358000Y-60919000I-250000J0D01*
G01*
X222158000Y-60919000D01*
G75*
G02*
X221908000Y-60669000I0J250000D01*
G01*
G37*
%TD*%
D15*
%TO.C,J29*%
X116332000Y-138804000D03*
X116332000Y-141304000D03*
X116332000Y-143804000D03*
G36*
G01*
X117057000Y-147154000D02*
X115607000Y-147154000D01*
G75*
G02*
X115357000Y-146904000I0J250000D01*
G01*
X115357000Y-145704000D01*
G75*
G02*
X115607000Y-145454000I250000J0D01*
G01*
X117057000Y-145454000D01*
G75*
G02*
X117307000Y-145704000I0J-250000D01*
G01*
X117307000Y-146904000D01*
G75*
G02*
X117057000Y-147154000I-250000J0D01*
G01*
G37*
%TD*%
%TO.C,J28*%
X122682000Y-138804000D03*
X122682000Y-141304000D03*
X122682000Y-143804000D03*
G36*
G01*
X123407000Y-147154000D02*
X121957000Y-147154000D01*
G75*
G02*
X121707000Y-146904000I0J250000D01*
G01*
X121707000Y-145704000D01*
G75*
G02*
X121957000Y-145454000I250000J0D01*
G01*
X123407000Y-145454000D01*
G75*
G02*
X123657000Y-145704000I0J-250000D01*
G01*
X123657000Y-146904000D01*
G75*
G02*
X123407000Y-147154000I-250000J0D01*
G01*
G37*
%TD*%
%TO.C,J27*%
X129032000Y-138884000D03*
X129032000Y-141384000D03*
X129032000Y-143884000D03*
G36*
G01*
X129757000Y-147234000D02*
X128307000Y-147234000D01*
G75*
G02*
X128057000Y-146984000I0J250000D01*
G01*
X128057000Y-145784000D01*
G75*
G02*
X128307000Y-145534000I250000J0D01*
G01*
X129757000Y-145534000D01*
G75*
G02*
X130007000Y-145784000I0J-250000D01*
G01*
X130007000Y-146984000D01*
G75*
G02*
X129757000Y-147234000I-250000J0D01*
G01*
G37*
%TD*%
%TO.C,J26*%
X135382000Y-138844000D03*
X135382000Y-141344000D03*
X135382000Y-143844000D03*
G36*
G01*
X136107000Y-147194000D02*
X134657000Y-147194000D01*
G75*
G02*
X134407000Y-146944000I0J250000D01*
G01*
X134407000Y-145744000D01*
G75*
G02*
X134657000Y-145494000I250000J0D01*
G01*
X136107000Y-145494000D01*
G75*
G02*
X136357000Y-145744000I0J-250000D01*
G01*
X136357000Y-146944000D01*
G75*
G02*
X136107000Y-147194000I-250000J0D01*
G01*
G37*
%TD*%
%TO.C,J25*%
X141732000Y-138884000D03*
X141732000Y-141384000D03*
X141732000Y-143884000D03*
G36*
G01*
X142457000Y-147234000D02*
X141007000Y-147234000D01*
G75*
G02*
X140757000Y-146984000I0J250000D01*
G01*
X140757000Y-145784000D01*
G75*
G02*
X141007000Y-145534000I250000J0D01*
G01*
X142457000Y-145534000D01*
G75*
G02*
X142707000Y-145784000I0J-250000D01*
G01*
X142707000Y-146984000D01*
G75*
G02*
X142457000Y-147234000I-250000J0D01*
G01*
G37*
%TD*%
%TO.C,J24*%
X148082000Y-138844000D03*
X148082000Y-141344000D03*
X148082000Y-143844000D03*
G36*
G01*
X148807000Y-147194000D02*
X147357000Y-147194000D01*
G75*
G02*
X147107000Y-146944000I0J250000D01*
G01*
X147107000Y-145744000D01*
G75*
G02*
X147357000Y-145494000I250000J0D01*
G01*
X148807000Y-145494000D01*
G75*
G02*
X149057000Y-145744000I0J-250000D01*
G01*
X149057000Y-146944000D01*
G75*
G02*
X148807000Y-147194000I-250000J0D01*
G01*
G37*
%TD*%
D11*
%TO.C,J23*%
X226942000Y-147574000D03*
X229442000Y-147574000D03*
X231942000Y-147574000D03*
G36*
G01*
X235292000Y-146849000D02*
X235292000Y-148299000D01*
G75*
G02*
X235042000Y-148549000I-250000J0D01*
G01*
X233842000Y-148549000D01*
G75*
G02*
X233592000Y-148299000I0J250000D01*
G01*
X233592000Y-146849000D01*
G75*
G02*
X233842000Y-146599000I250000J0D01*
G01*
X235042000Y-146599000D01*
G75*
G02*
X235292000Y-146849000I0J-250000D01*
G01*
G37*
%TD*%
%TO.C,J22*%
X210432000Y-147574000D03*
X212932000Y-147574000D03*
X215432000Y-147574000D03*
G36*
G01*
X218782000Y-146849000D02*
X218782000Y-148299000D01*
G75*
G02*
X218532000Y-148549000I-250000J0D01*
G01*
X217332000Y-148549000D01*
G75*
G02*
X217082000Y-148299000I0J250000D01*
G01*
X217082000Y-146849000D01*
G75*
G02*
X217332000Y-146599000I250000J0D01*
G01*
X218532000Y-146599000D01*
G75*
G02*
X218782000Y-146849000I0J-250000D01*
G01*
G37*
%TD*%
%TO.C,J21*%
X195192000Y-147574000D03*
X197692000Y-147574000D03*
X200192000Y-147574000D03*
G36*
G01*
X203542000Y-146849000D02*
X203542000Y-148299000D01*
G75*
G02*
X203292000Y-148549000I-250000J0D01*
G01*
X202092000Y-148549000D01*
G75*
G02*
X201842000Y-148299000I0J250000D01*
G01*
X201842000Y-146849000D01*
G75*
G02*
X202092000Y-146599000I250000J0D01*
G01*
X203292000Y-146599000D01*
G75*
G02*
X203542000Y-146849000I0J-250000D01*
G01*
G37*
%TD*%
%TO.C,J20*%
X179952000Y-147574000D03*
X182452000Y-147574000D03*
X184952000Y-147574000D03*
G36*
G01*
X188302000Y-146849000D02*
X188302000Y-148299000D01*
G75*
G02*
X188052000Y-148549000I-250000J0D01*
G01*
X186852000Y-148549000D01*
G75*
G02*
X186602000Y-148299000I0J250000D01*
G01*
X186602000Y-146849000D01*
G75*
G02*
X186852000Y-146599000I250000J0D01*
G01*
X188052000Y-146599000D01*
G75*
G02*
X188302000Y-146849000I0J-250000D01*
G01*
G37*
%TD*%
%TO.C,J19*%
X164712000Y-147574000D03*
X167212000Y-147574000D03*
X169712000Y-147574000D03*
G36*
G01*
X173062000Y-146849000D02*
X173062000Y-148299000D01*
G75*
G02*
X172812000Y-148549000I-250000J0D01*
G01*
X171612000Y-148549000D01*
G75*
G02*
X171362000Y-148299000I0J250000D01*
G01*
X171362000Y-146849000D01*
G75*
G02*
X171612000Y-146599000I250000J0D01*
G01*
X172812000Y-146599000D01*
G75*
G02*
X173062000Y-146849000I0J-250000D01*
G01*
G37*
%TD*%
D15*
%TO.C,J16*%
X69342000Y-138804000D03*
X69342000Y-141304000D03*
X69342000Y-143804000D03*
G36*
G01*
X70067000Y-147154000D02*
X68617000Y-147154000D01*
G75*
G02*
X68367000Y-146904000I0J250000D01*
G01*
X68367000Y-145704000D01*
G75*
G02*
X68617000Y-145454000I250000J0D01*
G01*
X70067000Y-145454000D01*
G75*
G02*
X70317000Y-145704000I0J-250000D01*
G01*
X70317000Y-146904000D01*
G75*
G02*
X70067000Y-147154000I-250000J0D01*
G01*
G37*
%TD*%
%TO.C,J14*%
X75692000Y-138804000D03*
X75692000Y-141304000D03*
X75692000Y-143804000D03*
G36*
G01*
X76417000Y-147154000D02*
X74967000Y-147154000D01*
G75*
G02*
X74717000Y-146904000I0J250000D01*
G01*
X74717000Y-145704000D01*
G75*
G02*
X74967000Y-145454000I250000J0D01*
G01*
X76417000Y-145454000D01*
G75*
G02*
X76667000Y-145704000I0J-250000D01*
G01*
X76667000Y-146904000D01*
G75*
G02*
X76417000Y-147154000I-250000J0D01*
G01*
G37*
%TD*%
%TO.C,J13*%
X82042000Y-138804000D03*
X82042000Y-141304000D03*
X82042000Y-143804000D03*
G36*
G01*
X82767000Y-147154000D02*
X81317000Y-147154000D01*
G75*
G02*
X81067000Y-146904000I0J250000D01*
G01*
X81067000Y-145704000D01*
G75*
G02*
X81317000Y-145454000I250000J0D01*
G01*
X82767000Y-145454000D01*
G75*
G02*
X83017000Y-145704000I0J-250000D01*
G01*
X83017000Y-146904000D01*
G75*
G02*
X82767000Y-147154000I-250000J0D01*
G01*
G37*
%TD*%
%TO.C,J12*%
X88392000Y-138804000D03*
X88392000Y-141304000D03*
X88392000Y-143804000D03*
G36*
G01*
X89117000Y-147154000D02*
X87667000Y-147154000D01*
G75*
G02*
X87417000Y-146904000I0J250000D01*
G01*
X87417000Y-145704000D01*
G75*
G02*
X87667000Y-145454000I250000J0D01*
G01*
X89117000Y-145454000D01*
G75*
G02*
X89367000Y-145704000I0J-250000D01*
G01*
X89367000Y-146904000D01*
G75*
G02*
X89117000Y-147154000I-250000J0D01*
G01*
G37*
%TD*%
D11*
%TO.C,J11*%
X184832000Y-101854000D03*
X182332000Y-101854000D03*
X179832000Y-101854000D03*
G36*
G01*
X176482000Y-102579000D02*
X176482000Y-101129000D01*
G75*
G02*
X176732000Y-100879000I250000J0D01*
G01*
X177932000Y-100879000D01*
G75*
G02*
X178182000Y-101129000I0J-250000D01*
G01*
X178182000Y-102579000D01*
G75*
G02*
X177932000Y-102829000I-250000J0D01*
G01*
X176732000Y-102829000D01*
G75*
G02*
X176482000Y-102579000I0J250000D01*
G01*
G37*
%TD*%
%TO.C,J10*%
X217892000Y-101854000D03*
X215392000Y-101854000D03*
X212892000Y-101854000D03*
G36*
G01*
X209542000Y-102579000D02*
X209542000Y-101129000D01*
G75*
G02*
X209792000Y-100879000I250000J0D01*
G01*
X210992000Y-100879000D01*
G75*
G02*
X211242000Y-101129000I0J-250000D01*
G01*
X211242000Y-102579000D01*
G75*
G02*
X210992000Y-102829000I-250000J0D01*
G01*
X209792000Y-102829000D01*
G75*
G02*
X209542000Y-102579000I0J250000D01*
G01*
G37*
%TD*%
D15*
%TO.C,J9*%
X94742000Y-138804000D03*
X94742000Y-141304000D03*
X94742000Y-143804000D03*
G36*
G01*
X95467000Y-147154000D02*
X94017000Y-147154000D01*
G75*
G02*
X93767000Y-146904000I0J250000D01*
G01*
X93767000Y-145704000D01*
G75*
G02*
X94017000Y-145454000I250000J0D01*
G01*
X95467000Y-145454000D01*
G75*
G02*
X95717000Y-145704000I0J-250000D01*
G01*
X95717000Y-146904000D01*
G75*
G02*
X95467000Y-147154000I-250000J0D01*
G01*
G37*
%TD*%
%TO.C,J8*%
X101092000Y-138804000D03*
X101092000Y-141304000D03*
X101092000Y-143804000D03*
G36*
G01*
X101817000Y-147154000D02*
X100367000Y-147154000D01*
G75*
G02*
X100117000Y-146904000I0J250000D01*
G01*
X100117000Y-145704000D01*
G75*
G02*
X100367000Y-145454000I250000J0D01*
G01*
X101817000Y-145454000D01*
G75*
G02*
X102067000Y-145704000I0J-250000D01*
G01*
X102067000Y-146904000D01*
G75*
G02*
X101817000Y-147154000I-250000J0D01*
G01*
G37*
%TD*%
D11*
%TO.C,J7*%
X217812000Y-77724000D03*
X215312000Y-77724000D03*
X212812000Y-77724000D03*
G36*
G01*
X209462000Y-78449000D02*
X209462000Y-76999000D01*
G75*
G02*
X209712000Y-76749000I250000J0D01*
G01*
X210912000Y-76749000D01*
G75*
G02*
X211162000Y-76999000I0J-250000D01*
G01*
X211162000Y-78449000D01*
G75*
G02*
X210912000Y-78699000I-250000J0D01*
G01*
X209712000Y-78699000D01*
G75*
G02*
X209462000Y-78449000I0J250000D01*
G01*
G37*
%TD*%
%TO.C,J6*%
X234322000Y-101854000D03*
X231822000Y-101854000D03*
X229322000Y-101854000D03*
G36*
G01*
X225972000Y-102579000D02*
X225972000Y-101129000D01*
G75*
G02*
X226222000Y-100879000I250000J0D01*
G01*
X227422000Y-100879000D01*
G75*
G02*
X227672000Y-101129000I0J-250000D01*
G01*
X227672000Y-102579000D01*
G75*
G02*
X227422000Y-102829000I-250000J0D01*
G01*
X226222000Y-102829000D01*
G75*
G02*
X225972000Y-102579000I0J250000D01*
G01*
G37*
%TD*%
%TO.C,J5*%
X234322000Y-77724000D03*
X231822000Y-77724000D03*
X229322000Y-77724000D03*
G36*
G01*
X225972000Y-78449000D02*
X225972000Y-76999000D01*
G75*
G02*
X226222000Y-76749000I250000J0D01*
G01*
X227422000Y-76749000D01*
G75*
G02*
X227672000Y-76999000I0J-250000D01*
G01*
X227672000Y-78449000D01*
G75*
G02*
X227422000Y-78699000I-250000J0D01*
G01*
X226222000Y-78699000D01*
G75*
G02*
X225972000Y-78449000I0J250000D01*
G01*
G37*
%TD*%
%TO.C,J4*%
X201342000Y-101854000D03*
X198842000Y-101854000D03*
X196342000Y-101854000D03*
G36*
G01*
X192992000Y-102579000D02*
X192992000Y-101129000D01*
G75*
G02*
X193242000Y-100879000I250000J0D01*
G01*
X194442000Y-100879000D01*
G75*
G02*
X194692000Y-101129000I0J-250000D01*
G01*
X194692000Y-102579000D01*
G75*
G02*
X194442000Y-102829000I-250000J0D01*
G01*
X193242000Y-102829000D01*
G75*
G02*
X192992000Y-102579000I0J250000D01*
G01*
G37*
%TD*%
D15*
%TO.C,J3*%
X107442000Y-138804000D03*
X107442000Y-141304000D03*
X107442000Y-143804000D03*
G36*
G01*
X108167000Y-147154000D02*
X106717000Y-147154000D01*
G75*
G02*
X106467000Y-146904000I0J250000D01*
G01*
X106467000Y-145704000D01*
G75*
G02*
X106717000Y-145454000I250000J0D01*
G01*
X108167000Y-145454000D01*
G75*
G02*
X108417000Y-145704000I0J-250000D01*
G01*
X108417000Y-146904000D01*
G75*
G02*
X108167000Y-147154000I-250000J0D01*
G01*
G37*
%TD*%
%TO.C,J2*%
X69342000Y-91012000D03*
X69342000Y-93512000D03*
X69342000Y-96012000D03*
G36*
G01*
X70067000Y-99362000D02*
X68617000Y-99362000D01*
G75*
G02*
X68367000Y-99112000I0J250000D01*
G01*
X68367000Y-97912000D01*
G75*
G02*
X68617000Y-97662000I250000J0D01*
G01*
X70067000Y-97662000D01*
G75*
G02*
X70317000Y-97912000I0J-250000D01*
G01*
X70317000Y-99112000D01*
G75*
G02*
X70067000Y-99362000I-250000J0D01*
G01*
G37*
%TD*%
%TO.C,J1*%
X69850000Y-126372000D03*
X69850000Y-123872000D03*
X69850000Y-121372000D03*
G36*
G01*
X69125000Y-118022000D02*
X70575000Y-118022000D01*
G75*
G02*
X70825000Y-118272000I0J-250000D01*
G01*
X70825000Y-119472000D01*
G75*
G02*
X70575000Y-119722000I-250000J0D01*
G01*
X69125000Y-119722000D01*
G75*
G02*
X68875000Y-119472000I0J250000D01*
G01*
X68875000Y-118272000D01*
G75*
G02*
X69125000Y-118022000I250000J0D01*
G01*
G37*
%TD*%
%TO.C,C47*%
G36*
G01*
X93455500Y-114483000D02*
X92980500Y-114483000D01*
G75*
G02*
X92743000Y-114245500I0J237500D01*
G01*
X92743000Y-113645500D01*
G75*
G02*
X92980500Y-113408000I237500J0D01*
G01*
X93455500Y-113408000D01*
G75*
G02*
X93693000Y-113645500I0J-237500D01*
G01*
X93693000Y-114245500D01*
G75*
G02*
X93455500Y-114483000I-237500J0D01*
G01*
G37*
G36*
G01*
X93455500Y-116208000D02*
X92980500Y-116208000D01*
G75*
G02*
X92743000Y-115970500I0J237500D01*
G01*
X92743000Y-115370500D01*
G75*
G02*
X92980500Y-115133000I237500J0D01*
G01*
X93455500Y-115133000D01*
G75*
G02*
X93693000Y-115370500I0J-237500D01*
G01*
X93693000Y-115970500D01*
G75*
G02*
X93455500Y-116208000I-237500J0D01*
G01*
G37*
%TD*%
%TO.C,C46*%
G36*
G01*
X93455500Y-119563000D02*
X92980500Y-119563000D01*
G75*
G02*
X92743000Y-119325500I0J237500D01*
G01*
X92743000Y-118725500D01*
G75*
G02*
X92980500Y-118488000I237500J0D01*
G01*
X93455500Y-118488000D01*
G75*
G02*
X93693000Y-118725500I0J-237500D01*
G01*
X93693000Y-119325500D01*
G75*
G02*
X93455500Y-119563000I-237500J0D01*
G01*
G37*
G36*
G01*
X93455500Y-121288000D02*
X92980500Y-121288000D01*
G75*
G02*
X92743000Y-121050500I0J237500D01*
G01*
X92743000Y-120450500D01*
G75*
G02*
X92980500Y-120213000I237500J0D01*
G01*
X93455500Y-120213000D01*
G75*
G02*
X93693000Y-120450500I0J-237500D01*
G01*
X93693000Y-121050500D01*
G75*
G02*
X93455500Y-121288000I-237500J0D01*
G01*
G37*
%TD*%
%TO.C,C45*%
G36*
G01*
X81209000Y-113808500D02*
X81209000Y-114283500D01*
G75*
G02*
X80971500Y-114521000I-237500J0D01*
G01*
X80371500Y-114521000D01*
G75*
G02*
X80134000Y-114283500I0J237500D01*
G01*
X80134000Y-113808500D01*
G75*
G02*
X80371500Y-113571000I237500J0D01*
G01*
X80971500Y-113571000D01*
G75*
G02*
X81209000Y-113808500I0J-237500D01*
G01*
G37*
G36*
G01*
X82934000Y-113808500D02*
X82934000Y-114283500D01*
G75*
G02*
X82696500Y-114521000I-237500J0D01*
G01*
X82096500Y-114521000D01*
G75*
G02*
X81859000Y-114283500I0J237500D01*
G01*
X81859000Y-113808500D01*
G75*
G02*
X82096500Y-113571000I237500J0D01*
G01*
X82696500Y-113571000D01*
G75*
G02*
X82934000Y-113808500I0J-237500D01*
G01*
G37*
%TD*%
%TO.C,C44*%
G36*
G01*
X80589000Y-126983500D02*
X80589000Y-126508500D01*
G75*
G02*
X80826500Y-126271000I237500J0D01*
G01*
X81426500Y-126271000D01*
G75*
G02*
X81664000Y-126508500I0J-237500D01*
G01*
X81664000Y-126983500D01*
G75*
G02*
X81426500Y-127221000I-237500J0D01*
G01*
X80826500Y-127221000D01*
G75*
G02*
X80589000Y-126983500I0J237500D01*
G01*
G37*
G36*
G01*
X78864000Y-126983500D02*
X78864000Y-126508500D01*
G75*
G02*
X79101500Y-126271000I237500J0D01*
G01*
X79701500Y-126271000D01*
G75*
G02*
X79939000Y-126508500I0J-237500D01*
G01*
X79939000Y-126983500D01*
G75*
G02*
X79701500Y-127221000I-237500J0D01*
G01*
X79101500Y-127221000D01*
G75*
G02*
X78864000Y-126983500I0J237500D01*
G01*
G37*
%TD*%
%TO.C,C43*%
G36*
G01*
X226584500Y-127579000D02*
X227059500Y-127579000D01*
G75*
G02*
X227297000Y-127816500I0J-237500D01*
G01*
X227297000Y-128416500D01*
G75*
G02*
X227059500Y-128654000I-237500J0D01*
G01*
X226584500Y-128654000D01*
G75*
G02*
X226347000Y-128416500I0J237500D01*
G01*
X226347000Y-127816500D01*
G75*
G02*
X226584500Y-127579000I237500J0D01*
G01*
G37*
G36*
G01*
X226584500Y-125854000D02*
X227059500Y-125854000D01*
G75*
G02*
X227297000Y-126091500I0J-237500D01*
G01*
X227297000Y-126691500D01*
G75*
G02*
X227059500Y-126929000I-237500J0D01*
G01*
X226584500Y-126929000D01*
G75*
G02*
X226347000Y-126691500I0J237500D01*
G01*
X226347000Y-126091500D01*
G75*
G02*
X226584500Y-125854000I237500J0D01*
G01*
G37*
%TD*%
%TO.C,C42*%
G36*
G01*
X228417000Y-131301500D02*
X228417000Y-130826500D01*
G75*
G02*
X228654500Y-130589000I237500J0D01*
G01*
X229254500Y-130589000D01*
G75*
G02*
X229492000Y-130826500I0J-237500D01*
G01*
X229492000Y-131301500D01*
G75*
G02*
X229254500Y-131539000I-237500J0D01*
G01*
X228654500Y-131539000D01*
G75*
G02*
X228417000Y-131301500I0J237500D01*
G01*
G37*
G36*
G01*
X226692000Y-131301500D02*
X226692000Y-130826500D01*
G75*
G02*
X226929500Y-130589000I237500J0D01*
G01*
X227529500Y-130589000D01*
G75*
G02*
X227767000Y-130826500I0J-237500D01*
G01*
X227767000Y-131301500D01*
G75*
G02*
X227529500Y-131539000I-237500J0D01*
G01*
X226929500Y-131539000D01*
G75*
G02*
X226692000Y-131301500I0J237500D01*
G01*
G37*
%TD*%
%TO.C,C41*%
G36*
G01*
X229599500Y-126929000D02*
X229124500Y-126929000D01*
G75*
G02*
X228887000Y-126691500I0J237500D01*
G01*
X228887000Y-126091500D01*
G75*
G02*
X229124500Y-125854000I237500J0D01*
G01*
X229599500Y-125854000D01*
G75*
G02*
X229837000Y-126091500I0J-237500D01*
G01*
X229837000Y-126691500D01*
G75*
G02*
X229599500Y-126929000I-237500J0D01*
G01*
G37*
G36*
G01*
X229599500Y-128654000D02*
X229124500Y-128654000D01*
G75*
G02*
X228887000Y-128416500I0J237500D01*
G01*
X228887000Y-127816500D01*
G75*
G02*
X229124500Y-127579000I237500J0D01*
G01*
X229599500Y-127579000D01*
G75*
G02*
X229837000Y-127816500I0J-237500D01*
G01*
X229837000Y-128416500D01*
G75*
G02*
X229599500Y-128654000I-237500J0D01*
G01*
G37*
%TD*%
%TO.C,C40*%
G36*
G01*
X231664500Y-127579000D02*
X232139500Y-127579000D01*
G75*
G02*
X232377000Y-127816500I0J-237500D01*
G01*
X232377000Y-128416500D01*
G75*
G02*
X232139500Y-128654000I-237500J0D01*
G01*
X231664500Y-128654000D01*
G75*
G02*
X231427000Y-128416500I0J237500D01*
G01*
X231427000Y-127816500D01*
G75*
G02*
X231664500Y-127579000I237500J0D01*
G01*
G37*
G36*
G01*
X231664500Y-125854000D02*
X232139500Y-125854000D01*
G75*
G02*
X232377000Y-126091500I0J-237500D01*
G01*
X232377000Y-126691500D01*
G75*
G02*
X232139500Y-126929000I-237500J0D01*
G01*
X231664500Y-126929000D01*
G75*
G02*
X231427000Y-126691500I0J237500D01*
G01*
X231427000Y-126091500D01*
G75*
G02*
X231664500Y-125854000I237500J0D01*
G01*
G37*
%TD*%
%TO.C,C39*%
G36*
G01*
X233497000Y-131301500D02*
X233497000Y-130826500D01*
G75*
G02*
X233734500Y-130589000I237500J0D01*
G01*
X234334500Y-130589000D01*
G75*
G02*
X234572000Y-130826500I0J-237500D01*
G01*
X234572000Y-131301500D01*
G75*
G02*
X234334500Y-131539000I-237500J0D01*
G01*
X233734500Y-131539000D01*
G75*
G02*
X233497000Y-131301500I0J237500D01*
G01*
G37*
G36*
G01*
X231772000Y-131301500D02*
X231772000Y-130826500D01*
G75*
G02*
X232009500Y-130589000I237500J0D01*
G01*
X232609500Y-130589000D01*
G75*
G02*
X232847000Y-130826500I0J-237500D01*
G01*
X232847000Y-131301500D01*
G75*
G02*
X232609500Y-131539000I-237500J0D01*
G01*
X232009500Y-131539000D01*
G75*
G02*
X231772000Y-131301500I0J237500D01*
G01*
G37*
%TD*%
%TO.C,C37*%
G36*
G01*
X224044500Y-122499000D02*
X224519500Y-122499000D01*
G75*
G02*
X224757000Y-122736500I0J-237500D01*
G01*
X224757000Y-123336500D01*
G75*
G02*
X224519500Y-123574000I-237500J0D01*
G01*
X224044500Y-123574000D01*
G75*
G02*
X223807000Y-123336500I0J237500D01*
G01*
X223807000Y-122736500D01*
G75*
G02*
X224044500Y-122499000I237500J0D01*
G01*
G37*
G36*
G01*
X224044500Y-120774000D02*
X224519500Y-120774000D01*
G75*
G02*
X224757000Y-121011500I0J-237500D01*
G01*
X224757000Y-121611500D01*
G75*
G02*
X224519500Y-121849000I-237500J0D01*
G01*
X224044500Y-121849000D01*
G75*
G02*
X223807000Y-121611500I0J237500D01*
G01*
X223807000Y-121011500D01*
G75*
G02*
X224044500Y-120774000I237500J0D01*
G01*
G37*
%TD*%
%TO.C,C36*%
G36*
G01*
X234679500Y-126929000D02*
X234204500Y-126929000D01*
G75*
G02*
X233967000Y-126691500I0J237500D01*
G01*
X233967000Y-126091500D01*
G75*
G02*
X234204500Y-125854000I237500J0D01*
G01*
X234679500Y-125854000D01*
G75*
G02*
X234917000Y-126091500I0J-237500D01*
G01*
X234917000Y-126691500D01*
G75*
G02*
X234679500Y-126929000I-237500J0D01*
G01*
G37*
G36*
G01*
X234679500Y-128654000D02*
X234204500Y-128654000D01*
G75*
G02*
X233967000Y-128416500I0J237500D01*
G01*
X233967000Y-127816500D01*
G75*
G02*
X234204500Y-127579000I237500J0D01*
G01*
X234679500Y-127579000D01*
G75*
G02*
X234917000Y-127816500I0J-237500D01*
G01*
X234917000Y-128416500D01*
G75*
G02*
X234679500Y-128654000I-237500J0D01*
G01*
G37*
%TD*%
%TO.C,C35*%
G36*
G01*
X210074500Y-127579000D02*
X210549500Y-127579000D01*
G75*
G02*
X210787000Y-127816500I0J-237500D01*
G01*
X210787000Y-128416500D01*
G75*
G02*
X210549500Y-128654000I-237500J0D01*
G01*
X210074500Y-128654000D01*
G75*
G02*
X209837000Y-128416500I0J237500D01*
G01*
X209837000Y-127816500D01*
G75*
G02*
X210074500Y-127579000I237500J0D01*
G01*
G37*
G36*
G01*
X210074500Y-125854000D02*
X210549500Y-125854000D01*
G75*
G02*
X210787000Y-126091500I0J-237500D01*
G01*
X210787000Y-126691500D01*
G75*
G02*
X210549500Y-126929000I-237500J0D01*
G01*
X210074500Y-126929000D01*
G75*
G02*
X209837000Y-126691500I0J237500D01*
G01*
X209837000Y-126091500D01*
G75*
G02*
X210074500Y-125854000I237500J0D01*
G01*
G37*
%TD*%
%TO.C,C34*%
G36*
G01*
X211907000Y-131301500D02*
X211907000Y-130826500D01*
G75*
G02*
X212144500Y-130589000I237500J0D01*
G01*
X212744500Y-130589000D01*
G75*
G02*
X212982000Y-130826500I0J-237500D01*
G01*
X212982000Y-131301500D01*
G75*
G02*
X212744500Y-131539000I-237500J0D01*
G01*
X212144500Y-131539000D01*
G75*
G02*
X211907000Y-131301500I0J237500D01*
G01*
G37*
G36*
G01*
X210182000Y-131301500D02*
X210182000Y-130826500D01*
G75*
G02*
X210419500Y-130589000I237500J0D01*
G01*
X211019500Y-130589000D01*
G75*
G02*
X211257000Y-130826500I0J-237500D01*
G01*
X211257000Y-131301500D01*
G75*
G02*
X211019500Y-131539000I-237500J0D01*
G01*
X210419500Y-131539000D01*
G75*
G02*
X210182000Y-131301500I0J237500D01*
G01*
G37*
%TD*%
%TO.C,C33*%
G36*
G01*
X194834500Y-127579000D02*
X195309500Y-127579000D01*
G75*
G02*
X195547000Y-127816500I0J-237500D01*
G01*
X195547000Y-128416500D01*
G75*
G02*
X195309500Y-128654000I-237500J0D01*
G01*
X194834500Y-128654000D01*
G75*
G02*
X194597000Y-128416500I0J237500D01*
G01*
X194597000Y-127816500D01*
G75*
G02*
X194834500Y-127579000I237500J0D01*
G01*
G37*
G36*
G01*
X194834500Y-125854000D02*
X195309500Y-125854000D01*
G75*
G02*
X195547000Y-126091500I0J-237500D01*
G01*
X195547000Y-126691500D01*
G75*
G02*
X195309500Y-126929000I-237500J0D01*
G01*
X194834500Y-126929000D01*
G75*
G02*
X194597000Y-126691500I0J237500D01*
G01*
X194597000Y-126091500D01*
G75*
G02*
X194834500Y-125854000I237500J0D01*
G01*
G37*
%TD*%
%TO.C,C32*%
G36*
G01*
X213089500Y-126929000D02*
X212614500Y-126929000D01*
G75*
G02*
X212377000Y-126691500I0J237500D01*
G01*
X212377000Y-126091500D01*
G75*
G02*
X212614500Y-125854000I237500J0D01*
G01*
X213089500Y-125854000D01*
G75*
G02*
X213327000Y-126091500I0J-237500D01*
G01*
X213327000Y-126691500D01*
G75*
G02*
X213089500Y-126929000I-237500J0D01*
G01*
G37*
G36*
G01*
X213089500Y-128654000D02*
X212614500Y-128654000D01*
G75*
G02*
X212377000Y-128416500I0J237500D01*
G01*
X212377000Y-127816500D01*
G75*
G02*
X212614500Y-127579000I237500J0D01*
G01*
X213089500Y-127579000D01*
G75*
G02*
X213327000Y-127816500I0J-237500D01*
G01*
X213327000Y-128416500D01*
G75*
G02*
X213089500Y-128654000I-237500J0D01*
G01*
G37*
%TD*%
%TO.C,C31*%
G36*
G01*
X196667000Y-131301500D02*
X196667000Y-130826500D01*
G75*
G02*
X196904500Y-130589000I237500J0D01*
G01*
X197504500Y-130589000D01*
G75*
G02*
X197742000Y-130826500I0J-237500D01*
G01*
X197742000Y-131301500D01*
G75*
G02*
X197504500Y-131539000I-237500J0D01*
G01*
X196904500Y-131539000D01*
G75*
G02*
X196667000Y-131301500I0J237500D01*
G01*
G37*
G36*
G01*
X194942000Y-131301500D02*
X194942000Y-130826500D01*
G75*
G02*
X195179500Y-130589000I237500J0D01*
G01*
X195779500Y-130589000D01*
G75*
G02*
X196017000Y-130826500I0J-237500D01*
G01*
X196017000Y-131301500D01*
G75*
G02*
X195779500Y-131539000I-237500J0D01*
G01*
X195179500Y-131539000D01*
G75*
G02*
X194942000Y-131301500I0J237500D01*
G01*
G37*
%TD*%
%TO.C,C30*%
G36*
G01*
X197849500Y-126929000D02*
X197374500Y-126929000D01*
G75*
G02*
X197137000Y-126691500I0J237500D01*
G01*
X197137000Y-126091500D01*
G75*
G02*
X197374500Y-125854000I237500J0D01*
G01*
X197849500Y-125854000D01*
G75*
G02*
X198087000Y-126091500I0J-237500D01*
G01*
X198087000Y-126691500D01*
G75*
G02*
X197849500Y-126929000I-237500J0D01*
G01*
G37*
G36*
G01*
X197849500Y-128654000D02*
X197374500Y-128654000D01*
G75*
G02*
X197137000Y-128416500I0J237500D01*
G01*
X197137000Y-127816500D01*
G75*
G02*
X197374500Y-127579000I237500J0D01*
G01*
X197849500Y-127579000D01*
G75*
G02*
X198087000Y-127816500I0J-237500D01*
G01*
X198087000Y-128416500D01*
G75*
G02*
X197849500Y-128654000I-237500J0D01*
G01*
G37*
%TD*%
%TO.C,C29*%
G36*
G01*
X215154500Y-127579000D02*
X215629500Y-127579000D01*
G75*
G02*
X215867000Y-127816500I0J-237500D01*
G01*
X215867000Y-128416500D01*
G75*
G02*
X215629500Y-128654000I-237500J0D01*
G01*
X215154500Y-128654000D01*
G75*
G02*
X214917000Y-128416500I0J237500D01*
G01*
X214917000Y-127816500D01*
G75*
G02*
X215154500Y-127579000I237500J0D01*
G01*
G37*
G36*
G01*
X215154500Y-125854000D02*
X215629500Y-125854000D01*
G75*
G02*
X215867000Y-126091500I0J-237500D01*
G01*
X215867000Y-126691500D01*
G75*
G02*
X215629500Y-126929000I-237500J0D01*
G01*
X215154500Y-126929000D01*
G75*
G02*
X214917000Y-126691500I0J237500D01*
G01*
X214917000Y-126091500D01*
G75*
G02*
X215154500Y-125854000I237500J0D01*
G01*
G37*
%TD*%
%TO.C,C28*%
G36*
G01*
X216987000Y-131301500D02*
X216987000Y-130826500D01*
G75*
G02*
X217224500Y-130589000I237500J0D01*
G01*
X217824500Y-130589000D01*
G75*
G02*
X218062000Y-130826500I0J-237500D01*
G01*
X218062000Y-131301500D01*
G75*
G02*
X217824500Y-131539000I-237500J0D01*
G01*
X217224500Y-131539000D01*
G75*
G02*
X216987000Y-131301500I0J237500D01*
G01*
G37*
G36*
G01*
X215262000Y-131301500D02*
X215262000Y-130826500D01*
G75*
G02*
X215499500Y-130589000I237500J0D01*
G01*
X216099500Y-130589000D01*
G75*
G02*
X216337000Y-130826500I0J-237500D01*
G01*
X216337000Y-131301500D01*
G75*
G02*
X216099500Y-131539000I-237500J0D01*
G01*
X215499500Y-131539000D01*
G75*
G02*
X215262000Y-131301500I0J237500D01*
G01*
G37*
%TD*%
%TO.C,C27*%
G36*
G01*
X199914500Y-127579000D02*
X200389500Y-127579000D01*
G75*
G02*
X200627000Y-127816500I0J-237500D01*
G01*
X200627000Y-128416500D01*
G75*
G02*
X200389500Y-128654000I-237500J0D01*
G01*
X199914500Y-128654000D01*
G75*
G02*
X199677000Y-128416500I0J237500D01*
G01*
X199677000Y-127816500D01*
G75*
G02*
X199914500Y-127579000I237500J0D01*
G01*
G37*
G36*
G01*
X199914500Y-125854000D02*
X200389500Y-125854000D01*
G75*
G02*
X200627000Y-126091500I0J-237500D01*
G01*
X200627000Y-126691500D01*
G75*
G02*
X200389500Y-126929000I-237500J0D01*
G01*
X199914500Y-126929000D01*
G75*
G02*
X199677000Y-126691500I0J237500D01*
G01*
X199677000Y-126091500D01*
G75*
G02*
X199914500Y-125854000I237500J0D01*
G01*
G37*
%TD*%
%TO.C,C25*%
G36*
G01*
X207534500Y-122499000D02*
X208009500Y-122499000D01*
G75*
G02*
X208247000Y-122736500I0J-237500D01*
G01*
X208247000Y-123336500D01*
G75*
G02*
X208009500Y-123574000I-237500J0D01*
G01*
X207534500Y-123574000D01*
G75*
G02*
X207297000Y-123336500I0J237500D01*
G01*
X207297000Y-122736500D01*
G75*
G02*
X207534500Y-122499000I237500J0D01*
G01*
G37*
G36*
G01*
X207534500Y-120774000D02*
X208009500Y-120774000D01*
G75*
G02*
X208247000Y-121011500I0J-237500D01*
G01*
X208247000Y-121611500D01*
G75*
G02*
X208009500Y-121849000I-237500J0D01*
G01*
X207534500Y-121849000D01*
G75*
G02*
X207297000Y-121611500I0J237500D01*
G01*
X207297000Y-121011500D01*
G75*
G02*
X207534500Y-120774000I237500J0D01*
G01*
G37*
%TD*%
%TO.C,C24*%
G36*
G01*
X218169500Y-126929000D02*
X217694500Y-126929000D01*
G75*
G02*
X217457000Y-126691500I0J237500D01*
G01*
X217457000Y-126091500D01*
G75*
G02*
X217694500Y-125854000I237500J0D01*
G01*
X218169500Y-125854000D01*
G75*
G02*
X218407000Y-126091500I0J-237500D01*
G01*
X218407000Y-126691500D01*
G75*
G02*
X218169500Y-126929000I-237500J0D01*
G01*
G37*
G36*
G01*
X218169500Y-128654000D02*
X217694500Y-128654000D01*
G75*
G02*
X217457000Y-128416500I0J237500D01*
G01*
X217457000Y-127816500D01*
G75*
G02*
X217694500Y-127579000I237500J0D01*
G01*
X218169500Y-127579000D01*
G75*
G02*
X218407000Y-127816500I0J-237500D01*
G01*
X218407000Y-128416500D01*
G75*
G02*
X218169500Y-128654000I-237500J0D01*
G01*
G37*
%TD*%
%TO.C,C23*%
G36*
G01*
X201747000Y-131301500D02*
X201747000Y-130826500D01*
G75*
G02*
X201984500Y-130589000I237500J0D01*
G01*
X202584500Y-130589000D01*
G75*
G02*
X202822000Y-130826500I0J-237500D01*
G01*
X202822000Y-131301500D01*
G75*
G02*
X202584500Y-131539000I-237500J0D01*
G01*
X201984500Y-131539000D01*
G75*
G02*
X201747000Y-131301500I0J237500D01*
G01*
G37*
G36*
G01*
X200022000Y-131301500D02*
X200022000Y-130826500D01*
G75*
G02*
X200259500Y-130589000I237500J0D01*
G01*
X200859500Y-130589000D01*
G75*
G02*
X201097000Y-130826500I0J-237500D01*
G01*
X201097000Y-131301500D01*
G75*
G02*
X200859500Y-131539000I-237500J0D01*
G01*
X200259500Y-131539000D01*
G75*
G02*
X200022000Y-131301500I0J237500D01*
G01*
G37*
%TD*%
%TO.C,C21*%
G36*
G01*
X192294500Y-122499000D02*
X192769500Y-122499000D01*
G75*
G02*
X193007000Y-122736500I0J-237500D01*
G01*
X193007000Y-123336500D01*
G75*
G02*
X192769500Y-123574000I-237500J0D01*
G01*
X192294500Y-123574000D01*
G75*
G02*
X192057000Y-123336500I0J237500D01*
G01*
X192057000Y-122736500D01*
G75*
G02*
X192294500Y-122499000I237500J0D01*
G01*
G37*
G36*
G01*
X192294500Y-120774000D02*
X192769500Y-120774000D01*
G75*
G02*
X193007000Y-121011500I0J-237500D01*
G01*
X193007000Y-121611500D01*
G75*
G02*
X192769500Y-121849000I-237500J0D01*
G01*
X192294500Y-121849000D01*
G75*
G02*
X192057000Y-121611500I0J237500D01*
G01*
X192057000Y-121011500D01*
G75*
G02*
X192294500Y-120774000I237500J0D01*
G01*
G37*
%TD*%
%TO.C,C20*%
G36*
G01*
X202929500Y-126929000D02*
X202454500Y-126929000D01*
G75*
G02*
X202217000Y-126691500I0J237500D01*
G01*
X202217000Y-126091500D01*
G75*
G02*
X202454500Y-125854000I237500J0D01*
G01*
X202929500Y-125854000D01*
G75*
G02*
X203167000Y-126091500I0J-237500D01*
G01*
X203167000Y-126691500D01*
G75*
G02*
X202929500Y-126929000I-237500J0D01*
G01*
G37*
G36*
G01*
X202929500Y-128654000D02*
X202454500Y-128654000D01*
G75*
G02*
X202217000Y-128416500I0J237500D01*
G01*
X202217000Y-127816500D01*
G75*
G02*
X202454500Y-127579000I237500J0D01*
G01*
X202929500Y-127579000D01*
G75*
G02*
X203167000Y-127816500I0J-237500D01*
G01*
X203167000Y-128416500D01*
G75*
G02*
X202929500Y-128654000I-237500J0D01*
G01*
G37*
%TD*%
%TO.C,C19*%
G36*
G01*
X179594500Y-127579000D02*
X180069500Y-127579000D01*
G75*
G02*
X180307000Y-127816500I0J-237500D01*
G01*
X180307000Y-128416500D01*
G75*
G02*
X180069500Y-128654000I-237500J0D01*
G01*
X179594500Y-128654000D01*
G75*
G02*
X179357000Y-128416500I0J237500D01*
G01*
X179357000Y-127816500D01*
G75*
G02*
X179594500Y-127579000I237500J0D01*
G01*
G37*
G36*
G01*
X179594500Y-125854000D02*
X180069500Y-125854000D01*
G75*
G02*
X180307000Y-126091500I0J-237500D01*
G01*
X180307000Y-126691500D01*
G75*
G02*
X180069500Y-126929000I-237500J0D01*
G01*
X179594500Y-126929000D01*
G75*
G02*
X179357000Y-126691500I0J237500D01*
G01*
X179357000Y-126091500D01*
G75*
G02*
X179594500Y-125854000I237500J0D01*
G01*
G37*
%TD*%
%TO.C,C18*%
G36*
G01*
X164354500Y-127579000D02*
X164829500Y-127579000D01*
G75*
G02*
X165067000Y-127816500I0J-237500D01*
G01*
X165067000Y-128416500D01*
G75*
G02*
X164829500Y-128654000I-237500J0D01*
G01*
X164354500Y-128654000D01*
G75*
G02*
X164117000Y-128416500I0J237500D01*
G01*
X164117000Y-127816500D01*
G75*
G02*
X164354500Y-127579000I237500J0D01*
G01*
G37*
G36*
G01*
X164354500Y-125854000D02*
X164829500Y-125854000D01*
G75*
G02*
X165067000Y-126091500I0J-237500D01*
G01*
X165067000Y-126691500D01*
G75*
G02*
X164829500Y-126929000I-237500J0D01*
G01*
X164354500Y-126929000D01*
G75*
G02*
X164117000Y-126691500I0J237500D01*
G01*
X164117000Y-126091500D01*
G75*
G02*
X164354500Y-125854000I237500J0D01*
G01*
G37*
%TD*%
%TO.C,C17*%
G36*
G01*
X181427000Y-131301500D02*
X181427000Y-130826500D01*
G75*
G02*
X181664500Y-130589000I237500J0D01*
G01*
X182264500Y-130589000D01*
G75*
G02*
X182502000Y-130826500I0J-237500D01*
G01*
X182502000Y-131301500D01*
G75*
G02*
X182264500Y-131539000I-237500J0D01*
G01*
X181664500Y-131539000D01*
G75*
G02*
X181427000Y-131301500I0J237500D01*
G01*
G37*
G36*
G01*
X179702000Y-131301500D02*
X179702000Y-130826500D01*
G75*
G02*
X179939500Y-130589000I237500J0D01*
G01*
X180539500Y-130589000D01*
G75*
G02*
X180777000Y-130826500I0J-237500D01*
G01*
X180777000Y-131301500D01*
G75*
G02*
X180539500Y-131539000I-237500J0D01*
G01*
X179939500Y-131539000D01*
G75*
G02*
X179702000Y-131301500I0J237500D01*
G01*
G37*
%TD*%
%TO.C,C16*%
G36*
G01*
X166187000Y-131301500D02*
X166187000Y-130826500D01*
G75*
G02*
X166424500Y-130589000I237500J0D01*
G01*
X167024500Y-130589000D01*
G75*
G02*
X167262000Y-130826500I0J-237500D01*
G01*
X167262000Y-131301500D01*
G75*
G02*
X167024500Y-131539000I-237500J0D01*
G01*
X166424500Y-131539000D01*
G75*
G02*
X166187000Y-131301500I0J237500D01*
G01*
G37*
G36*
G01*
X164462000Y-131301500D02*
X164462000Y-130826500D01*
G75*
G02*
X164699500Y-130589000I237500J0D01*
G01*
X165299500Y-130589000D01*
G75*
G02*
X165537000Y-130826500I0J-237500D01*
G01*
X165537000Y-131301500D01*
G75*
G02*
X165299500Y-131539000I-237500J0D01*
G01*
X164699500Y-131539000D01*
G75*
G02*
X164462000Y-131301500I0J237500D01*
G01*
G37*
%TD*%
%TO.C,C15*%
G36*
G01*
X182609500Y-126929000D02*
X182134500Y-126929000D01*
G75*
G02*
X181897000Y-126691500I0J237500D01*
G01*
X181897000Y-126091500D01*
G75*
G02*
X182134500Y-125854000I237500J0D01*
G01*
X182609500Y-125854000D01*
G75*
G02*
X182847000Y-126091500I0J-237500D01*
G01*
X182847000Y-126691500D01*
G75*
G02*
X182609500Y-126929000I-237500J0D01*
G01*
G37*
G36*
G01*
X182609500Y-128654000D02*
X182134500Y-128654000D01*
G75*
G02*
X181897000Y-128416500I0J237500D01*
G01*
X181897000Y-127816500D01*
G75*
G02*
X182134500Y-127579000I237500J0D01*
G01*
X182609500Y-127579000D01*
G75*
G02*
X182847000Y-127816500I0J-237500D01*
G01*
X182847000Y-128416500D01*
G75*
G02*
X182609500Y-128654000I-237500J0D01*
G01*
G37*
%TD*%
%TO.C,C14*%
G36*
G01*
X167369500Y-126929000D02*
X166894500Y-126929000D01*
G75*
G02*
X166657000Y-126691500I0J237500D01*
G01*
X166657000Y-126091500D01*
G75*
G02*
X166894500Y-125854000I237500J0D01*
G01*
X167369500Y-125854000D01*
G75*
G02*
X167607000Y-126091500I0J-237500D01*
G01*
X167607000Y-126691500D01*
G75*
G02*
X167369500Y-126929000I-237500J0D01*
G01*
G37*
G36*
G01*
X167369500Y-128654000D02*
X166894500Y-128654000D01*
G75*
G02*
X166657000Y-128416500I0J237500D01*
G01*
X166657000Y-127816500D01*
G75*
G02*
X166894500Y-127579000I237500J0D01*
G01*
X167369500Y-127579000D01*
G75*
G02*
X167607000Y-127816500I0J-237500D01*
G01*
X167607000Y-128416500D01*
G75*
G02*
X167369500Y-128654000I-237500J0D01*
G01*
G37*
%TD*%
%TO.C,C13*%
G36*
G01*
X184674500Y-127579000D02*
X185149500Y-127579000D01*
G75*
G02*
X185387000Y-127816500I0J-237500D01*
G01*
X185387000Y-128416500D01*
G75*
G02*
X185149500Y-128654000I-237500J0D01*
G01*
X184674500Y-128654000D01*
G75*
G02*
X184437000Y-128416500I0J237500D01*
G01*
X184437000Y-127816500D01*
G75*
G02*
X184674500Y-127579000I237500J0D01*
G01*
G37*
G36*
G01*
X184674500Y-125854000D02*
X185149500Y-125854000D01*
G75*
G02*
X185387000Y-126091500I0J-237500D01*
G01*
X185387000Y-126691500D01*
G75*
G02*
X185149500Y-126929000I-237500J0D01*
G01*
X184674500Y-126929000D01*
G75*
G02*
X184437000Y-126691500I0J237500D01*
G01*
X184437000Y-126091500D01*
G75*
G02*
X184674500Y-125854000I237500J0D01*
G01*
G37*
%TD*%
%TO.C,C12*%
G36*
G01*
X169434500Y-127579000D02*
X169909500Y-127579000D01*
G75*
G02*
X170147000Y-127816500I0J-237500D01*
G01*
X170147000Y-128416500D01*
G75*
G02*
X169909500Y-128654000I-237500J0D01*
G01*
X169434500Y-128654000D01*
G75*
G02*
X169197000Y-128416500I0J237500D01*
G01*
X169197000Y-127816500D01*
G75*
G02*
X169434500Y-127579000I237500J0D01*
G01*
G37*
G36*
G01*
X169434500Y-125854000D02*
X169909500Y-125854000D01*
G75*
G02*
X170147000Y-126091500I0J-237500D01*
G01*
X170147000Y-126691500D01*
G75*
G02*
X169909500Y-126929000I-237500J0D01*
G01*
X169434500Y-126929000D01*
G75*
G02*
X169197000Y-126691500I0J237500D01*
G01*
X169197000Y-126091500D01*
G75*
G02*
X169434500Y-125854000I237500J0D01*
G01*
G37*
%TD*%
%TO.C,C11*%
G36*
G01*
X186507000Y-131301500D02*
X186507000Y-130826500D01*
G75*
G02*
X186744500Y-130589000I237500J0D01*
G01*
X187344500Y-130589000D01*
G75*
G02*
X187582000Y-130826500I0J-237500D01*
G01*
X187582000Y-131301500D01*
G75*
G02*
X187344500Y-131539000I-237500J0D01*
G01*
X186744500Y-131539000D01*
G75*
G02*
X186507000Y-131301500I0J237500D01*
G01*
G37*
G36*
G01*
X184782000Y-131301500D02*
X184782000Y-130826500D01*
G75*
G02*
X185019500Y-130589000I237500J0D01*
G01*
X185619500Y-130589000D01*
G75*
G02*
X185857000Y-130826500I0J-237500D01*
G01*
X185857000Y-131301500D01*
G75*
G02*
X185619500Y-131539000I-237500J0D01*
G01*
X185019500Y-131539000D01*
G75*
G02*
X184782000Y-131301500I0J237500D01*
G01*
G37*
%TD*%
%TO.C,C10*%
G36*
G01*
X171267000Y-131301500D02*
X171267000Y-130826500D01*
G75*
G02*
X171504500Y-130589000I237500J0D01*
G01*
X172104500Y-130589000D01*
G75*
G02*
X172342000Y-130826500I0J-237500D01*
G01*
X172342000Y-131301500D01*
G75*
G02*
X172104500Y-131539000I-237500J0D01*
G01*
X171504500Y-131539000D01*
G75*
G02*
X171267000Y-131301500I0J237500D01*
G01*
G37*
G36*
G01*
X169542000Y-131301500D02*
X169542000Y-130826500D01*
G75*
G02*
X169779500Y-130589000I237500J0D01*
G01*
X170379500Y-130589000D01*
G75*
G02*
X170617000Y-130826500I0J-237500D01*
G01*
X170617000Y-131301500D01*
G75*
G02*
X170379500Y-131539000I-237500J0D01*
G01*
X169779500Y-131539000D01*
G75*
G02*
X169542000Y-131301500I0J237500D01*
G01*
G37*
%TD*%
%TO.C,C7*%
G36*
G01*
X187689500Y-126929000D02*
X187214500Y-126929000D01*
G75*
G02*
X186977000Y-126691500I0J237500D01*
G01*
X186977000Y-126091500D01*
G75*
G02*
X187214500Y-125854000I237500J0D01*
G01*
X187689500Y-125854000D01*
G75*
G02*
X187927000Y-126091500I0J-237500D01*
G01*
X187927000Y-126691500D01*
G75*
G02*
X187689500Y-126929000I-237500J0D01*
G01*
G37*
G36*
G01*
X187689500Y-128654000D02*
X187214500Y-128654000D01*
G75*
G02*
X186977000Y-128416500I0J237500D01*
G01*
X186977000Y-127816500D01*
G75*
G02*
X187214500Y-127579000I237500J0D01*
G01*
X187689500Y-127579000D01*
G75*
G02*
X187927000Y-127816500I0J-237500D01*
G01*
X187927000Y-128416500D01*
G75*
G02*
X187689500Y-128654000I-237500J0D01*
G01*
G37*
%TD*%
%TO.C,C5*%
G36*
G01*
X161814500Y-122499000D02*
X162289500Y-122499000D01*
G75*
G02*
X162527000Y-122736500I0J-237500D01*
G01*
X162527000Y-123336500D01*
G75*
G02*
X162289500Y-123574000I-237500J0D01*
G01*
X161814500Y-123574000D01*
G75*
G02*
X161577000Y-123336500I0J237500D01*
G01*
X161577000Y-122736500D01*
G75*
G02*
X161814500Y-122499000I237500J0D01*
G01*
G37*
G36*
G01*
X161814500Y-120774000D02*
X162289500Y-120774000D01*
G75*
G02*
X162527000Y-121011500I0J-237500D01*
G01*
X162527000Y-121611500D01*
G75*
G02*
X162289500Y-121849000I-237500J0D01*
G01*
X161814500Y-121849000D01*
G75*
G02*
X161577000Y-121611500I0J237500D01*
G01*
X161577000Y-121011500D01*
G75*
G02*
X161814500Y-120774000I237500J0D01*
G01*
G37*
%TD*%
%TO.C,C4*%
G36*
G01*
X172449500Y-126929000D02*
X171974500Y-126929000D01*
G75*
G02*
X171737000Y-126691500I0J237500D01*
G01*
X171737000Y-126091500D01*
G75*
G02*
X171974500Y-125854000I237500J0D01*
G01*
X172449500Y-125854000D01*
G75*
G02*
X172687000Y-126091500I0J-237500D01*
G01*
X172687000Y-126691500D01*
G75*
G02*
X172449500Y-126929000I-237500J0D01*
G01*
G37*
G36*
G01*
X172449500Y-128654000D02*
X171974500Y-128654000D01*
G75*
G02*
X171737000Y-128416500I0J237500D01*
G01*
X171737000Y-127816500D01*
G75*
G02*
X171974500Y-127579000I237500J0D01*
G01*
X172449500Y-127579000D01*
G75*
G02*
X172687000Y-127816500I0J-237500D01*
G01*
X172687000Y-128416500D01*
G75*
G02*
X172449500Y-128654000I-237500J0D01*
G01*
G37*
%TD*%
%TO.C,C3*%
G36*
G01*
X121737000Y-74151500D02*
X121737000Y-73676500D01*
G75*
G02*
X121974500Y-73439000I237500J0D01*
G01*
X122574500Y-73439000D01*
G75*
G02*
X122812000Y-73676500I0J-237500D01*
G01*
X122812000Y-74151500D01*
G75*
G02*
X122574500Y-74389000I-237500J0D01*
G01*
X121974500Y-74389000D01*
G75*
G02*
X121737000Y-74151500I0J237500D01*
G01*
G37*
G36*
G01*
X120012000Y-74151500D02*
X120012000Y-73676500D01*
G75*
G02*
X120249500Y-73439000I237500J0D01*
G01*
X120849500Y-73439000D01*
G75*
G02*
X121087000Y-73676500I0J-237500D01*
G01*
X121087000Y-74151500D01*
G75*
G02*
X120849500Y-74389000I-237500J0D01*
G01*
X120249500Y-74389000D01*
G75*
G02*
X120012000Y-74151500I0J237500D01*
G01*
G37*
%TD*%
%TO.C,C2*%
G36*
G01*
X142057000Y-74151500D02*
X142057000Y-73676500D01*
G75*
G02*
X142294500Y-73439000I237500J0D01*
G01*
X142894500Y-73439000D01*
G75*
G02*
X143132000Y-73676500I0J-237500D01*
G01*
X143132000Y-74151500D01*
G75*
G02*
X142894500Y-74389000I-237500J0D01*
G01*
X142294500Y-74389000D01*
G75*
G02*
X142057000Y-74151500I0J237500D01*
G01*
G37*
G36*
G01*
X140332000Y-74151500D02*
X140332000Y-73676500D01*
G75*
G02*
X140569500Y-73439000I237500J0D01*
G01*
X141169500Y-73439000D01*
G75*
G02*
X141407000Y-73676500I0J-237500D01*
G01*
X141407000Y-74151500D01*
G75*
G02*
X141169500Y-74389000I-237500J0D01*
G01*
X140569500Y-74389000D01*
G75*
G02*
X140332000Y-74151500I0J237500D01*
G01*
G37*
%TD*%
M02*
